<svg xmlns="http://www.w3.org/2000/svg" xmlns:xlink="http://www.w3.org/1999/xlink" viewBox="0 0 648.23 53.43"><defs><style>.cls-1,.cls-12,.cls-21,.cls-27,.cls-34,.cls-40,.cls-47,.cls-54,.cls-63,.cls-70,.cls-76,.cls-84{stroke:#e78f35;stroke-width:0.63px;}.cls-1,.cls-11,.cls-12,.cls-13,.cls-14,.cls-15,.cls-16,.cls-19,.cls-2,.cls-20,.cls-21,.cls-22,.cls-23,.cls-24,.cls-27,.cls-28,.cls-29,.cls-3,.cls-30,.cls-33,.cls-34,.cls-35,.cls-36,.cls-37,.cls-4,.cls-40,.cls-41,.cls-42,.cls-43,.cls-46,.cls-47,.cls-48,.cls-49,.cls-5,.cls-50,.cls-53,.cls-54,.cls-55,.cls-56,.cls-57,.cls-6,.cls-60,.cls-63,.cls-64,.cls-65,.cls-66,.cls-68,.cls-7,.cls-70,.cls-71,.cls-72,.cls-73,.cls-76,.cls-77,.cls-78,.cls-79,.cls-8,.cls-84,.cls-85,.cls-86,.cls-87,.cls-92{stroke-miterlimit:10;}.cls-1{fill:url(#Dégradé_sans_nom_154);}.cls-2,.cls-3{fill:#0f0c0b;stroke-width:0.71px;}.cls-13,.cls-2,.cls-22,.cls-28,.cls-35,.cls-4,.cls-41,.cls-48,.cls-55,.cls-64,.cls-71,.cls-77,.cls-85{stroke:#0f0c0b;}.cls-14,.cls-15,.cls-23,.cls-24,.cls-29,.cls-3,.cls-30,.cls-36,.cls-37,.cls-42,.cls-43,.cls-49,.cls-5,.cls-50,.cls-56,.cls-57,.cls-6,.cls-65,.cls-66,.cls-72,.cls-73,.cls-78,.cls-79,.cls-86,.cls-87{stroke:#0d0c0b;}.cls-13,.cls-14,.cls-22,.cls-23,.cls-28,.cls-29,.cls-35,.cls-36,.cls-4,.cls-41,.cls-42,.cls-48,.cls-49,.cls-5,.cls-55,.cls-56,.cls-64,.cls-65,.cls-71,.cls-72,.cls-77,.cls-78,.cls-85,.cls-86{stroke-width:1.2px;}.cls-4{fill:url(#Dégradé_sans_nom_96);}.cls-5{fill:url(#Dégradé_sans_nom_96-2);}.cls-6{fill:url(#Dégradé_sans_nom_109);}.cls-20,.cls-60,.cls-7,.cls-93{fill:none;}.cls-11,.cls-16,.cls-19,.cls-20,.cls-33,.cls-46,.cls-53,.cls-60,.cls-68,.cls-7,.cls-8,.cls-92{stroke:#4e412d;}.cls-7{stroke-width:0.48px;}.cls-8{fill:url(#Dégradé_sans_nom_245);}.cls-9{fill:url(#Dégradé_sans_nom_348);}.cls-10{fill:url(#Dégradé_sans_nom_348-2);}.cls-11,.cls-19{fill:#d6dfe7;}.cls-11{stroke-width:0.77px;}.cls-12{fill:url(#Dégradé_sans_nom_154-2);}.cls-13{fill:url(#Dégradé_sans_nom_96-3);}.cls-14{fill:url(#Dégradé_sans_nom_96-4);}.cls-15{fill:url(#Dégradé_sans_nom_109-2);}.cls-16{fill:url(#Dégradé_sans_nom_367);}.cls-17{fill:url(#Dégradé_sans_nom_348-3);}.cls-18{fill:url(#Dégradé_sans_nom_348-4);}.cls-19{stroke-width:0.8px;}.cls-20{stroke-width:0.47px;}.cls-21{fill:url(#Dégradé_sans_nom_154-3);}.cls-22{fill:url(#Dégradé_sans_nom_96-5);}.cls-23{fill:url(#Dégradé_sans_nom_96-6);}.cls-24{fill:url(#Dégradé_sans_nom_109-3);}.cls-25{fill:url(#Dégradé_sans_nom_348-5);}.cls-26{fill:url(#Dégradé_sans_nom_348-6);}.cls-27{fill:url(#Dégradé_sans_nom_154-4);}.cls-28{fill:url(#Dégradé_sans_nom_96-7);}.cls-29{fill:url(#Dégradé_sans_nom_96-8);}.cls-30{fill:url(#Dégradé_sans_nom_109-4);}.cls-31{fill:url(#Dégradé_sans_nom_348-7);}.cls-32{fill:url(#Dégradé_sans_nom_348-8);}.cls-33{fill:url(#Dégradé_sans_nom_245-2);}.cls-34{fill:url(#Dégradé_sans_nom_154-5);}.cls-35{fill:url(#Dégradé_sans_nom_96-9);}.cls-36{fill:url(#Dégradé_sans_nom_96-10);}.cls-37{fill:url(#Dégradé_sans_nom_109-5);}.cls-38{fill:url(#Dégradé_sans_nom_348-9);}.cls-39{fill:url(#Dégradé_sans_nom_348-10);}.cls-40{fill:url(#Dégradé_sans_nom_154-6);}.cls-41{fill:url(#Dégradé_sans_nom_96-11);}.cls-42{fill:url(#Dégradé_sans_nom_96-12);}.cls-43{fill:url(#Dégradé_sans_nom_109-6);}.cls-44{fill:url(#Dégradé_sans_nom_348-11);}.cls-45{fill:url(#Dégradé_sans_nom_348-12);}.cls-46,.cls-53,.cls-68,.cls-92{stroke-width:0.65px;}.cls-46{fill:url(#Dégradé_sans_nom_245-3);}.cls-47{fill:url(#Dégradé_sans_nom_154-7);}.cls-48{fill:url(#Dégradé_sans_nom_96-13);}.cls-49{fill:url(#Dégradé_sans_nom_96-14);}.cls-50{fill:url(#Dégradé_sans_nom_109-7);}.cls-51{fill:url(#Dégradé_sans_nom_348-13);}.cls-52{fill:url(#Dégradé_sans_nom_348-14);}.cls-53{fill:url(#Dégradé_sans_nom_245-4);}.cls-54{fill:url(#Dégradé_sans_nom_154-8);}.cls-55{fill:url(#Dégradé_sans_nom_96-15);}.cls-56{fill:url(#Dégradé_sans_nom_96-16);}.cls-57{fill:url(#Dégradé_sans_nom_109-8);}.cls-58{fill:url(#Dégradé_sans_nom_348-15);}.cls-59{fill:url(#Dégradé_sans_nom_348-16);}.cls-61{fill:url(#Dégradé_sans_nom_348-17);}.cls-62{fill:url(#Dégradé_sans_nom_348-18);}.cls-63{fill:url(#Dégradé_sans_nom_154-9);}.cls-64{fill:url(#Dégradé_sans_nom_96-17);}.cls-65{fill:url(#Dégradé_sans_nom_96-18);}.cls-66{fill:url(#Dégradé_sans_nom_109-9);}.cls-67{fill:url(#Dégradé_sans_nom_348-19);}.cls-68{fill:url(#Dégradé_sans_nom_245-5);}.cls-69{fill:url(#Dégradé_sans_nom_348-20);}.cls-70{fill:url(#Dégradé_sans_nom_154-10);}.cls-71{fill:url(#Dégradé_sans_nom_96-19);}.cls-72{fill:url(#Dégradé_sans_nom_96-20);}.cls-73{fill:url(#Dégradé_sans_nom_109-10);}.cls-74{fill:url(#Dégradé_sans_nom_348-21);}.cls-75{fill:url(#Dégradé_sans_nom_348-22);}.cls-76{fill:url(#Dégradé_sans_nom_154-11);}.cls-77{fill:url(#Dégradé_sans_nom_96-21);}.cls-78{fill:url(#Dégradé_sans_nom_96-22);}.cls-79{fill:url(#Dégradé_sans_nom_109-11);}.cls-80{fill:url(#Dégradé_sans_nom_348-23);}.cls-81{fill:url(#Dégradé_sans_nom_348-24);}.cls-82{fill:url(#Dégradé_sans_nom_348-25);}.cls-83{fill:url(#Dégradé_sans_nom_348-26);}.cls-84{fill:url(#Dégradé_sans_nom_154-12);}.cls-85{fill:url(#Dégradé_sans_nom_96-23);}.cls-86{fill:url(#Dégradé_sans_nom_96-24);}.cls-87{fill:url(#Dégradé_sans_nom_109-12);}.cls-88{fill:url(#Dégradé_sans_nom_348-27);}.cls-89{fill:url(#Dégradé_sans_nom_348-28);}.cls-90{fill:url(#Dégradé_sans_nom_348-29);}.cls-91{fill:url(#Dégradé_sans_nom_348-30);}.cls-92{fill:url(#Dégradé_sans_nom_245-6);}.cls-94{fill:url(#Dégradé_sans_nom_348-31);}.cls-95{fill:url(#Dégradé_sans_nom_348-32);}.cls-96{fill:url(#Dégradé_sans_nom_348-33);}.cls-97{fill:url(#Dégradé_sans_nom_348-34);}</style><radialGradient id="Dégradé_sans_nom_154" cx="180.3" cy="26.06" fx="194.31449778139026" r="17.92" gradientTransform="translate(156.33 206.36) rotate(-90) scale(1 0.92)" gradientUnits="userSpaceOnUse"><stop offset="0.53" stop-color="#feed9f"/><stop offset="0.57" stop-color="#fde98d"/><stop offset="0.64" stop-color="#fce472"/><stop offset="0.7" stop-color="#fbe162"/><stop offset="0.74" stop-color="#fbe05c"/><stop offset="0.86" stop-color="#f9c139"/><stop offset="0.93" stop-color="#f8b126"/><stop offset="1" stop-color="#f2981a"/></radialGradient><radialGradient id="Dégradé_sans_nom_96" cx="170.53" cy="23.15" r="6.32" gradientTransform="translate(32.11 -78.15) rotate(30) scale(1 0.8)" gradientUnits="userSpaceOnUse"><stop offset="0" stop-color="#c5dac1"/><stop offset="0.1" stop-color="#bad2b2"/><stop offset="0.27" stop-color="#acc79f"/><stop offset="0.45" stop-color="#a3c094"/><stop offset="0.63" stop-color="#a0be90"/><stop offset="0.89" stop-color="#bed6b9"/><stop offset="0.93" stop-color="#c2d9be"/></radialGradient><radialGradient id="Dégradé_sans_nom_96-2" cx="190.02" cy="23.15" r="6.32" gradientTransform="matrix(1, 0, 0, 1, 0, 0)" xlink:href="#Dégradé_sans_nom_96"/><linearGradient id="Dégradé_sans_nom_109" x1="180.22" y1="21.49" x2="180.22" y2="17.91" gradientUnits="userSpaceOnUse"><stop offset="0"/><stop offset="0.01" stop-color="#121212"/><stop offset="0.05" stop-color="#434343"/><stop offset="0.09" stop-color="#707070"/><stop offset="0.13" stop-color="#979797"/><stop offset="0.18" stop-color="#b7b7b7"/><stop offset="0.22" stop-color="#d1d1d1"/><stop offset="0.28" stop-color="#e6e6e6"/><stop offset="0.33" stop-color="#f4f4f4"/><stop offset="0.41" stop-color="#fcfcfc"/><stop offset="0.52" stop-color="#fff"/><stop offset="0.61" stop-color="#fcfcfc"/><stop offset="0.67" stop-color="#f2f2f2"/><stop offset="0.73" stop-color="#e2e2e2"/><stop offset="0.78" stop-color="#cbcbcb"/><stop offset="0.83" stop-color="#aeaeae"/><stop offset="0.88" stop-color="#898989"/><stop offset="0.92" stop-color="#5e5e5e"/><stop offset="0.96" stop-color="#2d2d2d"/><stop offset="1"/></linearGradient><radialGradient id="Dégradé_sans_nom_245" cx="180.18" cy="36.72" r="9.46" gradientUnits="userSpaceOnUse"><stop offset="0" stop-color="#de787a"/><stop offset="0.01" stop-color="#df797b"/><stop offset="0.13" stop-color="#e9858a"/><stop offset="0.28" stop-color="#ef8d93"/><stop offset="0.49" stop-color="#f18f96"/><stop offset="0.68" stop-color="#ef8e94"/><stop offset="0.75" stop-color="#e88a8e"/><stop offset="0.8" stop-color="#dc8382"/><stop offset="0.84" stop-color="#cb7a72"/><stop offset="0.88" stop-color="#b56d5d"/><stop offset="0.91" stop-color="#995e43"/><stop offset="0.94" stop-color="#794c24"/><stop offset="0.95" stop-color="#623f0e"/></radialGradient><radialGradient id="Dégradé_sans_nom_348" cx="168.99" cy="-26.88" r="6.25" gradientTransform="translate(371.55 -34.23) rotate(180) scale(1.18 2.12)" gradientUnits="userSpaceOnUse"><stop offset="0.25" stop-color="#d6dfe7"/><stop offset="0.33" stop-color="#56a69c"/><stop offset="0.33" stop-color="#56a49c"/><stop offset="0.39" stop-color="#59939b"/><stop offset="0.45" stop-color="#5b889a"/><stop offset="0.54" stop-color="#5d8199"/><stop offset="0.78" stop-color="#5d7f99"/><stop offset="0.78" stop-color="#5e7f98"/><stop offset="0.84" stop-color="#697e85"/><stop offset="0.89" stop-color="#707e7b"/><stop offset="0.96" stop-color="#727e77"/></radialGradient><radialGradient id="Dégradé_sans_nom_348-2" cx="182.05" cy="-26.65" r="6.25" gradientTransform="translate(402.27 -33.47) rotate(180) scale(1.18 2.12)" xlink:href="#Dégradé_sans_nom_348"/><radialGradient id="Dégradé_sans_nom_154-2" cx="126.37" cy="25.96" fx="140.38376078058533" r="17.92" gradientTransform="translate(102.49 152.32) rotate(-90) scale(1 0.92)" xlink:href="#Dégradé_sans_nom_154"/><radialGradient id="Dégradé_sans_nom_96-3" cx="116.6" cy="23.05" r="6.32" gradientTransform="translate(24.84 -51.22) rotate(30) scale(1 0.8)" xlink:href="#Dégradé_sans_nom_96"/><radialGradient id="Dégradé_sans_nom_96-4" cx="136.09" cy="23.05" r="6.32" gradientTransform="matrix(1, 0, 0, 1, 0, 0)" xlink:href="#Dégradé_sans_nom_96"/><linearGradient id="Dégradé_sans_nom_109-2" x1="126.29" y1="21.39" x2="126.29" y2="17.8" xlink:href="#Dégradé_sans_nom_109"/><radialGradient id="Dégradé_sans_nom_367" cx="126.24" cy="36.62" r="9.46" gradientUnits="userSpaceOnUse"><stop offset="0" stop-color="#de787a"/><stop offset="0.01" stop-color="#df797b"/><stop offset="0.13" stop-color="#e9858a"/><stop offset="0.28" stop-color="#ef8d93"/><stop offset="0.49" stop-color="#f18f96"/><stop offset="0.58" stop-color="#ef8e94"/><stop offset="0.61" stop-color="#e88a8e"/><stop offset="0.64" stop-color="#dc8382"/><stop offset="0.66" stop-color="#cb7a72"/><stop offset="0.67" stop-color="#b56d5d"/><stop offset="0.69" stop-color="#995e43"/><stop offset="0.7" stop-color="#794c24"/><stop offset="0.71" stop-color="#623f0e"/></radialGradient><radialGradient id="Dégradé_sans_nom_348-3" cx="123.14" cy="-26.97" r="6.25" gradientTransform="translate(263.69 -34.52) rotate(180) scale(1.18 2.12)" xlink:href="#Dégradé_sans_nom_348"/><radialGradient id="Dégradé_sans_nom_348-4" cx="136.19" cy="-26.74" r="6.25" gradientTransform="translate(294.4 -33.75) rotate(180) scale(1.18 2.12)" xlink:href="#Dégradé_sans_nom_348"/><radialGradient id="Dégradé_sans_nom_154-3" cx="18.27" cy="26.14" fx="32.28345134268088" r="17.92" gradientTransform="translate(-5.78 44.41) rotate(-90) scale(1 0.92)" xlink:href="#Dégradé_sans_nom_154"/><radialGradient id="Dégradé_sans_nom_96-5" cx="8.5" cy="23.23" r="6.32" gradientTransform="translate(10.43 2.89) rotate(30) scale(1 0.8)" xlink:href="#Dégradé_sans_nom_96"/><radialGradient id="Dégradé_sans_nom_96-6" cx="27.99" cy="23.23" r="6.32" gradientTransform="matrix(1, 0, 0, 1, 0, 0)" xlink:href="#Dégradé_sans_nom_96"/><linearGradient id="Dégradé_sans_nom_109-3" x1="18.19" y1="21.57" x2="18.19" y2="17.99" xlink:href="#Dégradé_sans_nom_109"/><radialGradient id="Dégradé_sans_nom_348-5" cx="10.64" cy="22.19" r="8.83" gradientTransform="translate(21.29 62.14) rotate(180) scale(1 1.8)" xlink:href="#Dégradé_sans_nom_348"/><radialGradient id="Dégradé_sans_nom_348-6" cx="26.08" cy="22.04" r="8.83" gradientTransform="translate(52.17 61.71) rotate(180) scale(1 1.8)" xlink:href="#Dégradé_sans_nom_348"/><radialGradient id="Dégradé_sans_nom_154-4" cx="288.28" cy="26.06" fx="302.29523631553997" r="17.92" gradientTransform="translate(264.3 314.34) rotate(-90) scale(1 0.92)" xlink:href="#Dégradé_sans_nom_154"/><radialGradient id="Dégradé_sans_nom_96-7" cx="278.36" cy="23.46" r="6.32" gradientTransform="translate(46.68 -131.97) rotate(30) scale(1 0.8)" xlink:href="#Dégradé_sans_nom_96"/><radialGradient id="Dégradé_sans_nom_96-8" cx="297.85" cy="23.46" r="6.32" gradientTransform="matrix(1, 0, 0, 1, 0, 0)" xlink:href="#Dégradé_sans_nom_96"/><linearGradient id="Dégradé_sans_nom_109-4" x1="288.04" y1="21.8" x2="288.04" y2="18.22" xlink:href="#Dégradé_sans_nom_109"/><radialGradient id="Dégradé_sans_nom_348-7" cx="260.7" cy="-26.46" r="6.25" gradientTransform="translate(587.27 -32.84) rotate(180) scale(1.18 2.12)" xlink:href="#Dégradé_sans_nom_348"/><radialGradient id="Dégradé_sans_nom_348-8" cx="273.87" cy="-26.63" r="6.25" gradientTransform="translate(618.27 -33.4) rotate(180) scale(1.18 2.12)" xlink:href="#Dégradé_sans_nom_348"/><radialGradient id="Dégradé_sans_nom_245-2" cx="287.92" cy="36.28" r="9.46" xlink:href="#Dégradé_sans_nom_245"/><radialGradient id="Dégradé_sans_nom_154-5" cx="72.34" cy="25.96" fx="86.3544891845871" r="17.92" gradientTransform="translate(48.46 98.29) rotate(-90) scale(1 0.92)" xlink:href="#Dégradé_sans_nom_154"/><radialGradient id="Dégradé_sans_nom_96-9" cx="62.57" cy="23.05" r="6.32" gradientTransform="translate(17.6 -24.2) rotate(30) scale(1 0.8)" xlink:href="#Dégradé_sans_nom_96"/><radialGradient id="Dégradé_sans_nom_96-10" cx="82.06" cy="23.05" r="6.32" gradientTransform="matrix(1, 0, 0, 1, 0, 0)" xlink:href="#Dégradé_sans_nom_96"/><linearGradient id="Dégradé_sans_nom_109-5" x1="72.26" y1="21.39" x2="72.26" y2="17.8" xlink:href="#Dégradé_sans_nom_109"/><radialGradient id="Dégradé_sans_nom_348-9" cx="77.2" cy="-26.97" r="6.25" gradientTransform="translate(155.63 -34.52) rotate(180) scale(1.18 2.12)" xlink:href="#Dégradé_sans_nom_348"/><radialGradient id="Dégradé_sans_nom_348-10" cx="90.25" cy="-26.74" r="6.25" gradientTransform="translate(186.35 -33.75) rotate(180) scale(1.18 2.12)" xlink:href="#Dégradé_sans_nom_348"/><radialGradient id="Dégradé_sans_nom_154-6" cx="396.18" cy="26.06" fx="410.1911690407632" r="17.92" gradientTransform="translate(372.2 422.24) rotate(-90) scale(1 0.92)" xlink:href="#Dégradé_sans_nom_154"/><radialGradient id="Dégradé_sans_nom_96-11" cx="386.25" cy="23.46" r="6.32" gradientTransform="translate(61.13 -185.92) rotate(30) scale(1 0.8)" xlink:href="#Dégradé_sans_nom_96"/><radialGradient id="Dégradé_sans_nom_96-12" cx="405.74" cy="23.46" r="6.32" gradientTransform="matrix(1, 0, 0, 1, 0, 0)" xlink:href="#Dégradé_sans_nom_96"/><linearGradient id="Dégradé_sans_nom_109-6" x1="395.94" y1="21.8" x2="395.94" y2="18.22" xlink:href="#Dégradé_sans_nom_109"/><radialGradient id="Dégradé_sans_nom_348-11" cx="388.4" cy="22.42" r="8.83" gradientTransform="translate(776.8 62.78) rotate(180) scale(1 1.8)" xlink:href="#Dégradé_sans_nom_348"/><radialGradient id="Dégradé_sans_nom_348-12" cx="403.84" cy="22.27" r="8.83" gradientTransform="translate(807.68 62.35) rotate(180) scale(1 1.8)" xlink:href="#Dégradé_sans_nom_348"/><radialGradient id="Dégradé_sans_nom_245-3" cx="480.47" cy="294.15" r="9.46" gradientTransform="translate(36.32 -130.09) scale(0.75 0.56)" xlink:href="#Dégradé_sans_nom_245"/><radialGradient id="Dégradé_sans_nom_154-7" cx="342.17" cy="26.17" fx="356.187171503582" r="17.92" gradientTransform="translate(318.1 368.34) rotate(-90) scale(1 0.92)" xlink:href="#Dégradé_sans_nom_154"/><radialGradient id="Dégradé_sans_nom_96-13" cx="332.25" cy="23.56" r="6.32" gradientTransform="translate(53.94 -158.89) rotate(30) scale(1 0.8)" xlink:href="#Dégradé_sans_nom_96"/><radialGradient id="Dégradé_sans_nom_96-14" cx="351.74" cy="23.56" r="6.32" gradientTransform="matrix(1, 0, 0, 1, 0, 0)" xlink:href="#Dégradé_sans_nom_96"/><linearGradient id="Dégradé_sans_nom_109-7" x1="341.94" y1="21.9" x2="341.94" y2="18.32" xlink:href="#Dégradé_sans_nom_109"/><radialGradient id="Dégradé_sans_nom_348-13" cx="306.39" cy="-26.54" r="6.25" gradientTransform="translate(694.75 -33.12) rotate(180) scale(1.18 2.12)" xlink:href="#Dégradé_sans_nom_348"/><radialGradient id="Dégradé_sans_nom_348-14" cx="319.51" cy="-26.63" r="6.25" gradientTransform="translate(725.63 -33.4) rotate(180) scale(1.18 2.12)" xlink:href="#Dégradé_sans_nom_348"/><radialGradient id="Dégradé_sans_nom_245-4" cx="408.33" cy="294.91" r="9.46" gradientTransform="translate(36.32 -130.09) scale(0.75 0.56)" xlink:href="#Dégradé_sans_nom_245"/><radialGradient id="Dégradé_sans_nom_154-8" cx="505.27" cy="26.1" fx="519.2908832551311" r="17.92" gradientTransform="translate(481.26 531.38) rotate(-90) scale(1 0.92)" xlink:href="#Dégradé_sans_nom_154"/><radialGradient id="Dégradé_sans_nom_96-15" cx="495.35" cy="23.5" r="6.32" gradientTransform="translate(75.76 -240.46) rotate(30) scale(1 0.8)" xlink:href="#Dégradé_sans_nom_96"/><radialGradient id="Dégradé_sans_nom_96-16" cx="514.84" cy="23.5" r="6.32" gradientTransform="matrix(1, 0, 0, 1, 0, 0)" xlink:href="#Dégradé_sans_nom_96"/><linearGradient id="Dégradé_sans_nom_109-8" x1="505.04" y1="21.84" x2="505.04" y2="18.26" xlink:href="#Dégradé_sans_nom_109"/><radialGradient id="Dégradé_sans_nom_348-15" cx="497.5" cy="22.46" r="8.83" gradientTransform="translate(995 62.89) rotate(180) scale(1 1.8)" xlink:href="#Dégradé_sans_nom_348"/><radialGradient id="Dégradé_sans_nom_348-16" cx="512.94" cy="22.31" r="8.83" gradientTransform="translate(1025.88 62.46) rotate(180) scale(1 1.8)" xlink:href="#Dégradé_sans_nom_348"/><radialGradient id="Dégradé_sans_nom_348-17" cx="445.19" cy="-26.34" r="6.25" gradientTransform="translate(1021.25 -32.44) rotate(180) scale(1.18 2.12)" xlink:href="#Dégradé_sans_nom_348"/><radialGradient id="Dégradé_sans_nom_348-18" cx="458.19" cy="-26.6" r="6.25" gradientTransform="translate(1051.82 -33.3) rotate(180) scale(1.18 2.12)" xlink:href="#Dégradé_sans_nom_348"/><radialGradient id="Dégradé_sans_nom_154-9" cx="234.27" cy="25.99" fx="248.28553077320495" r="17.92" gradientTransform="translate(210.36 260.26) rotate(-90) scale(1 0.92)" xlink:href="#Dégradé_sans_nom_154"/><radialGradient id="Dégradé_sans_nom_96-17" cx="224.5" cy="23.08" r="6.32" gradientTransform="translate(39.31 -105.16) rotate(30) scale(1 0.8)" xlink:href="#Dégradé_sans_nom_96"/><radialGradient id="Dégradé_sans_nom_96-18" cx="243.99" cy="23.08" r="6.32" gradientTransform="matrix(1, 0, 0, 1, 0, 0)" xlink:href="#Dégradé_sans_nom_96"/><linearGradient id="Dégradé_sans_nom_109-9" x1="234.19" y1="21.42" x2="234.19" y2="17.84" xlink:href="#Dégradé_sans_nom_109"/><radialGradient id="Dégradé_sans_nom_348-19" cx="214.88" cy="-26.94" r="6.25" gradientTransform="translate(479.49 -34.43) rotate(180) scale(1.18 2.12)" xlink:href="#Dégradé_sans_nom_348"/><radialGradient id="Dégradé_sans_nom_245-5" cx="264.42" cy="294.29" r="9.46" gradientTransform="translate(36.32 -130.09) scale(0.75 0.56)" xlink:href="#Dégradé_sans_nom_245"/><radialGradient id="Dégradé_sans_nom_348-20" cx="228.73" cy="-26.92" r="6.25" gradientTransform="translate(512.09 -34.37) rotate(180) scale(1.18 2.12)" xlink:href="#Dégradé_sans_nom_348"/><radialGradient id="Dégradé_sans_nom_154-10" cx="558.39" cy="26.06" fx="572.4012429404102" r="17.92" gradientTransform="translate(534.41 584.45) rotate(-90) scale(1 0.92)" xlink:href="#Dégradé_sans_nom_154"/><radialGradient id="Dégradé_sans_nom_96-19" cx="548.46" cy="23.46" r="6.32" gradientTransform="translate(82.86 -267.02) rotate(30) scale(1 0.8)" xlink:href="#Dégradé_sans_nom_96"/><radialGradient id="Dégradé_sans_nom_96-20" cx="567.95" cy="23.46" r="6.32" gradientTransform="matrix(1, 0, 0, 1, 0, 0)" xlink:href="#Dégradé_sans_nom_96"/><linearGradient id="Dégradé_sans_nom_109-10" x1="558.15" y1="21.8" x2="558.15" y2="18.22" xlink:href="#Dégradé_sans_nom_109"/><radialGradient id="Dégradé_sans_nom_348-21" cx="550.61" cy="22.42" r="8.83" gradientTransform="translate(1101.22 62.78) rotate(180) scale(1 1.8)" xlink:href="#Dégradé_sans_nom_348"/><radialGradient id="Dégradé_sans_nom_348-22" cx="566.05" cy="22.27" r="8.83" gradientTransform="translate(1132.1 62.35) rotate(180) scale(1 1.8)" xlink:href="#Dégradé_sans_nom_348"/><radialGradient id="Dégradé_sans_nom_154-11" cx="612.41" cy="26.06" fx="626.4259199961234" r="17.92" gradientTransform="translate(588.43 638.47) rotate(-90) scale(1 0.92)" xlink:href="#Dégradé_sans_nom_154"/><radialGradient id="Dégradé_sans_nom_96-21" cx="602.49" cy="23.46" r="6.32" gradientTransform="translate(90.1 -294.04) rotate(30) scale(1 0.8)" xlink:href="#Dégradé_sans_nom_96"/><radialGradient id="Dégradé_sans_nom_96-22" cx="621.98" cy="23.46" r="6.32" gradientTransform="matrix(1, 0, 0, 1, 0, 0)" xlink:href="#Dégradé_sans_nom_96"/><linearGradient id="Dégradé_sans_nom_109-11" x1="612.18" y1="21.8" x2="612.18" y2="18.22" xlink:href="#Dégradé_sans_nom_109"/><radialGradient id="Dégradé_sans_nom_348-23" cx="604.63" cy="22.42" r="8.83" gradientTransform="translate(1209.27 62.78) rotate(180) scale(1 1.8)" xlink:href="#Dégradé_sans_nom_348"/><radialGradient id="Dégradé_sans_nom_348-24" cx="620.07" cy="22.27" r="8.83" gradientTransform="translate(1240.15 62.35) rotate(180) scale(1 1.8)" xlink:href="#Dégradé_sans_nom_348"/><radialGradient id="Dégradé_sans_nom_348-25" cx="536.28" cy="-26.37" r="6.25" gradientTransform="translate(1235.52 -32.55) rotate(180) scale(1.18 2.12)" xlink:href="#Dégradé_sans_nom_348"/><radialGradient id="Dégradé_sans_nom_348-26" cx="549.28" cy="-26.63" r="6.25" gradientTransform="translate(1266.09 -33.4) rotate(180) scale(1.18 2.12)" xlink:href="#Dégradé_sans_nom_348"/><radialGradient id="Dégradé_sans_nom_154-12" cx="450.21" cy="26.06" fx="464.2224164802617" r="17.92" gradientTransform="translate(426.23 476.27) rotate(-90) scale(1 0.92)" xlink:href="#Dégradé_sans_nom_154"/><radialGradient id="Dégradé_sans_nom_96-23" cx="440.28" cy="23.46" r="6.32" gradientTransform="translate(68.37 -212.94) rotate(30) scale(1 0.8)" xlink:href="#Dégradé_sans_nom_96"/><radialGradient id="Dégradé_sans_nom_96-24" cx="459.77" cy="23.46" r="6.32" gradientTransform="matrix(1, 0, 0, 1, 0, 0)" xlink:href="#Dégradé_sans_nom_96"/><linearGradient id="Dégradé_sans_nom_109-12" x1="449.97" y1="21.8" x2="449.97" y2="18.22" xlink:href="#Dégradé_sans_nom_109"/><radialGradient id="Dégradé_sans_nom_348-27" cx="442.43" cy="22.42" r="8.83" gradientTransform="translate(884.86 62.78) rotate(180) scale(1 1.8)" xlink:href="#Dégradé_sans_nom_348"/><radialGradient id="Dégradé_sans_nom_348-28" cx="457.87" cy="22.27" r="8.83" gradientTransform="translate(915.74 62.35) rotate(180) scale(1 1.8)" xlink:href="#Dégradé_sans_nom_348"/><radialGradient id="Dégradé_sans_nom_348-29" cx="398.5" cy="-26.46" r="6.25" gradientTransform="translate(911.43 -32.84) rotate(180) scale(1.18 2.12)" xlink:href="#Dégradé_sans_nom_348"/><radialGradient id="Dégradé_sans_nom_348-30" cx="411.55" cy="-26.63" r="6.25" gradientTransform="translate(942.12 -33.4) rotate(180) scale(1.18 2.12)" xlink:href="#Dégradé_sans_nom_348"/><radialGradient id="Dégradé_sans_nom_245-6" cx="552.49" cy="294.73" r="9.46" gradientTransform="translate(36.32 -130.09) scale(0.75 0.56)" xlink:href="#Dégradé_sans_nom_245"/><radialGradient id="Dégradé_sans_nom_348-31" cx="280.5" cy="22.42" r="8.83" gradientTransform="translate(561.01 62.78) rotate(180) scale(1 1.8)" xlink:href="#Dégradé_sans_nom_348"/><radialGradient id="Dégradé_sans_nom_348-32" cx="295.94" cy="22.27" r="8.83" gradientTransform="translate(591.88 62.35) rotate(180) scale(1 1.8)" xlink:href="#Dégradé_sans_nom_348"/><radialGradient id="Dégradé_sans_nom_348-33" cx="334.39" cy="22.53" r="8.83" gradientTransform="translate(668.79 63.07) rotate(180) scale(1 1.8)" xlink:href="#Dégradé_sans_nom_348"/><radialGradient id="Dégradé_sans_nom_348-34" cx="349.83" cy="22.37" r="8.83" gradientTransform="translate(699.67 62.64) rotate(180) scale(1 1.8)" xlink:href="#Dégradé_sans_nom_348"/></defs><g id="Calque_2" data-name="Calque 2"><g id="bonhommes-finaux"><ellipse class="cls-1" cx="180.3" cy="26.06" rx="17.6" ry="18.23"/><ellipse class="cls-2" cx="163.17" cy="18.39" rx="0.55" ry="0.54"/><ellipse class="cls-3" cx="197.31" cy="18.38" rx="0.54" ry="0.55" transform="translate(164.92 213.88) rotate(-85.91)"/><path class="cls-4" d="M163.62,18.11a7.64,7.64,0,0,0-.3,1.68c-.2,3.43,2,7.73,5.56,8.5a6.29,6.29,0,0,0,4-.55c8.25-3.9,3.44-9.86,3.44-9.86l-9.52.17Z"/><path class="cls-5" d="M196.92,18.11a7.09,7.09,0,0,1,.3,1.68c.2,3.43-2,7.73-5.55,8.5a6.29,6.29,0,0,1-4-.55c-8.26-3.9-3.44-9.86-3.44-9.86Z"/><path class="cls-6" d="M183.31,18.74a5.35,5.35,0,0,0-3-.83,5.41,5.41,0,0,0-3.15,1.17l.92,2.41a12.6,12.6,0,0,1,4.64,0Z"/><ellipse class="cls-7" cx="192.27" cy="31.78" rx="1.24" ry="0.22" transform="translate(98.87 202.82) rotate(-70.75)"/><path class="cls-8" d="M192.26,31.15c-5.46,2.07-18.58,2-24.06-.15l-.11.34C169.45,45.32,190.74,47,192.26,31.15Z"/><ellipse class="cls-9" cx="172.8" cy="22.63" rx="1.98" ry="3.27"/><ellipse class="cls-10" cx="188.15" cy="22.91" rx="1.98" ry="3.27"/><path class="cls-11" d="M191.61,34.24a75.94,75.94,0,0,1-11.54,1,76.47,76.47,0,0,1-11.16-.74,4.17,4.17,0,0,1-1-3.52,47.63,47.63,0,0,0,12.23,1.68,47.64,47.64,0,0,0,12.11-1.48,4.84,4.84,0,0,1-.65,3.09Z"/><ellipse class="cls-12" cx="126.37" cy="25.96" rx="17.6" ry="18.23"/><ellipse class="cls-2" cx="109.24" cy="18.29" rx="0.55" ry="0.54"/><ellipse class="cls-3" cx="143.38" cy="18.28" rx="0.54" ry="0.55" transform="translate(114.93 159.99) rotate(-85.91)"/><path class="cls-13" d="M109.69,18a7.29,7.29,0,0,0-.3,1.69c-.2,3.43,2,7.73,5.55,8.5a6.3,6.3,0,0,0,4-.56c8.25-3.89,3.44-9.86,3.44-9.86L112.9,18Z"/><path class="cls-14" d="M143,18a7.29,7.29,0,0,1,.3,1.69c.2,3.43-2,7.73-5.55,8.5a6.27,6.27,0,0,1-4-.56c-8.26-3.89-3.44-9.86-3.44-9.86Z"/><path class="cls-15" d="M129.38,18.63a5.34,5.34,0,0,0-6.19.35l.92,2.41a11.06,11.06,0,0,1,1.52-.19,12.46,12.46,0,0,1,3.12.19Z"/><ellipse class="cls-7" cx="138.34" cy="31.68" rx="1.24" ry="0.22" transform="translate(62.82 151.84) rotate(-70.75)"/><path class="cls-16" d="M138.33,31.05c-5.46,2.07-18.58,2-24.06-.16l-.11.35C115.52,45.22,136.81,46.93,138.33,31.05Z"/><ellipse class="cls-17" cx="118.87" cy="22.53" rx="1.98" ry="3.27"/><ellipse class="cls-18" cx="134.22" cy="22.8" rx="1.98" ry="3.27"/><path class="cls-19" d="M134.87,39.48a13.93,13.93,0,0,1-9,3.13c-1,0-6-.19-8.63-3.74a7.68,7.68,0,0,1-.77-1.3l19.49.38Z"/><path class="cls-19" d="M137.55,33.44c-3.54.22-7.21.38-11,.46-4.06.09-8,.08-11.77,0a3,3,0,0,1-.61-1.22,3.13,3.13,0,0,1,.11-1.79,44.47,44.47,0,0,0,12.16,1.71,44.47,44.47,0,0,0,12.19-1.68,3.22,3.22,0,0,1-.23,1.37A3,3,0,0,1,137.55,33.44Z"/><ellipse class="cls-20" cx="5.89" cy="31.47" rx="0.27" ry="0.98" transform="translate(-13.78 6.21) rotate(-27.3)"/><ellipse class="cls-21" cx="18.27" cy="26.14" rx="17.6" ry="18.23"/><ellipse class="cls-2" cx="1.14" cy="18.47" rx="0.55" ry="0.54"/><ellipse class="cls-3" cx="35.28" cy="18.47" rx="0.54" ry="0.55" transform="translate(14.35 52.34) rotate(-85.91)"/><path class="cls-22" d="M1.59,18.19a7.09,7.09,0,0,0-.3,1.68c-.2,3.43,2,7.73,5.55,8.5a6.32,6.32,0,0,0,4-.55c8.25-3.9,3.44-9.86,3.44-9.86l-9.52.17Z"/><path class="cls-23" d="M34.89,18.19a7.09,7.09,0,0,1,.3,1.68c.2,3.43-2,7.73-5.55,8.5a6.27,6.27,0,0,1-4-.55C17.35,23.92,22.17,18,22.17,18Z"/><path class="cls-24" d="M21.28,18.82a5.35,5.35,0,0,0-3-.83,5.41,5.41,0,0,0-3.15,1.17L16,21.57c.46-.08,1-.15,1.51-.19a13.53,13.53,0,0,1,3.13.19Z"/><ellipse class="cls-7" cx="30.24" cy="31.86" rx="1.24" ry="0.22" transform="translate(-9.81 49.91) rotate(-70.75)"/><path class="cls-19" d="M30.23,31.23c-5.46,2.07-18.58,2-24.06-.15l-.11.34C7.42,45.4,28.71,47.12,30.23,31.23Z"/><path class="cls-19" d="M7.05,34.77a27.11,27.11,0,0,0,22.17-.15"/><path class="cls-25" d="M7.43,24.57a3.21,3.21,0,0,1,3.29-3.1A3.2,3.2,0,0,1,14,24.57s0,0,0,0a3.62,3.62,0,0,0,.31-1.47A3.67,3.67,0,1,0,7.48,25,2.6,2.6,0,0,1,7.43,24.57Z"/><path class="cls-26" d="M22.87,24.41a3.3,3.3,0,0,1,6.58,0s0,0,0,0A3.63,3.63,0,0,0,29.75,23a3.67,3.67,0,1,0-7.34,0,3.84,3.84,0,0,0,.5,1.84C22.9,24.68,22.87,24.55,22.87,24.41Z"/><ellipse class="cls-7" cx="301.69" cy="31.1" rx="1.24" ry="0.22" transform="translate(172.84 305.66) rotate(-70.75)"/><ellipse class="cls-27" cx="288.28" cy="26.06" rx="17.6" ry="18.23"/><ellipse class="cls-2" cx="271" cy="18.7" rx="0.55" ry="0.54"/><ellipse class="cls-3" cx="305.14" cy="18.69" rx="0.54" ry="0.55" transform="translate(264.75 321.73) rotate(-85.91)"/><path class="cls-28" d="M271.45,18.42a7.09,7.09,0,0,0-.3,1.68c-.2,3.43,2,7.73,5.55,8.5a6.32,6.32,0,0,0,4-.55c8.25-3.9,3.44-9.86,3.44-9.86l-9.52.17Z"/><path class="cls-29" d="M304.75,18.42a7.09,7.09,0,0,1,.3,1.68c.2,3.43-2,7.73-5.55,8.5a6.27,6.27,0,0,1-4-.55c-8.26-3.9-3.44-9.86-3.44-9.86Z"/><path class="cls-30" d="M291.14,19.05a5.35,5.35,0,0,0-3-.83A5.41,5.41,0,0,0,285,19.39l.92,2.41a15.14,15.14,0,0,1,1.51-.19,13,13,0,0,1,3.13.19Z"/><ellipse class="cls-31" cx="280.66" cy="23.13" rx="1.98" ry="3.27"/><ellipse class="cls-32" cx="296.15" cy="22.93" rx="1.98" ry="3.27"/><path class="cls-33" d="M300,30.71c-5.46,2.07-18.58,2-24.06-.16l-.11.35C277.2,44.87,298.49,46.59,300,30.71Z"/><path class="cls-11" d="M299.36,33.79a75.83,75.83,0,0,1-11.54,1A75,75,0,0,1,276.66,34a4.22,4.22,0,0,1-.77-1.22,4.32,4.32,0,0,1-.23-2.29,48.08,48.08,0,0,0,12.23,1.68A48.12,48.12,0,0,0,300,30.71a4.82,4.82,0,0,1-.12,1.78A5,5,0,0,1,299.36,33.79Z"/><ellipse class="cls-34" cx="72.34" cy="25.96" rx="17.6" ry="18.23"/><ellipse class="cls-2" cx="55.21" cy="18.29" rx="0.55" ry="0.54"/><ellipse class="cls-3" cx="89.35" cy="18.28" rx="0.54" ry="0.55" transform="translate(64.75 106.1) rotate(-85.91)"/><path class="cls-35" d="M55.66,18a7.87,7.87,0,0,0-.3,1.69c-.2,3.43,2,7.73,5.56,8.5a6.28,6.28,0,0,0,4-.56c8.25-3.89,3.44-9.86,3.44-9.86L58.87,18Z"/><path class="cls-36" d="M89,18a7.29,7.29,0,0,1,.3,1.69c.2,3.43-2,7.73-5.55,8.5a6.28,6.28,0,0,1-4-.56c-8.26-3.89-3.44-9.86-3.44-9.86Z"/><path class="cls-37" d="M75.35,18.63a5.34,5.34,0,0,0-6.19.35l.92,2.41a11.06,11.06,0,0,1,1.52-.19,12.42,12.42,0,0,1,3.12.19Z"/><ellipse class="cls-20" cx="60.23" cy="31.28" rx="0.27" ry="0.98" transform="translate(-7.64 31.11) rotate(-27.3)"/><ellipse class="cls-7" cx="84.31" cy="31.68" rx="1.24" ry="0.22" transform="translate(26.61 100.83) rotate(-70.75)"/><path class="cls-19" d="M84.3,31.05c-5.46,2.07-18.58,2-24.06-.16l-.11.35C61.49,45.22,82.78,46.93,84.3,31.05Z"/><ellipse class="cls-38" cx="64.84" cy="22.53" rx="1.98" ry="3.27"/><ellipse class="cls-39" cx="80.19" cy="22.8" rx="1.98" ry="3.27"/><path class="cls-19" d="M61.12,34.59a27.26,27.26,0,0,0,11.47,2.29,27.11,27.11,0,0,0,10.7-2.45"/><ellipse class="cls-40" cx="396.18" cy="26.06" rx="17.6" ry="18.23"/><ellipse class="cls-2" cx="378.9" cy="18.7" rx="0.55" ry="0.54"/><ellipse class="cls-3" cx="413.03" cy="18.69" rx="0.54" ry="0.55" transform="translate(364.96 429.35) rotate(-85.91)"/><path class="cls-41" d="M379.35,18.42a7.09,7.09,0,0,0-.3,1.68c-.2,3.43,2,7.73,5.55,8.5a6.29,6.29,0,0,0,4-.55c8.26-3.9,3.44-9.86,3.44-9.86l-9.51.17Z"/><path class="cls-42" d="M412.65,18.42a8.29,8.29,0,0,1,.3,1.68c.19,3.43-2,7.73-5.56,8.5a6.29,6.29,0,0,1-4-.55c-8.25-3.9-3.44-9.86-3.44-9.86Z"/><path class="cls-43" d="M399,19.05a5.32,5.32,0,0,0-6.19.34l.91,2.41c.46-.08,1-.15,1.52-.19a13,13,0,0,1,3.13.19Z"/><path class="cls-44" d="M385.19,24.8a3.29,3.29,0,0,1,6.57,0v0a3.8,3.8,0,0,0,.31-1.48,3.67,3.67,0,1,0-7.34,0,3.73,3.73,0,0,0,.5,1.84A2.58,2.58,0,0,1,385.19,24.8Z"/><path class="cls-45" d="M400.63,24.64a3.29,3.29,0,0,1,6.57,0v0a3.8,3.8,0,0,0,.31-1.48A3.67,3.67,0,1,0,400.67,25,2.34,2.34,0,0,1,400.63,24.64Z"/><path class="cls-46" d="M405.44,32.27c-4.1,1.16-13.93,1.12-18-.09l-.09.2C388.34,40.24,404.3,41.2,405.44,32.27Z"/><ellipse class="cls-47" cx="342.17" cy="26.17" rx="17.6" ry="18.23"/><ellipse class="cls-2" cx="324.89" cy="18.81" rx="0.55" ry="0.54"/><ellipse class="cls-3" cx="359.03" cy="18.8" rx="0.54" ry="0.55" transform="translate(314.7 375.58) rotate(-85.91)"/><path class="cls-48" d="M325.34,18.52a7.64,7.64,0,0,0-.3,1.69c-.2,3.42,2,7.72,5.56,8.5a6.35,6.35,0,0,0,4-.56c8.25-3.9,3.44-9.86,3.44-9.86l-9.52.17Z"/><path class="cls-49" d="M358.64,18.52a7.09,7.09,0,0,1,.3,1.69c.2,3.42-2,7.72-5.55,8.5a6.35,6.35,0,0,1-4-.56c-8.26-3.9-3.44-9.86-3.44-9.86Z"/><path class="cls-50" d="M345,19.15a5.3,5.3,0,0,0-6.19.35l.92,2.4a13.29,13.29,0,0,1,4.64,0Z"/><ellipse class="cls-51" cx="334.39" cy="23.03" rx="1.98" ry="3.27"/><ellipse class="cls-52" cx="349.83" cy="22.93" rx="1.98" ry="3.27"/><path class="cls-53" d="M351.37,32.69c-4.09,1.17-13.92,1.13-18-.08l-.08.19C334.28,40.67,350.24,41.63,351.37,32.69Z"/><ellipse class="cls-54" cx="505.27" cy="26.1" rx="17.6" ry="18.23"/><ellipse class="cls-2" cx="488" cy="18.74" rx="0.55" ry="0.54"/><ellipse class="cls-3" cx="522.13" cy="18.73" rx="0.54" ry="0.55" transform="translate(466.25 538.21) rotate(-85.91)"/><path class="cls-55" d="M488.44,18.46a7.73,7.73,0,0,0-.29,1.68c-.2,3.43,2,7.73,5.55,8.5a6.29,6.29,0,0,0,4-.55c8.26-3.9,3.44-9.86,3.44-9.86l-9.51.17Z"/><path class="cls-56" d="M521.75,18.46a8.29,8.29,0,0,1,.3,1.68c.19,3.43-2,7.73-5.56,8.5a6.29,6.29,0,0,1-4-.55c-8.25-3.9-3.44-9.86-3.44-9.86Z"/><path class="cls-57" d="M508.14,19.09a5.38,5.38,0,0,0-3-.83,5.45,5.45,0,0,0-3.16,1.17l.92,2.41a12.86,12.86,0,0,1,1.52-.19,13,13,0,0,1,3.13.19Z"/><path class="cls-58" d="M494.29,24.84a3.29,3.29,0,0,1,6.57,0v0a3.8,3.8,0,0,0,.31-1.48,3.67,3.67,0,1,0-7.34,0,3.73,3.73,0,0,0,.5,1.84A2.58,2.58,0,0,1,494.29,24.84Z"/><path class="cls-59" d="M509.73,24.68a3.29,3.29,0,0,1,6.57,0v0a3.84,3.84,0,0,0,.31-1.48,3.67,3.67,0,1,0-6.84,1.83A2.45,2.45,0,0,1,509.73,24.68Z"/><path class="cls-60" d="M496.5,33.82a11.82,11.82,0,0,0,17.34-.13"/><ellipse class="cls-61" cx="497.65" cy="23.27" rx="1.98" ry="3.27"/><ellipse class="cls-62" cx="512.93" cy="22.97" rx="1.98" ry="3.27"/><ellipse class="cls-63" cx="234.27" cy="25.99" rx="17.6" ry="18.23"/><ellipse class="cls-2" cx="217.14" cy="18.32" rx="0.55" ry="0.54"/><ellipse class="cls-3" cx="251.28" cy="18.31" rx="0.54" ry="0.55" transform="matrix(0.07, -1, 1, 0.07, 215.11, 267.65)"/><path class="cls-64" d="M217.59,18a7.73,7.73,0,0,0-.29,1.68c-.2,3.43,2,7.73,5.55,8.5a6.29,6.29,0,0,0,4-.55c8.25-3.9,3.44-9.86,3.44-9.86L220.8,18Z"/><path class="cls-65" d="M250.9,18a7.73,7.73,0,0,1,.29,1.68c.2,3.43-2,7.73-5.55,8.5a6.29,6.29,0,0,1-4-.55c-8.26-3.9-3.44-9.86-3.44-9.86Z"/><path class="cls-66" d="M237.28,18.67a5.33,5.33,0,0,0-3-.83A5.41,5.41,0,0,0,231.09,19l.92,2.41a12.6,12.6,0,0,1,4.64,0Z"/><ellipse class="cls-67" cx="226.77" cy="22.56" rx="1.98" ry="3.27"/><path class="cls-68" d="M243.53,32.34c-4.09,1.17-13.93,1.13-18-.08l-.08.19C226.43,40.32,242.39,41.28,243.53,32.34Z"/><ellipse class="cls-69" cx="243.07" cy="22.59" rx="1.98" ry="3.27"/><ellipse class="cls-70" cx="558.39" cy="26.06" rx="17.6" ry="18.23"/><ellipse class="cls-2" cx="541.11" cy="18.7" rx="0.55" ry="0.54"/><ellipse class="cls-3" cx="575.24" cy="18.69" rx="0.54" ry="0.55" transform="translate(515.61 591.14) rotate(-85.91)"/><path class="cls-71" d="M541.56,18.42a7.09,7.09,0,0,0-.3,1.68c-.2,3.43,2,7.73,5.55,8.5a6.29,6.29,0,0,0,4-.55c8.26-3.9,3.44-9.86,3.44-9.86l-9.51.17Z"/><path class="cls-72" d="M574.86,18.42a8.29,8.29,0,0,1,.3,1.68c.19,3.43-2,7.73-5.56,8.5a6.29,6.29,0,0,1-4-.55c-8.25-3.9-3.44-9.86-3.44-9.86Z"/><path class="cls-73" d="M561.25,19.05a5.32,5.32,0,0,0-6.19.34L556,21.8c.46-.08,1-.15,1.52-.19a13,13,0,0,1,3.13.19Z"/><path class="cls-74" d="M547.4,24.8a3.29,3.29,0,0,1,6.57,0v0a3.8,3.8,0,0,0,.31-1.48,3.67,3.67,0,1,0-7.34,0,3.73,3.73,0,0,0,.5,1.84A2.58,2.58,0,0,1,547.4,24.8Z"/><path class="cls-75" d="M562.84,24.64a3.29,3.29,0,0,1,6.57,0v0a3.8,3.8,0,0,0,.31-1.48A3.67,3.67,0,1,0,562.88,25,2.34,2.34,0,0,1,562.84,24.64Z"/><path class="cls-60" d="M549.62,33.78A11.79,11.79,0,0,0,567,33.65"/><ellipse class="cls-76" cx="612.41" cy="26.06" rx="17.6" ry="18.23"/><ellipse class="cls-2" cx="595.13" cy="18.7" rx="0.55" ry="0.54"/><ellipse class="cls-3" cx="629.27" cy="18.69" rx="0.54" ry="0.55" transform="translate(565.79 645.03) rotate(-85.91)"/><path class="cls-77" d="M595.58,18.42a7.09,7.09,0,0,0-.3,1.68c-.2,3.43,2,7.73,5.55,8.5a6.32,6.32,0,0,0,4-.55c8.25-3.9,3.44-9.86,3.44-9.86l-9.52.17Z"/><path class="cls-78" d="M628.88,18.42a7.09,7.09,0,0,1,.3,1.68c.2,3.43-2,7.73-5.55,8.5a6.27,6.27,0,0,1-4-.55c-8.26-3.9-3.44-9.86-3.44-9.86Z"/><path class="cls-79" d="M615.27,19.05a5.35,5.35,0,0,0-3-.83,5.41,5.41,0,0,0-3.15,1.17L610,21.8a15.14,15.14,0,0,1,1.51-.19,13,13,0,0,1,3.13.19Z"/><path class="cls-80" d="M601.42,24.8a3.3,3.3,0,0,1,6.58,0v0a3.63,3.63,0,0,0,.31-1.48,3.67,3.67,0,1,0-7.34,0,3.74,3.74,0,0,0,.51,1.84A2.6,2.6,0,0,1,601.42,24.8Z"/><path class="cls-81" d="M616.86,24.64a3.3,3.3,0,0,1,6.58,0s0,0,0,0a3.63,3.63,0,0,0,.31-1.48A3.67,3.67,0,1,0,616.9,25C616.89,24.91,616.86,24.78,616.86,24.64Z"/><path class="cls-60" d="M603.64,33.78A11.79,11.79,0,0,0,621,33.65"/><ellipse class="cls-82" cx="604.78" cy="23.24" rx="1.98" ry="3.27"/><ellipse class="cls-83" cx="620.07" cy="22.93" rx="1.98" ry="3.27"/><ellipse class="cls-84" cx="450.21" cy="26.06" rx="17.6" ry="18.23"/><ellipse class="cls-2" cx="432.93" cy="18.7" rx="0.55" ry="0.54"/><ellipse class="cls-3" cx="467.07" cy="18.69" rx="0.54" ry="0.55" transform="translate(415.14 483.24) rotate(-85.91)"/><path class="cls-85" d="M433.38,18.42a7.09,7.09,0,0,0-.3,1.68c-.2,3.43,2,7.73,5.55,8.5a6.27,6.27,0,0,0,4-.55c8.26-3.9,3.44-9.86,3.44-9.86l-9.51.17Z"/><path class="cls-86" d="M466.68,18.42a7.09,7.09,0,0,1,.3,1.68c.2,3.43-2,7.73-5.55,8.5a6.31,6.31,0,0,1-4-.55c-8.25-3.9-3.44-9.86-3.44-9.86Z"/><path class="cls-87" d="M453.07,19.05a5.32,5.32,0,0,0-6.19.34l.91,2.41c.46-.08,1-.15,1.52-.19a13,13,0,0,1,3.13.19Z"/><path class="cls-88" d="M439.22,24.8a3.29,3.29,0,0,1,6.57,0v0a3.63,3.63,0,0,0,.31-1.48,3.67,3.67,0,1,0-7.34,0,3.73,3.73,0,0,0,.5,1.84A2.58,2.58,0,0,1,439.22,24.8Z"/><path class="cls-89" d="M454.66,24.64a3.29,3.29,0,0,1,6.57,0v0a3.63,3.63,0,0,0,.31-1.48A3.67,3.67,0,1,0,454.7,25,2.34,2.34,0,0,1,454.66,24.64Z"/><ellipse class="cls-90" cx="442.74" cy="23.13" rx="1.98" ry="3.27"/><ellipse class="cls-91" cx="458.08" cy="22.93" rx="1.98" ry="3.27"/><path class="cls-92" d="M459.41,32.59c-4.1,1.17-13.93,1.13-18-.08l-.09.19C442.31,40.56,458.27,41.53,459.41,32.59Z"/><rect class="cls-93" width="648.23" height="53.43"/><path class="cls-94" d="M277.29,24.8a3.3,3.3,0,0,1,6.58,0v0a3.63,3.63,0,0,0,.31-1.48,3.67,3.67,0,1,0-6.84,1.84C277.32,25.06,277.29,24.93,277.29,24.8Z"/><path class="cls-95" d="M292.73,24.64a3.3,3.3,0,0,1,6.58,0s0,0,0,0a3.63,3.63,0,0,0,.31-1.48A3.67,3.67,0,1,0,292.77,25C292.76,24.91,292.73,24.78,292.73,24.64Z"/><path class="cls-96" d="M331.18,24.9a3.3,3.3,0,0,1,6.58,0s0,0,0,0a3.67,3.67,0,1,0-7-1.48,3.66,3.66,0,0,0,.5,1.83A2.6,2.6,0,0,1,331.18,24.9Z"/><path class="cls-97" d="M346.62,24.75a3.3,3.3,0,0,1,6.58,0s0,0,0,0a3.63,3.63,0,0,0,.31-1.48,3.67,3.67,0,1,0-6.83,1.84A2.6,2.6,0,0,1,346.62,24.75Z"/></g></g></svg>