<svg xmlns="http://www.w3.org/2000/svg" viewBox="0 0 278.58 337.08"><defs><style>.cls-1{fill:#982483;}.cls-2{fill:#1d1d1b;}.cls-3{fill:#005d34;}.cls-4,.cls-5,.cls-6{fill:#fff;stroke:#1d1d1b;stroke-miterlimit:10;}.cls-4{stroke-width:3px;}.cls-6{stroke-width:2px;}</style></defs><g id="Calque_2" data-name="Calque 2"><g id="decorum"><path class="cls-1" d="M44.25,124.26c-6.76,1.17-10.66,8.16-13.33,14.48-5.26,12.5-9.56,25.63-10.09,39.17s3,27.65,12,37.87c6.61,7.57,16.23,13.39,18.76,23.11"/><path class="cls-2" d="M43.58,121.85c-8.5,1.6-12.62,10.33-15.6,17.51-3.86,9.31-7.14,18.95-8.68,28.95-2.79,18.06.39,37.54,13.45,51.12,5.89,6.13,14,11.49,16.38,20.12.84,3.11,5.67,1.79,4.82-1.32-2.11-7.79-8.17-13.26-13.83-18.59a57.89,57.89,0,0,1-7.9-8.59,45.84,45.84,0,0,1-5.73-11.13c-6.21-17.61-2.4-36.45,4-53.42a75.43,75.43,0,0,1,5.79-12.9c2-3.3,4.7-6.19,8.63-6.93a2.53,2.53,0,0,0,1.75-3.07,2.56,2.56,0,0,0-3.08-1.75Z"/><path class="cls-1" d="M94.64,28.67c-4.27-1.6-13.11-4.19-20.62-.13-8,4.33-10.4,14-11.6,19.18-14,60.36-20.94,90.55-19.61,121.68a398.32,398.32,0,0,0,9.78,72.14c-7.15,17.83-10.92,38.3-5.85,57.19a57.57,57.57,0,0,0,5.4,13.36c2.55,4.53,5.77,7.74,9.15,11.5,7.55,8.41,19,11.06,29.95,11,20.84-.12,41.26-6.79,58.84-17.82A129.58,129.58,0,0,0,174.38,297c7.13-7.39,13.79-15.38,17-25.29,3.13-9.54,2.69-20.53-3.13-29-4.86-7.09-14.74-5-21.46-2.1a37.2,37.2,0,0,0-5.26,2.78L159,244.7a5.1,5.1,0,1,0-1.21,9.81c2.23-.28,4-2,5.86-3.2s4.5-2.05,6.26-.64c1.52,1.22,1.59,3.52,1.15,5.42-1.76,7.53-8.92,12.34-15.51,16.38l-23.32,14.31c-6.06,3.72-12.58,7.56-19.68,7.32a6.08,6.08,0,0,1-3.38-.9,7.46,7.46,0,0,1-1.69-1.93c-3-4.32-6-8.87-6.58-14.06-1.1-9.6,6.22-17.88,13-24.74l3.54-3c13.87-16,19.29-37.44,24.29-58,2-8.12,3.89-17,.47-24.6-3.27-7.3-10.64-11.72-16.19-17.49a42.84,42.84,0,0,1-11-37.56l2.92-4.46"/><path class="cls-2" d="M95.3,26.26c-7.72-2.86-17.09-3.83-24.2,1.14C65,31.68,62,38.7,60.32,45.72Q53.68,73.1,48,100.72A403.63,403.63,0,0,0,41.2,142a218.21,218.21,0,0,0-.38,36.69A402.68,402.68,0,0,0,48.39,234q.86,4.09,1.79,8.18v-1.33c-8.24,20.69-12.07,45-3.25,66.15a50.33,50.33,0,0,0,8.72,14.05c3.4,3.88,6.81,7.67,11.31,10.32,8.75,5.14,19.18,6.09,29.12,5.55,22.17-1.19,43.67-9.43,61.66-22.31a132.53,132.53,0,0,0,24.62-22.69c6.81-8.14,12.14-17.47,13.28-28.19a35.18,35.18,0,0,0-1.59-15c-1.53-4.42-4-9.28-8.28-11.55-8.26-4.35-18.1,0-25.47,4.08-.83.46-1.71.87-2.56,1.3l1.92-.25c-4.72-1.6-10.37,2.26-10.1,7.37a8,8,0,0,0,4.17,6.46,7.84,7.84,0,0,0,7.77-.32c1.63-.91,4.3-3.93,6.42-3.37,1.79.47.55,3.88.14,4.93-1.75,4.48-5.81,7.73-9.68,10.34-5.2,3.51-10.67,6.65-16,9.93s-10.87,6.91-16.5,10a35,35,0,0,1-8,3.35c-2,.53-6.06,1.55-7.69-.24a35,35,0,0,1-4.59-7.21,18,18,0,0,1-2.29-7.75c-.15-5.19,2.46-9.93,5.53-13.94a59.53,59.53,0,0,1,8.86-9.3c3.39-2.86,6-6.72,8.33-10.44a97.39,97.39,0,0,0,7.56-14.81c4.34-10.39,7.19-21.31,9.86-32.23s5.91-23.48-1.41-33.46c-3.13-4.27-7.26-7.53-11.16-11a43,43,0,0,1-9.71-12.36,40.23,40.23,0,0,1-4.22-14.74,41.38,41.38,0,0,1,.06-7.87c.06-.57.14-1.14.23-1.71,0-.2.15-1.13.06-.88a7.79,7.79,0,0,1,.93-1.43l1.94-3c1.76-2.7-2.56-5.21-4.32-2.52-.91,1.39-1.91,2.75-2.74,4.19a10.08,10.08,0,0,0-.92,3.88,43.83,43.83,0,0,0-.39,5.24,46,46,0,0,0,4.95,21.11c3.32,6.63,8.32,11.6,13.82,16.42s10.46,9.87,11,17.55-2,15.69-3.88,23.2-3.87,14.76-6.43,21.94a99.42,99.42,0,0,1-9.65,20.17,42.43,42.43,0,0,1-6,8c-1.32,1.26-2.84,2.29-4.11,3.59-5.1,5.2-10.32,11-12.37,18.2A20.42,20.42,0,0,0,99,280.42a36.88,36.88,0,0,0,5.46,10.8c1.08,1.62,2.14,3.44,3.9,4.4a10.89,10.89,0,0,0,5.8,1,30.62,30.62,0,0,0,11.85-3.4c3.68-1.79,7.13-4,10.61-6.16l11.92-7.31c6.5-4,13.76-7.67,19.18-13.15a22,22,0,0,0,5.4-8.51c1.09-3.31,1.13-7.82-2.29-9.8s-7.15,0-10,2c-1.1.79-2.53,2-4,1.72a2.88,2.88,0,0,1-2.25-2.75,2.65,2.65,0,0,1,1.64-2.09c1.42-.63,2.65.35,4.09-.32,2.34-1.09,4.48-2.53,6.81-3.62,4.59-2.14,11.1-4.21,16-1.83,2.84,1.39,4.45,4.45,5.63,7.26a29,29,0,0,1,2.13,10.65c.26,15.65-10.35,28.34-21,38.69a122.72,122.72,0,0,1-40.57,26.53,112.17,112.17,0,0,1-23.23,6.38,79.57,79.57,0,0,1-22.64.74c-6.81-.91-13.65-3.34-18.71-8.1A53.42,53.42,0,0,1,51.23,304.4c-6-15.4-5.15-32.53-.9-48.26A119.69,119.69,0,0,1,54,244.72a10.28,10.28,0,0,0,1.06-3.18,15.1,15.1,0,0,0-.62-3c-.52-2.32-1-4.64-1.49-7q-2.49-12.15-4.23-24.43a373.44,373.44,0,0,1-3.49-38.94c-.73-20.52,2.46-40.85,6.47-60.91,2.81-14.1,6-28.12,9.24-42.13,1.61-7,2.92-14.24,5-21.15,1.64-5.46,4.47-10.89,9.78-13.53C81.46,27.62,88.28,29,94,31.08c3,1.12,4.33-3.71,1.33-4.82Z"/><path class="cls-1" d="M94.64,28.67c-2.86-.84-6.54-2.44-7.8-5.69-1.07-2.79.51-4.54-.36-6.94-2-5.64-14-4.78-14.09-6.23-.14-2.19,26.29-14,50.47-2.05C137.8,15.11,144.78,28,147.14,32.94l-1.26-6.24c11-5.08,23.85-3.35,35.53-.19,8.86,2.4,17.87,5.77,24.18,12.44,7.86,8.29,10.26,20.2,12.34,31.42l.23,4.19c13.31,4.94,28.07.1,41.31-5l.52-1.89A4.62,4.62,0,0,1,259,66c5.3-1.86,11.77-2.07,14.55,3.7,2.86,6,2.55,13,2.29,19.37-.31,7.57.81,27.17-9.35,29.45-3.06.68-7.38-.43-9.5-2.83s-2.4-7-2.57-10.38c0-.26,0-.51,0-.76"/><path class="cls-2" d="M95.3,26.26a11.65,11.65,0,0,1-5.23-2.78c-1.66-1.76-.84-3.6-.82-5.74,0-4.41-3.63-7-7.44-8.18a33.9,33.9,0,0,0-4.8-1l-1.83-.3c-.28-.05-1.29-.45-1.53-.35.11,0,.4.14.61.37a2.35,2.35,0,0,1,.37,2.57c.11-.19-.52.63-.13.18s.27-.2,0,0a22.73,22.73,0,0,1,2.59-1.47c.3-.15.61-.29.92-.42.63-.28-.3.12.1-.05l.53-.21c.77-.3,1.56-.58,2.34-.85A57.55,57.55,0,0,1,86.6,6.42a59,59,0,0,1,14-1.4A48.71,48.71,0,0,1,130.5,15.58,53.49,53.49,0,0,1,145,34.21a2.49,2.49,0,0,0,3.12,1,2.53,2.53,0,0,0,1.45-2.95L148.29,26l-1.15,2.83c6.43-2.92,13.65-3.28,20.57-2.54a89.84,89.84,0,0,1,20.44,4.89c6.17,2.21,12.11,5.4,16.48,10.39s6.63,11.07,8.27,17.23c1,3.64,1.71,7.33,2.4,11,0,0,.22,1.32.13.53,0,.13,0,.26,0,.39,0,.48.05,1,.08,1.45l.13,2.33A2.62,2.62,0,0,0,217.5,77c8.61,3.13,17.95,2.44,26.7.26a116.84,116.84,0,0,0,12.95-4.15c1-.38,2-.74,3-1.14A3,3,0,0,0,262,69.7c.12-.44.27-.9.37-1.35a2.7,2.7,0,0,0-.24-2,7.28,7.28,0,0,1-.7-1.07l-1.75,3.07c2.48-.85,5.22-1.45,7.63-.86,2.66.65,4,2.69,4.88,5.4,2,6.16,1.2,12.74,1.1,19.1,0,2.29-.07,4.58-.2,6.87a50.57,50.57,0,0,1-.8,7.16,31,31,0,0,1-.84,3.42c-.17.54-.35,1.07-.56,1.59s.13-.29,0,.1l-.15.34c-.13.25-.25.51-.39.76-.24.45-.51.89-.79,1.31l-.2.28c-.24.32.22-.26,0,0s-.34.4-.52.58a7.15,7.15,0,0,1-.57.53c-.21.19.05,0,.08,0l-.27.19c-.18.12-.36.24-.55.35s-.76.38-.6.31-.42.13-.56.17-.59.16-.73.18a7.85,7.85,0,0,1-2.27,0,7.68,7.68,0,0,1-4.17-1.86c-2.35-2.28-2.05-6.72-2.22-9.72-.18-3.2-5.18-3.22-5,0,.21,3.82.21,8.06,2.26,11.44s6.19,5.09,10,5.22c6.29.22,10.21-4.63,12-10.13s2-11.28,2.07-16.91c.13-7,.94-14.26-.83-21.12-1.14-4.4-3.32-8.41-7.79-10-3.61-1.3-7.76-.65-11.29.56-1.17.4-2.27,1.76-1.74,3.08a9,9,0,0,0,1.59,2.77L257.58,67l-.52,1.88,1.75-1.74c-12.52,4.84-26.7,9.85-40,5l1.83,2.41c-.08-1.5-.09-3-.28-4.52a98.19,98.19,0,0,0-2.16-10.58c-1.67-6.85-4.1-13.71-8.41-19.37-4.55-6-10.8-9.88-17.67-12.68a91.16,91.16,0,0,0-21.59-5.73c-8.82-1.24-17.73-.87-25.93,2.86a2.53,2.53,0,0,0-1.15,2.82l1.26,6.25,4.57-1.93a58,58,0,0,0-13.74-18.35A53.89,53.89,0,0,0,102.94.11a60.62,60.62,0,0,0-27.58,4.7C73.5,5.63,70.6,6.83,70,9c-1,3.82,4.24,4.06,6.61,4.47,1,.17,2,.36,2.91.62a15,15,0,0,1,1.45.43,4.31,4.31,0,0,1,1,.4,10.36,10.36,0,0,1,1.21.71c-.34-.24,0,0,0,0a6,6,0,0,1,.62.62c-.37-.44.45.95.25.4a3.58,3.58,0,0,1,.14,1.69,13.28,13.28,0,0,0,0,4.45A9.37,9.37,0,0,0,86.53,27,16.75,16.75,0,0,0,94,31.08c3.09.93,4.41-3.89,1.33-4.82Z"/><path class="cls-1" d="M108.78,84.05c-2.44,10.28,4.36,21,13.48,26.32s20,6.41,30.59,7c21.52,1.24,44.77.4,63.11-10l2.88-1.75a65.78,65.78,0,0,1,35.58-1.11"/><path class="cls-2" d="M106.37,83.39c-2.49,11,3.78,21.65,12.58,27.82,10,7,22.94,8.08,34.74,8.72,22.2,1.22,46,.27,65.48-11.58.29-.17.57-.37.86-.52s-.77.19,0,0a6.38,6.38,0,0,0,.88-.26c1.23-.35,2.47-.67,3.72-.95a62,62,0,0,1,8.89-1.36,64.39,64.39,0,0,1,20.19,1.64c3.13.77,4.46-4.05,1.33-4.82a69.26,69.26,0,0,0-33.91.25,17.21,17.21,0,0,0-4.82,1.86c-1.62,1-3.24,1.9-4.94,2.74A73.79,73.79,0,0,1,196,112.37c-11.17,2.66-22.75,3.17-34.19,2.89-5.81-.14-11.65-.42-17.43-1a59.15,59.15,0,0,1-16.6-3.89c-9.74-4.1-19.15-14.26-16.57-25.62.71-3.14-4.11-4.47-4.82-1.33Z"/><polygon class="cls-1" points="112.86 90.29 92.22 20.58 249.06 98.41 140.83 107.26 112.86 90.29"/><path class="cls-3" d="M227.73,98.62v0l-.09.66,0-.1-.25.6a.41.41,0,0,1,.07-.11l-.39.5.1-.09-.51.39.22-.13-.6.25a2.33,2.33,0,0,1,.44-.1l-.66.08c.28,0,.56,0,.84,0l.39,0a6.23,6.23,0,0,0,1.05-.18,1.83,1.83,0,0,0,.85-.44,2.31,2.31,0,0,0,.94-1.64,1.86,1.86,0,0,0,0-1l-.25-.6a2.5,2.5,0,0,0-.9-.9l-.59-.25a2.5,2.5,0,0,0-1.33,0,2.09,2.09,0,0,1-.34.08l.66-.09a5.39,5.39,0,0,1-.7,0,8.58,8.58,0,0,0-1.34.14,1.68,1.68,0,0,0-.32.09,5.93,5.93,0,0,0-.69.29l-.13.08c-.16.12-.38.28-.53.41l-.05,0a2.92,2.92,0,0,0-.23.29c-.06.08-.16.19-.23.29l0,.06a4.91,4.91,0,0,0-.26.63.14.14,0,0,0,0,.06,5.93,5.93,0,0,0-.1.72,2,2,0,0,0,.21,1,2.26,2.26,0,0,0,1.33,1.33,2,2,0,0,0,1,.21l.66-.09a2.48,2.48,0,0,0,1.11-.64l.39-.51a2.53,2.53,0,0,0,.34-1.26Z"/><path class="cls-3" d="M223.44,100.2a2.72,2.72,0,0,0,1.29.75,7,7,0,0,0,.92.12,5.83,5.83,0,0,0,.72.06,5,5,0,0,0,1.34-.16c.21-.06.42-.16.64-.2l-.67.09h.14a1.88,1.88,0,0,0,1-.21,1.85,1.85,0,0,0,.8-.52,1.82,1.82,0,0,0,.52-.8,1.9,1.9,0,0,0,.22-1l-.09-.66a2.55,2.55,0,0,0-.65-1.11,2.63,2.63,0,0,0-1.76-.73,3.49,3.49,0,0,0-1.16.2,2.82,2.82,0,0,1-.57.15l.67-.09a5.32,5.32,0,0,1-1.26,0l.67.09a.61.61,0,0,1-.18-.05l.6.26-.07,0,.51.39a.12.12,0,0,1-.05,0,2.4,2.4,0,0,0-2.73-.51,1.93,1.93,0,0,0-.81.51,2.57,2.57,0,0,0-.73,1.77l.09.67a2.5,2.5,0,0,0,.64,1.1Z"/><path class="cls-3" d="M227,101.05a8.55,8.55,0,0,0,1.75-.22,8.91,8.91,0,0,0,1.63-.61,1.87,1.87,0,0,0,.7-.64,1.83,1.83,0,0,0,.44-.85,1.89,1.89,0,0,0,0-1,2,2,0,0,0-.3-.93l-.39-.5a2.52,2.52,0,0,0-1.1-.65l-.67-.09a2.54,2.54,0,0,0-1.26.35l-.17.07.59-.25a5.27,5.27,0,0,1-1.36.37l.67-.09a3.69,3.69,0,0,1-.58,0,1.88,1.88,0,0,0-1,.22,2.3,2.3,0,0,0-1.32,1.32,1.88,1.88,0,0,0-.22,1l.09.67a2.52,2.52,0,0,0,.65,1.1l.5.39a2.43,2.43,0,0,0,1.26.34Z"/><path class="cls-3" d="M228.48,100.64l.92-.15-.66.09c.49-.06,1-.11,1.48-.14a1.9,1.9,0,0,0,1-.22,1.82,1.82,0,0,0,.8-.52,1.85,1.85,0,0,0,.52-.8,1.88,1.88,0,0,0,.21-1l-.09-.67a2.5,2.5,0,0,0-.64-1.1l-.51-.39a2.43,2.43,0,0,0-1.26-.34,24.36,24.36,0,0,0-3.06.38,1.71,1.71,0,0,0-.85.45,1.83,1.83,0,0,0-.65.7,1.9,1.9,0,0,0-.3.93,1.86,1.86,0,0,0,0,1l.25.6a2.5,2.5,0,0,0,.9.9l.6.25a2.46,2.46,0,0,0,1.32,0Z"/><path class="cls-3" d="M227.55,101.08a16.38,16.38,0,0,0,3-.5,1.89,1.89,0,0,0,.85-.45,1.83,1.83,0,0,0,.65-.7,1.85,1.85,0,0,0,.29-.93,1.89,1.89,0,0,0,0-1l-.25-.59a2.5,2.5,0,0,0-.9-.9l-.6-.25a2.5,2.5,0,0,0-1.33,0,13.23,13.23,0,0,1-1.64.33l.66-.09-.72.08a1.8,1.8,0,0,0-1,.21,1.82,1.82,0,0,0-.8.52,1.85,1.85,0,0,0-.52.8,1.89,1.89,0,0,0-.21,1l.09.66a2.41,2.41,0,0,0,.64,1.1l.51.39a2.51,2.51,0,0,0,1.26.35Z"/><path class="cls-3" d="M228.56,100.53a6,6,0,0,0,1,.11,7.11,7.11,0,0,0,1-.13,6.28,6.28,0,0,0,.85-.23,13,13,0,0,1,1.72-.4,1.89,1.89,0,0,0,.85-.45,1.83,1.83,0,0,0,.65-.7,2.88,2.88,0,0,0,.25-1.92,2.55,2.55,0,0,0-1.15-1.5l-.6-.25a2.5,2.5,0,0,0-1.33,0,12.83,12.83,0,0,0-1.37.29,9.89,9.89,0,0,1-1.32.36l.67-.09a2.44,2.44,0,0,1-.54,0l.66.09h-.06a1.86,1.86,0,0,0-1,0,2.26,2.26,0,0,0-1.63.94,1.94,1.94,0,0,0-.45.85,2.5,2.5,0,0,0,.25,1.93l.39.51a2.5,2.5,0,0,0,1.1.64Z"/><path class="cls-3" d="M229.81,100.78c1.19-.22,2.37-.42,3.57-.6a1.88,1.88,0,0,0,.85-.44,2.26,2.26,0,0,0,.94-1.63,1.89,1.89,0,0,0,0-1A2.46,2.46,0,0,0,234,95.62l-.59-.26a2.5,2.5,0,0,0-1.33,0c-1.2.18-2.38.38-3.57.6a2,2,0,0,0-.85.45,2.26,2.26,0,0,0-.94,1.63,1.89,1.89,0,0,0,.05,1,2.49,2.49,0,0,0,1.15,1.49l.59.25a2.5,2.5,0,0,0,1.33,0Z"/><path class="cls-3" d="M230.45,100.42a18.18,18.18,0,0,0,5.17-.76,2.6,2.6,0,0,0,1.49-1.15,2.56,2.56,0,0,0,.26-1.93,2.5,2.5,0,0,0-1.15-1.49,2.65,2.65,0,0,0-1.93-.26,24.31,24.31,0,0,1-2.79.6l.66-.09a9.8,9.8,0,0,1-1.71.08,2.53,2.53,0,0,0-1.77.73,2.57,2.57,0,0,0-.73,1.77,2.53,2.53,0,0,0,.73,1.77,2.69,2.69,0,0,0,1.77.73Z"/><path class="cls-3" d="M232.23,95l-.18.06-.68.29-.09,0a2.63,2.63,0,0,0-.33.2,1.9,1.9,0,0,0-.7.65,1.8,1.8,0,0,0-.45.85,1.86,1.86,0,0,0-.05,1,1.9,1.9,0,0,0,.3.93l.39.51a2.5,2.5,0,0,0,1.1.64l.67.09a2.43,2.43,0,0,0,1.26-.34,1.92,1.92,0,0,1,.44-.25l-.6.25.25-.09a1.78,1.78,0,0,0,.85-.44,1.85,1.85,0,0,0,.65-.71,1.79,1.79,0,0,0,.29-.93,1.85,1.85,0,0,0,0-1l-.25-.6a2.59,2.59,0,0,0-.9-.9l-.6-.25a2.5,2.5,0,0,0-1.33,0Z"/><path class="cls-3" d="M231.14,100.65c2.11.08,4.13-.63,6.19-.92l-.66.09a8.15,8.15,0,0,1,2.15,0,2.51,2.51,0,0,0,1.77-.73,2.57,2.57,0,0,0,.73-1.77,2.53,2.53,0,0,0-.73-1.77,2.93,2.93,0,0,0-1.77-.73c-2.27-.29-4.5.55-6.72.87l.66-.09a9.78,9.78,0,0,1-1.62.09,2.52,2.52,0,0,0-2.5,2.5,2.55,2.55,0,0,0,2.5,2.5Z"/><path class="cls-3" d="M232.83,98.3a3.07,3.07,0,0,0,2.17,2.12,4,4,0,0,0,2.32-.21,14.37,14.37,0,0,1,2.67-.62l-.66.09a15.32,15.32,0,0,1,2.62-.1,2.51,2.51,0,0,0,2.5-2.5,2.55,2.55,0,0,0-2.5-2.5,18,18,0,0,0-3.66.24,14.57,14.57,0,0,0-1.46.31c-.51.14-1,.36-1.52.47l.66-.09a.81.81,0,0,1-.22,0l.66.09a.51.51,0,0,1-.17,0l.6.25a.53.53,0,0,1-.15-.08l.5.39-.12-.12.39.51,0-.08.26.6,0-.08a2.65,2.65,0,0,0-1.15-1.5,2.57,2.57,0,0,0-1.92-.25,2.54,2.54,0,0,0-1.75,3.08Z"/><path class="cls-3" d="M236.64,100.53c1.38-.06,2.75-.15,4.12-.28l2-.22a8,8,0,0,1,1.76-.14l-.66-.09c.27,0,.39.17-.16-.14.35.2-.44-.44-.17-.1a2.47,2.47,0,0,0,1.76.73,2.49,2.49,0,0,0,2.5-2.5,2.94,2.94,0,0,0-.73-1.77,3.62,3.62,0,0,0-3-1.14c-.79.05-1.58.19-2.37.27-1.67.18-3.35.3-5,.38a2.5,2.5,0,0,0,0,5Z"/><path class="cls-2" d="M147.53,51.58a22.31,22.31,0,0,1,20.81-5.47c6.73,1.65,12.17,5.59,17.29,10.11a75.13,75.13,0,0,1,8.86,9.33c1,1.26,2.77-.52,1.77-1.77a76.6,76.6,0,0,0-8.33-8.85,54.64,54.64,0,0,0-10.26-7.79c-6.43-3.45-13.81-5.35-21-3.47a25.65,25.65,0,0,0-10.88,6.14c-1.19,1.1.59,2.86,1.77,1.77Z"/><path class="cls-4" d="M258.47,65.72c-6.47,4-9.32,9.92-10.55,12C241,89,220.64,85,208.71,90.29c-10.22,4.54-21.32,19.14-22.47,65.58,6.41-30.23,17.88-40.81,27-44.94,14.79-6.66,29,1,46.32-9.86,1.07-.68,11-7.11,15.38-18.12a14,14,0,0,0,1.13-6.42c-.48-6.25-5.72-12.87-11.49-13C263.88,63.51,261.91,63.58,258.47,65.72Z"/><path class="cls-4" d="M73.73,7c-6.46,4-9.31,9.92-10.55,12C56.29,30.29,35.91,26.26,24,31.56,13.76,36.1,2.66,50.7,1.5,97.14,7.92,66.92,19.39,56.33,28.56,52.2c14.79-6.66,29,1,46.32-9.86,1.07-.67,11-7.1,15.38-18.12a14,14,0,0,0,1.12-6.41c-.48-6.25-5.72-12.88-11.49-13C79.14,4.79,77.17,4.85,73.73,7Z"/><path class="cls-5" d="M82.25,148.76s6.88-6.65,9.17-14.44c0,0,.92,11,9.17,14.44,0,0-8.1,3.13-9.17,8.49C91.42,157.25,90.2,149,82.25,148.76Z"/><path class="cls-6" d="M79,250.39s6.88-6.65,9.18-14.45c0,0,.91,11,9.17,14.45,0,0-8.1,3.13-9.17,8.48C88.22,258.87,87,250.62,79,250.39Z"/><path class="cls-6" d="M84,41.74s6.88-6.65,9.17-14.45c0,0,.92,11,9.17,14.45,0,0-8.1,3.13-9.17,8.48C93.14,50.22,91.92,42,84,41.74Z"/><path class="cls-4" d="M141.76,254.25s6.88-6.65,9.17-14.44c0,0,.92,11,9.18,14.44,0,0-8.11,3.14-9.18,8.49C150.93,262.74,149.71,254.48,141.76,254.25Z"/></g></g></svg>