<svg xmlns="http://www.w3.org/2000/svg" xmlns:xlink="http://www.w3.org/1999/xlink" viewBox="0 0 183.67 257.44"><defs><style>.cls-1{fill:url(#Dégradé_sans_nom_22);}</style><linearGradient id="Dégradé_sans_nom_22" x1="2.47" y1="128.71" x2="181.2" y2="128.71" gradientUnits="userSpaceOnUse"><stop offset="0" stop-color="#662482"/><stop offset="0.29" stop-color="#250d30"/><stop offset="0.48"/><stop offset="1" stop-color="#941b80"/></linearGradient></defs><g id="Calque_2" data-name="Calque 2"><g id="pierre"><path class="cls-1" d="M5.14,224.26c-.54-2.41,0-1.94-1.18-16.32-.66-7.72-1.63-11.68-1.47-15.05Q3.7,166.94,4.93,141c.18-3.74.43-7.7,2.56-10.78,2.88-4.16,8.35-5.55,12.3-8.72,12.27-9.8,5.42-30.6,13.66-44,2.65-4.32,7-8.77,5.43-13.57-.68-2-2.32-3.51-3.9-4.93L17.4,43.23,15.45,29.17c1.41-5.74-6.91-10.89-4.82-16.42,1.28-3.39,5.6-4.24,9.21-4.58L70.66,3.33c8.94-.85,18.13-1.68,26.76.8,8.11,2.34,15.1,7.43,21.9,12.42q26.06,19.14,52.12,38.27c3.86,2.84,7.95,6,9.28,10.6,1.2,4.16-.13,8.57-1.29,12.74a159.26,159.26,0,0,0-5.78,41.13c-.07,9.14.63,18.38-1.21,27.33-2.49,12.14-9.47,22.92-12.62,34.9-3.41,13-3.74,29.4-15.67,35.56-4.1,2.12-9.52,3-11.47,7.16-1.29,2.78-.51,6.2-1.85,9-2.09,4.34-8.09,4.89-12.81,3.89s-9.67-2.89-14.2-1.23c-2.79,1-4.94,3.26-7.28,5.11a30.81,30.81,0,0,1-18.75,6.58c-2.89,0-6-.32-8.45,1.23s-2.82,3.06-4.54,4.44c-3.61,2.87-9.35,1.6-14,.2C32.06,247.76,8.76,240.72,5.14,224.26Z"/><path d="M7.55,223.6c0-.17-.07-.33-.11-.5-.11-.56,0-.21,0,.11a7.93,7.93,0,0,0-.08-1c-.07-1.23-.09-2.46-.16-3.68q-.5-9.84-1.77-19.62c-.91-7.05-.07-14.2.26-21.27L7,150.45c.2-4.27.25-8.58.67-12.83.32-3.28,1.41-6.23,4.1-8.27s5.86-3.22,8.57-5.17a21.07,21.07,0,0,0,6.08-6.73c6-10.71,3.13-23.82,7.4-35.07,2.31-6.12,9.25-11.21,7.68-18.4-.87-3.92-4.48-6.52-7.3-9l-10.07-9-4.95-4.44.65,1.1L17.87,28.5v1.33C18.66,26.2,17,23,15.19,20a22.88,22.88,0,0,1-2-3.78,4.22,4.22,0,0,1-.35-1.6A2.44,2.44,0,0,1,13.3,13c1.78-2.48,6.7-2.37,9.5-2.64l15.79-1.5,31.08-3c9.62-.91,19.62-2,29,1.22,8.79,3,16.25,9.23,23.65,14.66l25.45,18.7,12.63,9.27c3.94,2.89,8,5.68,11.83,8.72,3.08,2.44,6.25,5.45,6.49,9.63.28,4.8-1.79,9.64-2.91,14.24a162.35,162.35,0,0,0-4.41,30.23c-.51,10,.59,20.12-.75,30.06-1.27,9.44-5.54,18-9.16,26.73a88.41,88.41,0,0,0-4.35,12.76c-.87,3.56-1.52,7.17-2.27,10.75-1.31,6.33-2.82,13.51-7.23,18.4a20.2,20.2,0,0,1-8,5.06c-3.44,1.37-7.25,3-9,6.49-1.06,2.13-1.16,4.41-1.4,6.73a5.66,5.66,0,0,1-1.79,4c-2.39,1.84-6.1,1.66-9,1-4.72-1-9.59-2.76-14.45-1.45-4.45,1.2-7.38,4.93-11.13,7.34a28.42,28.42,0,0,1-11.94,4.34c-4.41.52-9.34-.68-13.24,2C66,248,65,249.63,63.56,251a6.32,6.32,0,0,1-4.43,1.46c-3.81,0-7.55-1.39-11.15-2.49a163.06,163.06,0,0,1-21-7.55C21.05,239.67,15,236.24,11,231a19.06,19.06,0,0,1-3.44-7.38c-.72-3.14-5.54-1.81-4.83,1.33,2.37,10.38,11.7,17,20.77,21.35A137.12,137.12,0,0,0,40,252.7c2.69.88,5.4,1.71,8.11,2.53a48.06,48.06,0,0,0,9.08,2.11,12.48,12.48,0,0,0,8.83-2c2.45-1.83,3.64-4.83,7-5.25a34.9,34.9,0,0,1,4.34-.07,35.05,35.05,0,0,0,5.69-.48,33.09,33.09,0,0,0,9.77-3.26,48,48,0,0,0,8.3-5.93,10.77,10.77,0,0,1,9-2.49c3.41.53,6.67,1.73,10.11,2.05a16.13,16.13,0,0,0,8.32-1.29,9.49,9.49,0,0,0,5.27-6.75c.55-2.78,0-6.1,2.25-8.17,1.84-1.69,4.58-2.44,6.86-3.39a22.94,22.94,0,0,0,7.06-4.41c8.07-7.61,9.07-20,11.33-30.16A103.88,103.88,0,0,1,167.84,167c2.88-6.7,5.86-13.46,7.2-20.67,1.42-7.67,1.18-15.46,1.12-23.21a164.65,164.65,0,0,1,1.31-23,167.92,167.92,0,0,1,4.75-22.72c1-3.7,1.88-7.52,1.22-11.37a16.48,16.48,0,0,0-4.78-8.55,68.05,68.05,0,0,0-8.37-6.65l-9.62-7.07L141.43,29.7,121.78,15.28C116.11,11.11,110.43,6.82,104,3.93,89.71-2.46,73.81.53,58.82,2L35.13,4.21,22.8,5.38c-3.1.3-6.34.41-9.26,1.59-2.73,1.11-5.08,3.16-5.6,6.2-.47,2.7.51,5.21,1.82,7.52,1.2,2.1,2.78,4.12,3.28,6.36a2.81,2.81,0,0,1,.07,1A8.61,8.61,0,0,0,13,29.84c.05.33.1.66.14,1l1.44,10.39A23.81,23.81,0,0,0,15,43.89c.28,1,1.35,1.73,2.11,2.42l2.2,2,4.76,4.27,8.79,7.89c2,1.8,4.41,3.72,3.75,6.71s-2.85,5.38-4.47,7.79a29.93,29.93,0,0,0-3.68,7.64c-1.69,5.29-2.09,10.9-2.63,16.39-.47,4.83-1,10.11-3,14.46a16.56,16.56,0,0,1-4.33,5.86c-2.12,1.83-4.78,3-7.18,4.37A17,17,0,0,0,4.68,130c-1.66,3.12-2,6.67-2.21,10.14C1.62,156.22,1,172.31.2,188.4a53.43,53.43,0,0,0-.07,8c.29,2.78.72,5.55,1,8.33.55,5.15.93,10.33,1.14,15.5a27.39,27.39,0,0,0,.43,4.7C3.41,228.07,8.23,226.74,7.55,223.6Z"/><path d="M103.81,87c-5.11-1.7-2.13-10-9.26-16.49-6.31-5.74-11.42-4.15-17.72-9.9-2.44-2.22-4.33-6.16-2.16-8.64,1.09-1.24,2.82-1.63,4.43-1.92a162.28,162.28,0,0,1,16.28-2.17c12.23-1,22.09,1.1,26.24,8.19,4.62,7.89-1.15,18.27-2,19.76C116.27,81.69,109,88.76,103.81,87Z"/><path d="M104.48,84.62c-.73-.26.25.1-.15-.07-.12,0-.51-.35-.13,0-.13-.11-.62-.66-.33-.27a6,6,0,0,1-.55-.95c0-.08-.17-.44,0-.05-.09-.23-.17-.47-.24-.7-.56-1.74-.89-3.54-1.46-5.27A20.53,20.53,0,0,0,92,65.58c-4-2.25-8.78-3-12.45-5.93-1.46-1.17-3.21-2.91-3.28-4.91s3-2.16,4.5-2.43a132.29,132.29,0,0,1,17.63-2.09,38.22,38.22,0,0,1,13.46,1.45,13.28,13.28,0,0,1,7.84,6c2,3.64,1.33,8.07.08,11.84A27.13,27.13,0,0,1,115,78.18a24.06,24.06,0,0,1-5.58,5.17,9.81,9.81,0,0,1-2.73,1.27,3.14,3.14,0,0,1-2.2,0c-3.09-.93-4.41,3.89-1.33,4.82,5,1.53,10-2.15,13.36-5.49a32.3,32.3,0,0,0,6.69-9.66c2-4.47,3.2-9.33,2.44-14.23a16.09,16.09,0,0,0-8.07-11.28c-4.33-2.49-9.45-3.34-14.38-3.56-6.51-.28-13.09.6-19.51,1.57-3,.44-6.45.63-9.11,2.13a6.75,6.75,0,0,0-3.14,7.49c1.23,5.82,7.34,9.26,12.44,11.17a29.16,29.16,0,0,1,7.63,3.66A14.46,14.46,0,0,1,96.57,78c1.54,4.29,1.59,9.65,6.58,11.45a2.51,2.51,0,0,0,3.07-1.74A2.56,2.56,0,0,0,104.48,84.62Z"/><path d="M57.39,103c-5.67-.36-8.86-7.14-10.35-10.33-2.88-6.14-1.86-11.31-1.59-14.2.22-2.33.79-4.94,3-6.19,2.69-1.56,6.47,0,8.22,2.4s2.09,5.44,2.64,8.3,1.53,5.9,4.07,7.66c2.71,1.88,4.4,2,4.91,3.64.73,2.46-2.76,5.25-3.57,5.89S60.86,103.25,57.39,103Z"/><path d="M57.39,100.65c-4-.33-6.37-5.11-7.93-8.38-2.22-4.63-2.32-9.49-1.54-14.47.34-2.15,1.32-4.18,3.81-3.62,2.79.62,3.93,3.25,4.52,5.77.71,3,1,6.06,2.42,8.85s4,4.27,6.75,5.83c0,0,.71.46.37.2q.3.32.09,0c.13.23.16.27.1.15s.06-.36,0,.14c0-.21-.18.42-.19.45a8.49,8.49,0,0,1-2.27,2.51l-.77.62c.44-.33-.23.16-.25.18-.33.21-.65.43-1,.63a7.48,7.48,0,0,1-4.11,1.11c-3.07-.1-3.07,4.67,0,4.77,3.42.12,6.38-1.45,9-3.52,2.07-1.65,4.41-4,4.37-6.89-.06-3.92-3.81-4.48-6.3-6.48-2.71-2.18-2.8-6.32-3.49-9.44-.81-3.7-2.61-7.24-6.21-8.87s-7.57-1-9.87,2.26C43.12,75,43,78.37,42.78,81.3a24.11,24.11,0,0,0,1.3,10.49c2.26,6,6.25,13,13.31,13.63A2.4,2.4,0,0,0,59.77,103,2.43,2.43,0,0,0,57.39,100.65Z"/><path d="M139.32,120.92c-1.25-.33.68-4.77-2.23-8.66-1.38-1.85-2.14-1.82-7.33-5.89-1.41-1.1-2.8-2.45-3.07-4.21a5.39,5.39,0,0,1,1-3.77c2.16-3.22,7.84-4.62,12-2.61,5.3,2.58,5.63,9.54,5.72,11.36C145.76,114.66,140.92,121.35,139.32,120.92Z"/><path d="M140,118.51l1.36,1.31c-.06-.25-.06-.2,0,.16a2.53,2.53,0,0,0,0-.55c0-.5,0-1,0-1.5a14,14,0,0,0-.65-4.12,11,11,0,0,0-3.14-4.73c-1.32-1.11-2.79-2-4.17-3.08-1.56-1.15-4.92-3-4.06-5.33,1.3-3.59,7.29-4.27,10.22-2.09a8.14,8.14,0,0,1,2.79,4.6c.12.45.22.91.31,1.36,0,.2.19,1.26.12.68.07.6.12,1.21.14,1.81a17.12,17.12,0,0,1-2.57,9.79c-.22.34-.63.9-.64.91a5.08,5.08,0,0,1-.38.43c-.05.06-.63.58-.32.34s-.1.07-.15.09c-.25.12-.17.09.23-.1a2,2,0,0,1,.93,0,2.58,2.58,0,0,0-3.08,1.75,2.53,2.53,0,0,0,1.75,3.08c2.56.45,4.34-1.6,5.66-3.52a21,21,0,0,0,3.33-8.75c.72-4.89,0-10.54-3.13-14.51-4.07-5.15-12.2-5.49-17.17-1.45-2.85,2.31-4.13,6.38-2.34,9.72,1.56,2.92,4.91,4.85,7.53,6.72.42.31.84.62,1.27.92s-.21-.2.08,0l.44.38a8.06,8.06,0,0,1,.69.74s.21.28,0,0,.23.36.28.43a6.28,6.28,0,0,1,.61,1.25c.94,2.76-.67,6.65,2.74,8a2.52,2.52,0,0,0,3.07-1.75A2.56,2.56,0,0,0,140,118.51Z"/><path d="M160.11,95.72c-1.9,1.9-5.57.94-6.71-1.49s0-5.53,2.25-7a9.09,9.09,0,0,1,7.74-.82,7.16,7.16,0,0,1,4.4,3.35,4.9,4.9,0,0,1-7.56,5.92"/><path d="M158.34,94c-.41.38.35-.16,0,0l-.29.17c-.44.28.07,0,.07,0a2.77,2.77,0,0,1-.33.09c-.39.14.2-.12.17,0a1.67,1.67,0,0,1-.34,0c-.11,0-.23,0-.34,0-.53,0,.46.13,0,0-.24-.07-.51-.17-.75-.22s.34.25.11,0a2.36,2.36,0,0,0-.38-.22,1.21,1.21,0,0,1-.29-.19s.44.41.1.06a2.72,2.72,0,0,0-.24-.24c-.39-.36.22.41,0,0-.1-.18-.31-.7-.16-.23-.05-.16-.1-.31-.14-.48s-.11-.5,0-.15,0-.21,0-.25,0-.26,0-.4.08-.46,0,.08c0-.2.07-.39.12-.59s.31-.83.09-.35a5.65,5.65,0,0,1,.43-.8c.09-.14.18-.28.28-.42-.06.09-.32.35,0,0,.09-.09.18-.2.28-.29s.57-.47.11-.13q.36-.25.75-.48l.4-.2c-.41.2,0,0,.15,0a8.36,8.36,0,0,1,1-.27l.45-.08c-.45.07.1,0,.25,0h.93c.12,0,1,.11.49,0a18.85,18.85,0,0,1,2.09.54c.39.11-.49-.25.12,0l.39.19c.27.14.51.3.76.45s.11.07,0,0l.41.36c.13.13.25.26.37.4-.24-.26-.06-.08.05.1s.18.31.27.47c0-.08-.15-.49,0-.06a7.67,7.67,0,0,1,.19.76c-.12-.62,0,.21,0,.41s-.09.49,0,.16-.08.27-.1.34-.09.25-.12.37l.06-.15c0,.09-.09.18-.14.27s-.14.21-.2.33-.07.11.1-.11l-.19.22a3.57,3.57,0,0,0-.28.27c-.14.12-.1.09.11-.08a2.2,2.2,0,0,1-.25.17c-.11.07-.24.12-.35.19s-.12.07.14,0l-.29.1-.39.1-.3.06c.3,0,.35,0,.16,0s-.27,0-.4,0-.72-.1-.37,0l-.17,0c-.07,0-.69-.22-.37-.1s-.08,0-.15-.09-.7-.48-.25-.11a2.55,2.55,0,0,0-3.53,0,2.51,2.51,0,0,0,0,3.53,7.76,7.76,0,0,0,6.21,1.72,7.17,7.17,0,0,0,4.94-3.28,7.72,7.72,0,0,0,.92-5.88,8.11,8.11,0,0,0-3.69-4.75,12,12,0,0,0-12.07-.43,8.46,8.46,0,0,0-3.62,10.53,6.92,6.92,0,0,0,10.72,2.18,2.52,2.52,0,0,0,0-3.53,2.55,2.55,0,0,0-3.54,0Z"/><path d="M89.71,229.28c-3,1.08-6.2-9.24-12.84-9.26-4.21,0-6.35,3.91-12.52,3.6a6.46,6.46,0,0,1-3.77-1.35c-2.87-2.35-2.27-7.28.42-9.85s6.68-3.21,10.4-3.13,7.43.77,11.13.38a19.16,19.16,0,0,0,9.11-3.47c1-.73,2.14-1.6,3.37-1.39s2,2,2,3.5c-.09,1.91-1.7,3.23-2.29,3.78C89.3,217.13,92.78,228.16,89.71,229.28Z"/><path d="M89,226.87c-.37.12.27,0,.3,0-.39,0,.3.06.3.06-.58-.18.33.14,0,0a1.28,1.28,0,0,1-.26-.16s.39.33.18.13-.4-.37-.59-.57c-.85-.88-1.58-1.87-2.36-2.82-1.9-2.34-4.09-4.57-7-5.55-3.31-1.1-6.33.19-9.24,1.7-2.16,1.11-6.76,2.84-8.63.2a4.09,4.09,0,0,1-.21-3.64,5.78,5.78,0,0,1,3.1-3.25c3.88-2,8.72-1,12.86-.77a24.06,24.06,0,0,0,14-2.89c.93-.55,1.76-1.29,2.7-1.8a2.11,2.11,0,0,1,.43-.21c0,.09,1.41-1.28-.34-.14-.18.12,0-.89.08.21,0,.74.27,1-.18,1.68a7.86,7.86,0,0,1-1.23,1.29c-2.91,2.79-3.73,6.8-4,10.67-.12,1.57-.13,3.15-.26,4.72,0,.16-.15,1.13,0,.55,0,.28-.12.56-.18.84,0,.11-.08.22-.11.32-.1.31.25-.47,0-.1-.12.19-.21.16.15-.17-.31.28.52-.27.56-.29A2.59,2.59,0,0,0,87.29,230c.33,1.17,1.83,2.27,3.08,1.74,3.3-1.38,3.26-5.05,3.39-8.14s.19-6.74,2.09-9.05c1.35-1.63,3-2.75,3.47-5a6.35,6.35,0,0,0-2.54-6.7c-2.58-1.53-5,.34-7.11,1.7a17,17,0,0,1-7,2.63c-5.52.7-11-1-16.53.08-4.63.92-8.89,4-9.72,8.89a8.08,8.08,0,0,0,8,10A14.64,14.64,0,0,0,71,224.83c1.48-.63,3.06-1.63,4.25-2l.63-.18c.08,0,.78-.12.39-.09l.57,0s.81.07.38,0a4,4,0,0,1,2,.76,17.16,17.16,0,0,1,3.57,3.45c1.8,2.19,4.15,6,7.55,5C93.43,230.73,92.12,225.91,89,226.87Z"/><path d="M112.17,170.42h0s-1-3.38-1.12-3.7c-.55-1.79-2-4.73-6.27-9.73a119.66,119.66,0,0,1,31.94-6.81,2.39,2.39,0,0,1,1.33.17,2.2,2.2,0,0,1,.86,1.65c1,6.24-2.19,12.3-5.27,17.8a12.88,12.88,0,0,1-2.93,3.94c-1.67,1.34-3.39,1.65-6,2.13-4.06.74-6.08,1.11-7.86.19C114.69,174.94,110.79,168.41,112.17,170.42Z"/><path d="M114.58,169.76a43.84,43.84,0,0,0-1.91-5.7,40.69,40.69,0,0,0-6.12-8.84l-1.1,4.18A119.91,119.91,0,0,1,123,154.53c2.85-.56,5.71-1,8.58-1.36,1.55-.18,3.11-.34,4.66-.45.08,0,.81,0,.81-.06a8.47,8.47,0,0,0-.7-.63c-.07.08.24,2,.24,2.14.08,5.47-2.95,10.69-5.63,15.27a6.86,6.86,0,0,1-4.93,3.63,29.77,29.77,0,0,1-6.81,1c.06,0-.8-.06-.44,0s-.41-.1-.5-.13c-.44-.12.56.17-.17-.06-.09,0-.58-.38-.09,0A11.22,11.22,0,0,1,116.2,172c-.31-.37-.93-1.23-1.37-1.9-.23-.34-1-1.85-.54-.67v1.33h0l-4.18,1.11c-.43-.35-.37-.52-.1-.12a2.56,2.56,0,0,0,3.42.89,2.52,2.52,0,0,0,.9-3.42,4.85,4.85,0,0,0-.68-.89c-1.37-1.1-3.72-.9-4.18,1.11-.4,1.73,1.19,3.48,2.15,4.77,1.21,1.6,2.53,3.41,4.41,4.27,2.54,1.14,5.35.57,8,.11,3-.54,6-1,8.47-3s4-5.53,5.43-8.37a32.27,32.27,0,0,0,3.43-9.73c.44-2.94.9-8.41-2.78-9.53-1.59-.49-3.48-.08-5.1.09q-2.9.28-5.78.71a120.24,120.24,0,0,0-23.56,5.9,2.54,2.54,0,0,0-1.11,4.18,36.26,36.26,0,0,1,5.34,7.83c.21.42-.13-.44.09.22,0,.15.11.29.15.43.13.39.24.78.36,1.17l.81,2.68C110.68,174.16,115.51,172.85,114.58,169.76Z"/><path d="M80.87,134.62c-1.33-1.62-6.81-.79-9.5,2.7-1.91,2.48-2.79,6.79-.71,8.69,2.39,2.19,7.8.34,9.32-2.54a15.22,15.22,0,0,0,.69-3.67C81.08,136.69,81.28,135.12,80.87,134.62Z"/><path d="M82.64,132.85a5.51,5.51,0,0,0-4.21-1.52,12,12,0,0,0-5.05,1.26A11.54,11.54,0,0,0,67,141.8a7.28,7.28,0,0,0,1.54,5.64,6.49,6.49,0,0,0,5,2c3.5,0,7.6-2.05,8.91-5.45a8.35,8.35,0,0,0,.41-1.91c.19-1.3.37-2.61.53-3.92s.61-3.56-.35-4.83a2.78,2.78,0,0,0-1.5-1.15,2.53,2.53,0,0,0-1.92.25c-1,.66-1.74,2.3-.9,3.42.28.36-.2-.69-.09-.22s0-.67,0-.34c0,.11,0,.21,0,.32a13.88,13.88,0,0,1-.12,1.7c-.09.86-.21,1.72-.33,2.58,0,.3,0-.11,0-.14,0,.13,0,.26,0,.39s-.05.35-.08.53c0,.33-.09.67-.16,1s-.08.44-.14.66a1.71,1.71,0,0,0-.09.27s.27-.52.18-.45a1.14,1.14,0,0,0-.1.19,3.75,3.75,0,0,0-.24.36s.37-.43.2-.25l-.12.14c-.21.24-.44.44-.66.65s.5-.34,0,0l-.35.24c-.28.17-.57.34-.86.48l-.2.09c-.21.1-.23,0,.2-.08a2.17,2.17,0,0,0-.4.15c-.31.1-.63.19-.95.26-.11,0-.69.11-.22.06s0,0-.15,0a7.2,7.2,0,0,1-.93,0c-.53,0,.48.11.1,0l-.37-.08a2.35,2.35,0,0,0-.35-.11c.5.08.46.22.26.1l-.21-.11c-.1-.05-.52-.35-.14-.07s0,0-.08-.1c-.37-.35.2.36,0,0a3.18,3.18,0,0,0-.23-.4c-.13-.2.12.27.12.28a1.06,1.06,0,0,0-.09-.25c0-.14-.07-.27-.1-.41s0-.14,0-.21c-.07-.24,0,.31,0,.31a4,4,0,0,0,0-.59c0-.15,0-.3,0-.45s.08-.72,0-.29,0-.2.05-.29.09-.36.13-.54c.09-.34.21-.67.33-1s-.21.42,0,0l.29-.57c.16-.29.34-.58.53-.86.31-.46-.26.29,0,0,.12-.14.23-.27.36-.4a9.2,9.2,0,0,1,.72-.67c.33-.29-.4.27,0,0l.49-.34c.31-.19.64-.37,1-.53l.2-.09c.45-.22-.42.14-.14.05l.47-.17c.32-.11.65-.2,1-.28l.51-.1c.53-.1-.48,0-.1,0s.63,0,1,0c.12,0,.25,0,.38,0s-.44,0-.41-.06a1.14,1.14,0,0,1,.24,0,3,3,0,0,1,.32.09c.48.13-.39-.24-.19-.09s.42.29,0,0-.06,0,0,.06a2.53,2.53,0,0,0,3.54,0A2.56,2.56,0,0,0,82.64,132.85Z"/><path d="M65,180.71c-7.66-2.32-15.74-4.85-21.72-10.43-4.93-4.59-8.27-11.2-6.32-18A12,12,0,0,1,43,144.66c2.87-1.46.35-5.77-2.52-4.32-7.22,3.65-10.28,12.5-8.72,20.13,1.78,8.67,8.82,15.31,16.41,19.23a90.38,90.38,0,0,0,15.47,5.83c3.08.93,4.4-3.89,1.32-4.82Z"/></g></g></svg>