<svg xmlns="http://www.w3.org/2000/svg" xmlns:xlink="http://www.w3.org/1999/xlink" viewBox="0 0 252.52 231.67"><defs><style>.cls-1{fill:url(#Dégradé_sans_nom_19);}</style><linearGradient id="Dégradé_sans_nom_19" x1="15.21" y1="176.79" x2="250.54" y2="40.92" gradientUnits="userSpaceOnUse"><stop offset="0" stop-color="#662482"/><stop offset="0.4" stop-color="#250d30"/><stop offset="0.66"/><stop offset="1" stop-color="#941b80"/></linearGradient></defs><g id="Calque_2" data-name="Calque 2"><g id="pierre"><path class="cls-1" d="M88,40C66.78,57.83,52.53,73.33,48.56,80.91a27.09,27.09,0,0,0-3.23,12c.17,2.93,1.33,5.71,1.9,8.59a22.23,22.23,0,0,1-11.92,23.66c-4.54,2.16-9.85,2.74-13.88,5.75-7.1,5.29-9.36,17.28-18.15,18.41l3.41.61a37.61,37.61,0,0,1,8.47,18.65c.77,5.19.64,11,4.17,14.88,4.63,5.09,12.79,4,19.27,6.36,15.94,5.73,18.69,30.38,34.85,35.42v3l.42.26c2.2,1.23,5.11.6,7.34-.68s4.34-3.37,6.75-4.66c9-4.84,20.42,1.4,30.1-1.78,8-2.64,13.14-11.2,21.33-13.21,4.18-1,8.56-.16,12.85.21a56.33,56.33,0,0,0,14-.55l3.6,1.21a29.41,29.41,0,0,1,11.67-22.48c3.84-2.86,8.52-4.9,11.11-8.92,6.66-10.3-4.55-25.79,2.72-35.66,4.52-6.15,13.51-6.23,21.13-5.72l-.58,2.85c3.9.11,6.58-4,7.27-7.88s.27-7.94,1.88-11.5c3-6.7,12.2-9.19,14.68-16.13,1.19-3.33.61-7.24,2.45-10.27,2.25-3.72,7.68-5.27,8.57-9.53,1-4.93-4.88-8.66-5.67-13.63-.6-3.72,1.77-7.17,3.34-10.59a27,27,0,0,0-.44-23l-1.38.52c-.2-3.83-3.43-6.91-7-8.38s-7.44-1.74-11.2-2.49c-2.09-.42-4.51-1.37-4.93-3.46-.35-1.72.88-3.36,1.06-5.1.44-4.06-4.38-6.41-8.3-7.53L193.51,3.62a10.7,10.7,0,0,0-4.57-.6c-2,.31-3.62,1.71-5.52,2.37-6.84,2.37-14.54-5.23-21.08-2.13a6.67,6.67,0,0,0-1.32.81,18.68,18.68,0,0,0-4.63,5.41c-1.17,2.19-6,5.73-20.8,11.78l22.74,12.38c2,.37,4.49.86,7.38,1.45,9.8,2,14.69,3,14.67,3.13-.09.68-31.84-6.37-37.15-10.69a13.51,13.51,0,0,1-2.4-2c-1.63-1.65-3.08-3.55-5.24-4.31-5.51-2-10.68,4.65-16.54,4.5-2.44-.06-4.68-1.31-7-2-7.9-2.33-17.21,2.75-19.52,10.66L79,23.93l-6.65,3.21A98.94,98.94,0,0,0,45.7,37.63a13.82,13.82,0,0,0-5.17,4.3c-2.76,4.37-.38,10,1.35,15.2a124.27,124.27,0,0,1,5.43,24.35Q67.68,60.74,88,40Z" transform="translate(-0.83)"/><path d="M86.28,38.2A320.28,320.28,0,0,0,59.69,62.91c-2.95,3.11-5.83,6.32-8.47,9.7A43.81,43.81,0,0,0,46,80.52,28,28,0,0,0,42.83,92.9c.07,3.17,1.38,6.17,2,9.25a17.66,17.66,0,0,1,0,6.68A20.35,20.35,0,0,1,37.4,121c-4.34,3.34-10,3.87-14.82,6.3s-7.84,7.11-10.74,11.59a31.26,31.26,0,0,1-4.07,5.41,8.55,8.55,0,0,1-5.15,2.63c-2.43.34-2.35,4.4,0,4.82l3.4.61-1.1-.64a34.74,34.74,0,0,1,6.26,11.1c1.4,4.14,1.7,8.36,2.33,12.65.6,4.11,2,8.26,5.32,11,3.14,2.53,7,3.41,10.93,4,3.48.57,7.22,1.1,10.16,2.66a22.61,22.61,0,0,1,6.57,5.44c4,4.54,7,10.26,10.44,15.39,4,5.94,8.83,11.45,15.86,13.7L71,225.23v2.4a5,5,0,0,0,.09,1.28,3.73,3.73,0,0,0,2.5,2.18c3.61,1.45,7.57,0,10.56-2.16s5.46-4.28,9.13-4.93c3.3-.59,6.8-.14,10.1.22a53.27,53.27,0,0,0,10.4.52,22,22,0,0,0,9.83-3.22c5.11-3.16,9.23-8.43,15-10.48,4.35-1.54,9-.57,13.46-.17a59.65,59.65,0,0,0,14.92-.62h-1.33l3.6,1.21a2.52,2.52,0,0,0,3.17-2.41,27,27,0,0,1,8-18.21c4.85-4.78,12.19-7,15.26-13.44,2.75-5.82,1.55-12.32.54-18.41-.86-5.18-2.08-11.4,1.34-15.74,4.27-5.45,12.83-4.89,19-4.48l-2.41-3.17-.58,2.86a2.53,2.53,0,0,0,2.41,3.16c4.47,0,7.55-3.5,9-7.41,1.61-4.23.54-9,2.28-13.2,1.32-3.17,4.4-5.33,7-7.38,2.81-2.2,5.73-4.56,7.28-7.87A22,22,0,0,0,243.16,99c.24-1.8.56-3.74,1.74-5.11,2.31-2.7,5.86-4.11,7.54-7.38,2-3.81.46-7.59-1.75-10.88a24.84,24.84,0,0,1-2.77-4.54,7.25,7.25,0,0,1,.38-5.44c.95-2.36,2.3-4.53,3.2-6.92a29.13,29.13,0,0,0,1.71-7.77,29.67,29.67,0,0,0-3-15.66,2.54,2.54,0,0,0-2.83-1.15l-1.38.53,3.17,2.41c-.43-5.5-4.68-9.31-9.63-11.11a48.3,48.3,0,0,0-8.41-1.82,19.67,19.67,0,0,1-3.56-.78c-.56-.2-1.39-.6-1.51-1-.28-.83.49-2.09.72-2.88a7.81,7.81,0,0,0,.18-4,9.31,9.31,0,0,0-4.4-5.4A25.12,25.12,0,0,0,216,7.43L206.75,4.8,197.5,2.16c-3-.84-6.1-2.11-9.22-1.55-2.42.43-4.43,2.37-6.77,2.7a13.69,13.69,0,0,1-5.92-1C171.36,1,166.74-1,162.28.59c-3.58,1.3-6.54,4.7-8.29,8-.28.53.41-.4,0,0-.15.14-.28.31-.42.45-.34.34-.71.65-1.07.95s.46-.34,0,0l-.42.3c-.25.19-.51.36-.78.54-.68.45-1.38.87-2.08,1.28a117.73,117.73,0,0,1-14.29,6.72c-1.85.75-2.67,3.44-.6,4.57l14,7.62,7,3.81a11.47,11.47,0,0,0,3.38,1.4l3.16.61q6.45,1.28,12.88,2.63c1.17.24,2.35.48,3.52.75l1,.23c.1,0,.2.07.3.08s-.79-.47-.92-.57l-.64-1.1h0V37.56h0l.64-1.11c.19-.18,1.32-.83,1.59-.69-.06,0-.17,0-.24,0a.86.86,0,0,0-.28,0c-.52,0,.7.11.12,0l-2.44-.43c-2.53-.5-5.05-1.06-7.56-1.66-6.2-1.46-12.41-3.07-18.44-5.14-1.23-.43-2.45-.88-3.65-1.37-.37-.15.54.24,0,0l-.33-.15-.64-.29c-.43-.21-.86-.43-1.28-.68-.26-.15-1.15-.78-.45-.25a22.89,22.89,0,0,1-1.91-1.5c-1.77-1.63-3.2-3.64-5.37-4.79-4.34-2.3-8.63-.31-12.6,1.75a16.54,16.54,0,0,1-5.07,2c-2.4.33-4.72-1-6.93-1.75-9.41-3-20.16,2.93-23,12.27l4.18-1.1L80.8,22.16a2.67,2.67,0,0,0-3-.39l-3.44,1.66L72.11,24.5c-.22.1-.44.24-.67.32-.54.2,0,0-.39.06a24.47,24.47,0,0,0-4.64,1.24q-2.62.76-5.21,1.68a106.32,106.32,0,0,0-9.88,4.08,69.87,69.87,0,0,0-8.61,4.63c-2.78,1.83-5.08,4.3-5.71,7.67-1.1,5.91,2,11.8,3.65,17.33a125,125,0,0,1,4.16,20c.26,2,2.61,3.46,4.27,1.77Q69.45,62.49,89.81,41.74c2.26-2.3-1.27-5.84-3.53-3.54L45.55,79.72l4.26,1.76a135.27,135.27,0,0,0-3.52-18.39c-.6-2.23-1.26-4.44-2-6.63-.94-2.8-2.17-5.68-2.46-8.65a6.68,6.68,0,0,1,2.74-6.53A52.32,52.32,0,0,1,53,36.59a96,96,0,0,1,18.69-6.72c3-.75,5.8-2.44,8.59-3.78l-3-.39L90.74,36.18c1.47,1.14,3.58.85,4.18-1.11a13.9,13.9,0,0,1,11.22-9.26A15,15,0,0,1,113.82,27c3.28,1.22,6.44,1.64,9.78.38,2.56-1,4.85-2.56,7.42-3.49s4.38-.38,6.44,1.74a31.37,31.37,0,0,0,3.61,3.4c.2.15,1.42,1,.47.31.34.23.64.5,1,.73a24.47,24.47,0,0,0,4.13,2c7.67,3.13,15.91,5.07,24,6.9a88,88,0,0,0,8.82,1.72c1.42.17,2.92-.21,3.36-1.81.61-2.22-1.37-3-3-3.44-6.29-1.44-12.64-2.66-19-3.88a7.81,7.81,0,0,1-2.49-.8l-3.06-1.67-6.12-3.33L136.85,19.1l-.59,4.57c4.61-1.89,9.22-3.85,13.62-6.19a34.48,34.48,0,0,0,6.72-4.41c1.46-1.3,2.2-3.06,3.41-4.51s2.88-3.19,4.8-3.5a12.89,12.89,0,0,1,5.8.91c4.17,1.33,8.56,3.22,13,2,2.24-.63,4.31-2.68,6.71-2.49a20.93,20.93,0,0,1,4,1L199,7.79c5.74,1.64,11.54,3.14,17.24,4.92a11.91,11.91,0,0,1,5,2.66,2.79,2.79,0,0,1,.61.8c0,.06.24.59.23.54.19,1.16-.54,2.32-.83,3.41a6.12,6.12,0,0,0,3,7.21c2.44,1.4,5.41,1.61,8.14,2.06s5.68,1,8.1,2.55c1.78,1.12,3.47,2.94,3.64,5.13.11,1.47,1.53,3,3.16,2.41l1.38-.52-2.82-1.15A24.6,24.6,0,0,1,247.1,56.2a51.32,51.32,0,0,1-2.69,5.95,16.66,16.66,0,0,0-1.89,6.6A11.51,11.51,0,0,0,244,74.47c.84,1.58,1.94,3,2.89,4.5a7.18,7.18,0,0,1,1.48,3.76,4.5,4.5,0,0,1-1.84,3.17c-1.21,1.11-2.59,2-3.83,3.11a12.22,12.22,0,0,0-3.48,4.75A27.12,27.12,0,0,0,238,100a11.18,11.18,0,0,1-1.73,4.9,17.29,17.29,0,0,1-3.29,3.39c-2.55,2.17-5.42,4-7.63,6.56a15.67,15.67,0,0,0-3.31,5.88,40.35,40.35,0,0,0-1,7.74c-.26,3-1.41,8.18-5.12,8.19l2.41,3.17.58-2.86a2.54,2.54,0,0,0-2.41-3.16c-6.54-.43-14.22-.58-19.79,3.46s-6.92,10.83-6.17,17.46c.67,5.87,2.81,12.43,1.44,18.17-1.63,6.83-9.33,9.21-14.15,13.52a32.18,32.18,0,0,0-10.46,22.67l3.16-2.41-2.15-.72a6.26,6.26,0,0,0-3.5-.38,53,53,0,0,1-12.39.37c-4.3-.35-8.53-1.11-12.83-.34a21.82,21.82,0,0,0-8.78,4.08c-4.87,3.54-9.22,8.54-15.34,9.82-6.64,1.39-13.49-1-20.18-.69a19.88,19.88,0,0,0-11.19,3.88c-2.38,1.76-6.28,5.54-9.46,3.43L76,228.25v-3a2.57,2.57,0,0,0-1.83-2.41c-5.75-1.84-9.83-6.83-13.2-11.9-3.74-5.61-6.94-11.67-11.56-16.64a25.81,25.81,0,0,0-7.67-5.86c-3.7-1.78-7.68-2.27-11.68-3-3.56-.62-7.59-1.48-9.66-4.77-2.26-3.59-2.15-8.32-2.73-12.39a39.75,39.75,0,0,0-5.27-14.75,37.33,37.33,0,0,0-2.21-3.26c-.75-1-1.57-2.43-2.84-2.78-1.08-.3-2.25-.4-3.35-.6v4.82c9.38-1.34,11.91-12.3,17.89-17.91,4-3.72,10.19-4.23,15.05-6.65a24,24,0,0,0,10.68-11.08,24.43,24.43,0,0,0,2-15.71c-.54-2.49-1.68-5-1.71-7.6a15.62,15.62,0,0,1,.6-4.41c1.86-7.8,7-13.43,12.18-19.1a299.06,299.06,0,0,1,29.2-27.52,2.52,2.52,0,0,0,0-3.54A2.55,2.55,0,0,0,86.28,38.2Z" transform="translate(-0.83)"/><path d="M202.72,100a27.35,27.35,0,0,1-3,5.31,15.56,15.56,0,0,1-6.54,5c-2.58,1-5.79.84-7.79-1.07-3.39-3.22-1.51-9.12,1.79-12.44s7.75-5.54,10.26-9.48c1.76-2.77,2.39-6.17,4.32-8.82A10.59,10.59,0,0,1,213,74.58a9.79,9.79,0,0,1,6.89,9.52c-.23,4.72-4.67,7.86-8,8.42-2.41.41-3.29-.73-5,.18S205.12,95.13,202.72,100Z" transform="translate(-0.83)"/><path d="M200.56,98.74c-1.41,2.87-2.68,5.44-5.19,7.45-2.08,1.66-6.29,3.61-8.49,1-1.85-2.14-.36-5.69,1.18-7.71,2.22-2.92,5.69-4.76,8.35-7.23a17.94,17.94,0,0,0,3.66-4.61c1-1.75,1.55-3.65,2.39-5.45,1.43-3.06,3.93-5.42,7.47-5.54a7.24,7.24,0,0,1,7,4.64,6.15,6.15,0,0,1-2.42,7.38,6.33,6.33,0,0,1-4.12,1.38c-.49,0-1.41-.27-2.17-.26a5.62,5.62,0,0,0-2.85.83,6.35,6.35,0,0,0-2.42,2.83c-.82,1.73-1.51,3.52-2.36,5.24a2.56,2.56,0,0,0,.9,3.42,2.51,2.51,0,0,0,3.42-.89c.84-1.73,1.53-3.52,2.36-5.25.11-.24.24-.47.36-.7,0,0,.34-.52.09-.18s0,0,.06,0c.42-.31-.42,0,.11-.11.08,0,.7-.21.33-.14.64-.13-.15,0,.22,0,.18,0,.36.06.54.09a13.89,13.89,0,0,0,1.58.18,9.17,9.17,0,0,0,3.16-.46,13.85,13.85,0,0,0,5.08-3,10.92,10.92,0,0,0,2.89-11.8,12.35,12.35,0,0,0-9.79-8A13.18,13.18,0,0,0,199.78,77a29,29,0,0,0-3.16,6.39,15.08,15.08,0,0,1-3.46,5.16c-3.2,3.06-7.22,5.19-9.72,8.94-2.28,3.4-3.46,8.39-1.09,12,3.11,4.81,9.41,4.65,13.92,2.08,4.16-2.36,6.56-6.13,8.61-10.3a2.56,2.56,0,0,0-.89-3.42A2.53,2.53,0,0,0,200.56,98.74Z" transform="translate(-0.83)"/><path d="M125.12,127.89c-2.1-.76,1.81-9,.33-22.73-.35-3.19-1-7.09.25-12.16.76-3.07,2.16-6.16,4.75-8s6.58-1.87,8.62.54c2.92,3.46.58,9.6,3.86,12.71,2.82,2.67,8.32,1.47,10.31,4.8,1.76,3-2.67,7.65-2.92,7.92-4.13,4.49-8.32,2.74-14.46,6.24C128.34,121.54,127,128.56,125.12,127.89Z" transform="translate(-0.83)"/><path d="M125.79,125.48a1.93,1.93,0,0,1,1.07.78c.13.21.19.58.09.12.18.84,0,.29,0,0s0-.5,0-.75c0-.53.11-1.06.18-1.59-.08.57.08-.56.1-.7.06-.43.12-.85.17-1.28a72.18,72.18,0,0,0,.77-13.22c-.22-4.77-1.31-9.49-.33-14.25.73-3.55,2.71-8.83,7.23-8.38,3.89.39,3.11,6,3.58,8.8a8.6,8.6,0,0,0,2.91,5.4,13.79,13.79,0,0,0,5.81,2.35c1.62.36,3.15.59,3.78,1.8-.07-.14,0,0-.06.22-.05.8.07-.21,0,.26l-.15.53a9.36,9.36,0,0,1-1.09,2l-.3.43c-.45.65.16-.19-.11.15s-.35.43-.53.64a12.38,12.38,0,0,1-1.18,1.22,10.26,10.26,0,0,1-4.72,2.09,34.67,34.67,0,0,0-7.25,2.34,22.9,22.9,0,0,0-6.51,4.83,37.09,37.09,0,0,0-3.74,4.9l-.59.88c-.14.21-.68.83-.23.34l-.24.27c-.14.16-.4.21-.06.09a2.94,2.94,0,0,1,1.38-.28c-3.1-.91-4.42,3.91-1.33,4.82,3.45,1,5.32-3.71,6.94-5.84a19.91,19.91,0,0,1,4.67-4.42,21.72,21.72,0,0,1,7.2-2.86,19.13,19.13,0,0,0,6.14-2.2,15.1,15.1,0,0,0,3.8-3.55,12.43,12.43,0,0,0,2.89-6.11,6.1,6.1,0,0,0-3-5.81c-1.91-1.22-4.22-1.44-6.35-2a3.75,3.75,0,0,1-3.16-3.3c-.47-2.16-.28-4.54-.88-6.74a8.16,8.16,0,0,0-5.16-5.76c-5.49-1.92-10.76,1.92-12.94,6.8-2.3,5.14-2.38,10.59-1.76,16.08a62.47,62.47,0,0,1,.36,9.67c-.06,1.41-.17,2.82-.32,4.23-.06.56-.13,1.12-.2,1.69s-.07.59-.15,1.13c-.42,3-1.75,7.52,1.89,9a2.5,2.5,0,0,0,3.07-1.75A2.56,2.56,0,0,0,125.79,125.48Z" transform="translate(-0.83)"/><path d="M98.62,108.06a32.36,32.36,0,0,1,11.69-15.49,35.49,35.49,0,0,0,5.36-4c1.55-1.62,2.64-3.89,2.15-6.08A7.45,7.45,0,0,0,115.75,79a13.57,13.57,0,0,0-9.27-4.25,10.75,10.75,0,0,0-9,4.43c-1.51,2.19-2,4.91-3.24,7.29-2.34,4.65-7.13,7.68-12.14,9.09S71.79,97,66.59,97l-6.27-.16c-.7,1,0,2.54,1.13,3.16a11.54,11.54,0,0,0,3.64.92c4.91,1,8.59,5,13.18,7,6.59,2.86,14.17,1.24,21.16-.44" transform="translate(-0.83)"/><path d="M101,108.72a29.51,29.51,0,0,1,5.25-9.07,32.56,32.56,0,0,1,3.92-3.87c1.42-1.18,3-2.12,4.5-3.2,3.25-2.36,6.23-5.76,5.65-10.07-.54-4-4.28-7.22-7.76-8.79a14.34,14.34,0,0,0-11.34-.5c-4,1.61-6.27,4.57-7.78,8.48-1.24,3.21-2.46,6-5.27,8.15a22.53,22.53,0,0,1-10,4c-5.86,1-12,.57-17.88.42a2.5,2.5,0,0,0-2.16,1.24,4.8,4.8,0,0,0,1,5.81c1.64,1.63,3.91,1.56,6,2.11,3.52.94,6.36,3.52,9.44,5.33,8,4.7,17,3.1,25.48,1.07,3.13-.75,1.81-5.57-1.33-4.83-6.62,1.58-14.23,3.42-20.61,0-2.85-1.52-5.34-3.63-8.23-5.07a17.17,17.17,0,0,0-4.58-1.59,8.16,8.16,0,0,1-2.46-.5c-.68-.37-.07-.44-.4.18l-2.16,1.23c11.33.29,25.4,1.42,33.62-8a17.26,17.26,0,0,0,2.89-4.51c.73-1.67,1.22-3.45,2-5.07a8.15,8.15,0,0,1,7.22-4.45,11,11,0,0,1,8.49,4.19c2.26,2.93-.76,5.69-3.1,7.31a42.48,42.48,0,0,0-9.25,8,36.33,36.33,0,0,0-6,10.67A2.52,2.52,0,0,0,98,110.47a2.56,2.56,0,0,0,3.08-1.75Z" transform="translate(-0.83)"/><path d="M135.43,77.35c-1.49-.79-2.16-2.87-2.05-4.4.15-2,1.6-2.5,3-4.61,3.05-4.48,2.71-10.38,2-15.75-.15-1.13-.24-2.49.66-3.19,1.26-1,3,.27,3.92,1.6,2,3.06,2.75,7,5.37,9.54s4.2,3.28,4.19,5.13c0,1.44-1.17,2.51-4.09,4.69C141.2,75.77,137.54,78.46,135.43,77.35Z" transform="translate(-0.83)"/><path d="M136.7,75.19a2.21,2.21,0,0,1-.82-1.64c-.07-.89.4-1.21,1-1.85a16,16,0,0,0,3.86-7.06,26.44,26.44,0,0,0,.55-8.37c-.1-1.32-.3-2.62-.44-3.94,0-.08,0-1.15-.06-1.16a3.65,3.65,0,0,0-.52.35c-.54.37-.5-.42-.05.16a14.09,14.09,0,0,1,1.69,2.57c.56,1.15,1,2.33,1.59,3.49a18.86,18.86,0,0,0,4.78,6.15c.37.32.74.64,1.09,1a7.53,7.53,0,0,1,.56.57c-.06-.07-.24-.35,0,0s.08.09,0,0c.25.5,0-.4,0,.21,0,.14-.06.49,0-.09-.07.5.22-.34-.06.14a3.1,3.1,0,0,1-.57.65c-.37.36-.77.69-1.17,1-1.19,1-2.44,1.85-3.66,2.75a59.44,59.44,0,0,1-6.06,4.14c-.37.21-.75.41-1.15.59.5-.22-.42.13-.58.18a2.88,2.88,0,0,1-.4.09c.64-.16.29,0,.07,0-.43,0,.23,0,.25.05-.21-.07-.72-.3,0,0a2.57,2.57,0,0,0-3.43.9,2.53,2.53,0,0,0,.9,3.42c4.15,2,8.79-2,11.92-4.32,1.46-1.06,2.92-2.14,4.36-3.24a18,18,0,0,0,3.21-2.83,5.33,5.33,0,0,0,0-7,31.37,31.37,0,0,0-2.85-2.68A12.51,12.51,0,0,1,148,55.56c-1.37-2.81-2.3-6.15-5-8-3.38-2.35-7.27,0-7.21,4,0,1.57.38,3.16.5,4.73a30.06,30.06,0,0,1,0,4.93,12.57,12.57,0,0,1-1.4,4.84c-.8,1.48-2.1,2.48-3,3.85-2.06,3.07-.8,7.75,2.3,9.62C136.94,81.17,139.45,76.85,136.7,75.19Z" transform="translate(-0.83)"/><path d="M172.17,61.16c0-6.1,2.56-13.26,9.26-14.66,3-.63,6,.85,8.82,1.78,3.17,1,6.54,1.51,9.53-.3,2.75-1.67.24-6-2.52-4.32-2.6,1.58-6.11-.38-8.66-1.23a14.9,14.9,0,0,0-10.68,0c-7.53,3.1-10.74,11.07-10.75,18.77,0,3.21,5,3.22,5,0Z" transform="translate(-0.83)"/><path d="M106.58,181.22c6-1.09,11.12-4.68,16.06-8.18a4.2,4.2,0,0,0,2-2.47,4.08,4.08,0,0,0-.67-2.46l-5.35-10.37a6.06,6.06,0,0,0-2-2.54c-2.14-1.31-4.93.52-6.18,2.7s-1.77,4.81-3.51,6.63c-3.6,3.75-9.78,2-14.95,2.58l1.39,5.54a8.85,8.85,0,0,1,4.72,9.67Z" transform="translate(-0.83)"/><path d="M107.25,183.63c5.28-1,10-3.8,14.34-6.81,2.06-1.42,4.73-2.83,5.45-5.41.78-2.8-1.56-5.88-2.78-8.24-1.31-2.53-2.49-5.21-4-7.65a6,6,0,0,0-6.43-3.12,8.76,8.76,0,0,0-5.5,4.24c-1.14,1.93-1.56,4.46-3.13,6.12-1.4,1.48-3.54,1.7-5.48,1.75-2.57.07-5.13-.17-7.7.1a2.54,2.54,0,0,0-2.41,3.17c.46,1.82.8,3.71,1.38,5.5.38,1.18,1.28,1.47,2.19,2.12a5.87,5.87,0,0,1,1.57,1.65,6.27,6.27,0,0,1,1,4.61c-.28,1.39.68,3.39,2.41,3.16l8.43-1.1a2.59,2.59,0,0,0,2.5-2.5,2.51,2.51,0,0,0-2.5-2.5l-8.43,1.1,2.41,3.17a11.45,11.45,0,0,0-5.87-12.5L95.84,172l-1.39-5.53L92,169.61c3.93-.42,8,.37,11.84-.59a10,10,0,0,0,5.14-3c1.49-1.7,2.16-3.77,3.1-5.78.49-1.05,1.65-3.14,3-3,.37.05.66.52.9.94.64,1.1,1.19,2.26,1.78,3.39l3.57,6.92c.24.48.91,1.33.67,1.8-.09.19-.52.43-.69.57-.58.43-1.19.83-1.78,1.25-4.2,2.93-8.58,5.69-13.68,6.68a2.51,2.51,0,0,0-1.75,3.07A2.56,2.56,0,0,0,107.25,183.63Z" transform="translate(-0.83)"/><path d="M151.92,183.21c-5.95-.79-11.18-7.52-12.51-16.82,3.46-2.12,8.65.94,11.77-1.65,2.31-1.91,1.81-5.49,2.33-8.45,1-5.78,6.39-9.7,9.12-14.9,1-1.86,1.64-3.92,3.05-5.46,2.42-2.63,6.34-3.09,9.91-3.31a1.6,1.6,0,0,1,1.22.25,1.68,1.68,0,0,1,.29,1.43c-.41,3.55-1.34,7.78-4.71,9-1.21.43-2.54.36-3.78.69-4,1-5.79,5.59-7,9.54l-2.12,6.92c-.86,2.83-1.64,6.19.19,8.52a18.07,18.07,0,0,0,2.23,2.05c.06,0,.56.56.72.76,1.25,1.49.55,5.78-1.77,8.42C158.4,183,154.45,183.54,151.92,183.21Z" transform="translate(-0.83)"/><path d="M152.59,180.79a10,10,0,0,1-6.69-4.33,23.9,23.9,0,0,1-4.08-10.74l-1.15,2.82c1.24-.7,2.82-.46,4.24-.34a14.54,14.54,0,0,0,5.42-.24c4.37-1.33,5.1-5.59,5.43-9.55.29-3.5,2-6.19,4.12-8.9,1.25-1.58,2.54-3.14,3.67-4.81a46.36,46.36,0,0,0,2.69-5.07,6.67,6.67,0,0,1,3.92-3.64,15.89,15.89,0,0,1,2.81-.64c.5-.07,1-.11,1.51-.15l.74-.06.37,0c.57,0,.44-.07-.37-.25l-.64-1.11s0,.59,0,.86c-.06.43-.14.89-.22,1.33a12.92,12.92,0,0,1-.78,2.75c-.84,1.94-2,2.31-4,2.58-5,.66-7.75,4.5-9.46,8.95-.9,2.35-1.56,4.81-2.29,7.22a28,28,0,0,0-1.73,7.8,8.32,8.32,0,0,0,3.07,6.65c.37.31.75.6,1.1.94.11.11.78.73.36.33.4.38-.08-.21.06.09,0,.1.13.6.07.2a5.72,5.72,0,0,1,0,1.09c-.53,4.55-4.68,6.64-8.81,6.16a2.51,2.51,0,0,0-2.5,2.5,2.57,2.57,0,0,0,2.5,2.5,12.55,12.55,0,0,0,11.54-4.83c2.32-3.18,3.5-8.35.45-11.42-.69-.71-1.59-1.23-2.22-2a3.44,3.44,0,0,1-.62-2.4c.07-2.44,1.12-4.9,1.82-7.21s1.26-4.52,2.15-6.66a9.21,9.21,0,0,1,3.05-4.31,6.15,6.15,0,0,1,2.64-.75,8.38,8.38,0,0,0,7.72-6.25,17.19,17.19,0,0,0,1.18-6.2,3.6,3.6,0,0,0-2.42-3.39,8.91,8.91,0,0,0-3.49,0,19.45,19.45,0,0,0-7,1.79,11.34,11.34,0,0,0-4.9,5.23,39.2,39.2,0,0,1-3.35,6c-1.32,1.8-2.79,3.49-4.1,5.3a18.28,18.28,0,0,0-3.21,6.73c-.45,2.12-.11,4.63-.95,6.65s-3.08,1.46-4.8,1.32c-2.52-.21-5-.3-7.27,1a2.59,2.59,0,0,0-1.15,2.82c1.14,7.61,5.69,17.31,14.26,18.57a2.59,2.59,0,0,0,3.07-1.75A2.52,2.52,0,0,0,152.59,180.79Z" transform="translate(-0.83)"/><path d="M47.32,167.86c-4.38.07-7.34-4.27-9.47-8.09-1-1.88-1.67-5,.39-5.58,1.07-.33,2.16.37,3.07,1L47.74,160c1.73,1.26,3.66,3.1,3.06,5.15" transform="translate(-0.83)"/><path d="M47.32,165.36a1.92,1.92,0,0,1-.76,0s.6.13.11,0l-.35-.08c-.24-.06-.47-.14-.7-.21s-.16.05.1,0c-.09,0-.25-.12-.33-.16a6.5,6.5,0,0,1-.63-.37c-.16-.1-.68-.5-.26-.15a13.84,13.84,0,0,1-1.19-1.1c-.35-.36-.67-.74-1-1.12s0,0,0,0l-.24-.32-.52-.75a32.29,32.29,0,0,1-1.67-2.77c0-.09-.36-.62-.15-.3s0,0,0-.09-.07-.22-.11-.33-.13-.44-.18-.66l-.06-.25c-.13-.54,0,.56,0,0v-.63c0-.43-.16.53,0,0,.1-.3-.26.48-.1.22,0-.1.23-.33,0,0s.24-.08-.17.16.06,0,.1,0c-.11.19-.38.13-.55.15.18,0,.37.1,0,0a3.06,3.06,0,0,1,.43.13c-.13-.05-.35-.2,0,0,.55.35,1.07.72,1.6,1.11l3.54,2.59,1.93,1.42.32.24c.56.4-.38-.33.17.12.25.21.5.42.73.65a8.82,8.82,0,0,1,.67.7c-.06-.07-.26-.39,0,0,.09.14.18.28.26.43s.17.46.09.15.06.23,0,.25,0-.62,0-.09.12-.45,0,.12a2.5,2.5,0,0,0,4.83,1.33c1-3.94-2.27-6.55-5.07-8.61L43.86,154c-1.48-1.08-3-2.4-5-2.4a4.34,4.34,0,0,0-4.1,2.71,6.58,6.58,0,0,0-.09,4.25,20.92,20.92,0,0,0,4.23,7.3,11.06,11.06,0,0,0,8.4,4.49,2.5,2.5,0,0,0,0-5Z" transform="translate(-0.83)"/><path d="M212.5,61.11a7.07,7.07,0,0,1,0-1.72l-.09.66a8.55,8.55,0,0,1,.54-2l-.25.6a8.12,8.12,0,0,1,.68-1.27l.23-.33c.24-.35-.4.47-.11.14s.3-.35.46-.52.33-.32.51-.47.18-.15.26-.22c-.61.51-.29.23-.13.12a7.83,7.83,0,0,1,1.3-.72l-.6.25a8.11,8.11,0,0,1,1.21-.38,2.52,2.52,0,0,0,1.74-3.07,2.56,2.56,0,0,0-3.07-1.75,10.21,10.21,0,0,0-7.68,10.66,2.78,2.78,0,0,0,.73,1.77,2.57,2.57,0,0,0,1.77.73,2.53,2.53,0,0,0,1.77-.73,2.4,2.4,0,0,0,.73-1.77Z" transform="translate(-0.83)"/><path d="M202.86,17.36a4.36,4.36,0,0,0-.62,2.12,5.57,5.57,0,0,0,.11,1.08,2.85,2.85,0,0,0,.13.48,5.49,5.49,0,0,0,.45,1,4.5,4.5,0,0,0,.67.84,4.17,4.17,0,0,0,1.88,1.1,2,2,0,0,0,1,0,1.71,1.71,0,0,0,.93-.3,1.8,1.8,0,0,0,.7-.64,1.76,1.76,0,0,0,.45-.85,2.5,2.5,0,0,0-.25-1.93,2.64,2.64,0,0,0-1.49-1.15,1.13,1.13,0,0,1-.24-.08l.6.26a2.12,2.12,0,0,1-.36-.21l.51.39a2.16,2.16,0,0,1-.37-.37l.39.5a2.07,2.07,0,0,1-.27-.45l.26.59a1.86,1.86,0,0,1-.16-.57l.09.66a1.51,1.51,0,0,1,0-.52l-.09.66a2.09,2.09,0,0,1,.11-.43l-.25.59a1.43,1.43,0,0,1,.15-.27,2,2,0,0,0,.3-.93,1.89,1.89,0,0,0,0-1,1.78,1.78,0,0,0-.44-.85,1.93,1.93,0,0,0-.71-.65,2.53,2.53,0,0,0-1.92-.25l-.6.25a2.76,2.76,0,0,0-.9.9Z" transform="translate(-0.83)"/></g></g></svg>