<svg xmlns="http://www.w3.org/2000/svg" viewBox="0 0 259.02 304.37"><defs><style>.cls-1{fill:#425524;}.cls-2{fill:#1d1d1b;}.cls-3{fill:#617b48;}.cls-4,.cls-5,.cls-6{fill:#6e893e;}.cls-4,.cls-5,.cls-6,.cls-7{stroke:#378163;stroke-miterlimit:10;}.cls-4{stroke-width:0.23px;}.cls-5{stroke-width:0.35px;}.cls-6{stroke-width:0.3px;}.cls-7{fill:none;stroke-width:0.17px;}.cls-8{fill:#1886b6;}</style></defs><g id="Calque_2" data-name="Calque 2"><g id="salades"><path class="cls-1" d="M90.43,250.74c-8.72-8.58-17.54-4.87-24.8-15.47a44.05,44.05,0,0,1-6.89-18.53c-.94-7.35.64-11.94-2.83-15.85-2.45-2.75-6.28-3.7-9.85-4.6-9.32-2.36-18.74-5.47-26.11-11.64s-12.35-16-10.36-25.41c1.64-7.74,7.65-14.32,7.86-22.22.18-6.81-4-12.85-7.12-18.89A70.34,70.34,0,0,1,3.75,72.66C5,66.54,7.48,60,13.1,57.26c4.39-2.11,9.57-1.32,14.39-2C44,52.83,52.29,34.77,63.55,22.5a63.21,63.21,0,0,1,55.5-19.36,63.21,63.21,0,0,1,46.76,35.61c1,2.12,1.92,4.43,3.9,5.65,3.1,1.91,7.06.31,10.47-.94,18.37-6.72,40.59-1.09,53.54,13.56s15.81,37.4,6.88,54.81c-8.67,16.89-27.17,29.1-29.51,47.94,22-.59,42.93,17.76,45.19,39.69A23.07,23.07,0,0,1,255,211.12c-6.56,14.93-34.11,16.91-32.84,33.17.35,4.36,3,8.18,3.91,12.46,1.93,9.49-5.25,17.43-7.86,20.83-13.68,17.8-44.47,25.86-71.74,24.05-16.42-1.09-34.84-2.32-43.95-15.22C93.63,273.89,101.5,261.64,90.43,250.74Z"/><path class="cls-2" d="M92.2,249c-3.68-3.54-8-5.54-12.79-7.18-4.28-1.48-8.15-3.21-11-6.91a36.62,36.62,0,0,1-5.66-11.5,40,40,0,0,1-1.7-8.46c-.19-2.4-.13-4.8-.26-7.21-.28-4.85-2.22-9-6.67-11.3a32.59,32.59,0,0,0-7.39-2.53c-2.79-.71-5.57-1.47-8.31-2.37-10.21-3.35-20.23-9-24.82-19.19a20.47,20.47,0,0,1-1-14.48c1.57-5.1,4.65-9.58,6.3-14.66,1.78-5.5,1.11-10.92-1.13-16.17s-5.44-10-7.6-15.21a68.73,68.73,0,0,1-4.66-34C6,73,7,67.82,9.68,63.67a11.35,11.35,0,0,1,4.68-4.25c2.51-1.15,5.36-1.2,8.06-1.31,5-.21,9.62-.93,14.11-3.21a40.31,40.31,0,0,0,10.65-8.3c6.45-6.76,11.37-14.79,17.59-21.73C78.27,9.8,99.71,2.14,119.69,5.78a61.2,61.2,0,0,1,44.23,34.83c1.08,2.36,2.39,4.75,4.74,6.07a10.78,10.78,0,0,0,8,.59c2.56-.66,5-1.76,7.51-2.47A42.66,42.66,0,0,1,191,43.44a49.06,49.06,0,0,1,27.93,5.22,44.67,44.67,0,0,1,19.78,20.52,48.31,48.31,0,0,1,3.95,28.36c-1.64,9.77-6.55,17.95-12.65,25.6s-12.82,14.68-17.24,23.32a40.52,40.52,0,0,0-4.18,13.31,2.5,2.5,0,0,0,2.5,2.5c21.15-.45,41.5,17.37,42.82,38.74.33,5.25-.87,10-4.47,13.81a42.8,42.8,0,0,1-9.54,7c-6.53,3.85-15,7.46-18.64,14.55-2.31,4.46-1.95,9.28-.17,13.88,1.1,2.86,2.57,5.71,2.73,8.82a16.79,16.79,0,0,1-1.47,7.62A44.09,44.09,0,0,1,215,277.57a48.07,48.07,0,0,1-11.3,9.43c-9.65,5.94-20.78,9.26-31.91,11-11.62,1.84-23.31,1.46-35,.37-10.14-.95-21.71-2.67-29.36-10.06a24.62,24.62,0,0,1-7.12-15c-.71-5.55-.58-11.25-2.76-16.51A24.57,24.57,0,0,0,92.2,249c-2.28-2.28-5.81,1.25-3.54,3.54a18.87,18.87,0,0,1,4.8,7.72,38.13,38.13,0,0,1,1.36,8.16c.54,6.27,1.23,12.46,4.6,17.94,6.19,10.06,17.66,14.24,28.8,16,5.88.94,11.83,1.37,17.77,1.76a119.54,119.54,0,0,0,18.54-.19c12.18-1.08,24.32-3.88,35.38-9.18a63.05,63.05,0,0,0,13.94-9,61.09,61.09,0,0,0,9.27-10.52c3.29-4.53,5.87-9.94,5.72-15.66-.09-3.45-1.29-6.51-2.56-9.67-1-2.54-1.95-5.13-1.65-7.91a9.77,9.77,0,0,1,1.61-4.19,17.78,17.78,0,0,1,3.52-3.74c3-2.5,6.86-4.54,10.37-6.56,7.8-4.47,16.51-9.82,18.36-19.37,2.27-11.77-2.93-24.35-10.36-33.29A48.74,48.74,0,0,0,219.67,158a45,45,0,0,0-8.58-.68l2.5,2.5c1.23-9.44,7.17-17.45,13-24.63,6.28-7.7,13.25-15.26,17.3-24.46,8.33-18.93,4.47-42.56-10.2-57.34a52.25,52.25,0,0,0-26.18-14,52.93,52.93,0,0,0-15.22-1,62,62,0,0,0-15.07,3.56c-2.1.71-4.89,1.66-6.76,0-1.72-1.56-2.44-4.32-3.46-6.35a63.63,63.63,0,0,0-8.46-12.65A66.24,66.24,0,0,0,134,4.9C114.4-3.4,91.42-.95,73.65,10.7a63.51,63.51,0,0,0-12,10.18c-3.28,3.6-6.2,7.52-9.15,11.41-5.33,7-11,14.75-19.17,18.63-4.72,2.23-9.64,1.89-14.7,2.42-5.68.6-10.3,3.08-13.37,8C2.48,65.74,1.37,71,.67,76.11A71.4,71.4,0,0,0,.45,93.88a73,73,0,0,0,4.09,17.31c2.1,5.62,5.17,10.64,7.79,16a24.46,24.46,0,0,1,2.53,7.61,17.24,17.24,0,0,1-1.14,7.94c-1.83,5.08-5,9.63-6.32,14.91-2.78,10.77,2.69,22.1,11,28.93a52.79,52.79,0,0,0,15.13,8.48c2.77,1.06,5.61,1.94,8.47,2.73,2.63.73,5.33,1.27,7.91,2.19A8.62,8.62,0,0,1,55,203.92a12.48,12.48,0,0,1,.87,5.35,55.08,55.08,0,0,0,2.45,16.58,41.62,41.62,0,0,0,6.31,12.22c3.15,4,7.3,6.36,12,8,4.43,1.57,8.56,3.06,12,6.4C91,254.74,94.52,251.21,92.2,249Z"/><path class="cls-2" d="M114.75,102A68.73,68.73,0,0,1,88.5,69.16c-4.83-12.42-6.76-25.72-7.44-39-.34-6.53-.49-13.1-.4-19.64,0-3.22-5-3.22-5,0A224.64,224.64,0,0,0,77.89,48.3c2.24,14.32,6.91,28.57,15.56,40.34a72.88,72.88,0,0,0,18.77,17.71c2.7,1.77,5.21-2.56,2.53-4.32Z"/><path class="cls-2" d="M133.84,96.78c-11.8-7-16.56-21.68-19-34.38a99.88,99.88,0,0,1,2-46.3,49,49,0,0,1,2.35-6.8l2.09-4.9A2.58,2.58,0,0,0,120.31,1a2.52,2.52,0,0,0-3.42.9A108.35,108.35,0,0,0,112.79,12a104.46,104.46,0,0,0-4.58,24.47c-1.07,15.72,1.2,32.45,7.89,46.82,3.35,7.19,8.31,13.76,15.22,17.85,2.77,1.65,5.29-2.67,2.52-4.31Z"/><path class="cls-2" d="M145.1,112A73.24,73.24,0,0,1,152,57.18,70.93,70.93,0,0,1,157.42,49c1-1.31,2.07-2.54,3-3.9l5.81-8.48a2.5,2.5,0,1,0-4.32-2.53l-5.28,7.71-1.06,1.56-.23.33c-.07.1.65-.75-.13.12-.35.39-.66.82-1,1.23a75.86,75.86,0,0,0-5.74,8.28,79,79,0,0,0-10.89,38,75.53,75.53,0,0,0,2.69,22.08c.85,3.09,5.68,1.78,4.82-1.33Z"/><path class="cls-2" d="M160.56,127.53c-1.12-16.89-2.3-34.39,3.41-50.65a50.42,50.42,0,0,1,11-18.4c2.42-2.49,5.08-4.79,7.61-7.16l8-7.5c2.36-2.2-1.18-5.74-3.53-3.54-4.78,4.47-9.61,8.89-14.35,13.4C161.08,64.75,156.21,80.94,155,96.54c-.81,10.33-.12,20.68.56,31a2.56,2.56,0,0,0,2.5,2.5,2.51,2.51,0,0,0,2.5-2.5Z"/><path class="cls-2" d="M164.52,137.86c.08-8.54,5.65-15.81,11-22A145.28,145.28,0,0,1,194,98a142.7,142.7,0,0,1,21.25-14.19c1.9-1,3.83-2,5.78-3,.14-.07,1.28-.64.73-.38l.09,0,.54-.22,5.08-2.1,11.6-4.76a2.59,2.59,0,0,0,1.74-3.08,2.52,2.52,0,0,0-3.07-1.75c-7.64,3.14-15.48,6-22.79,9.82a147.71,147.71,0,0,0-42.05,33c-6.61,7.49-13.32,16.17-13.42,26.63,0,3.22,5,3.22,5,0Z"/><path class="cls-2" d="M176.32,146c3.48-11.26,14-18.42,23.46-24.38a319.75,319.75,0,0,1,37.53-20.23,5.89,5.89,0,0,1,1.52-.57l2.69-.76,4.23-1.2c3.1-.88,1.78-5.7-1.32-4.82-2.57.73-5.21,1.33-7.73,2.19a46,46,0,0,0-4.47,2q-2.55,1.19-5.08,2.42-4.85,2.37-9.61,4.89-9.73,5.17-19.09,11A107.38,107.38,0,0,0,183,127.72c-5.14,4.64-9.4,10.29-11.46,17-.95,3.08,3.87,4.4,4.82,1.33Z"/><path class="cls-2" d="M185,160.21a43.46,43.46,0,0,0,28.91-7c2.66-1.78.16-6.11-2.53-4.32A39.11,39.11,0,0,1,185,155.21a2.51,2.51,0,0,0-2.5,2.5,2.56,2.56,0,0,0,2.5,2.5Z"/><path class="cls-2" d="M188.85,174.44a38.82,38.82,0,0,0,23,1.88,38,38,0,0,0,10.88-4.2c1-.58,1.94-1.34,3-1.85.79-.38,1.6-.71,2.4-1.07l5.38-2.39a2.52,2.52,0,0,0,.9-3.42,2.56,2.56,0,0,0-3.42-.9l-4.28,1.91a25.76,25.76,0,0,0-4.31,2,34.12,34.12,0,0,1-20.42,5.8,33.52,33.52,0,0,1-11.8-2.63,2.53,2.53,0,0,0-3.08,1.75,2.58,2.58,0,0,0,1.75,3.08Z"/><path class="cls-2" d="M167.53,215.94c17.21,10.22,20.9,32.74,24.35,50.74q2.15,11.25,4.3,22.51a2.53,2.53,0,0,0,3.07,1.75,2.56,2.56,0,0,0,1.75-3.08c-2.35-12.31-4.37-24.73-7.27-36.92-2.32-9.75-5.53-19.72-11.45-27.93a40.79,40.79,0,0,0-12.23-11.39c-2.77-1.65-5.29,2.67-2.52,4.32Z"/><path class="cls-2" d="M177.87,202.45c2.09,9.54,9.24,17.08,17.42,22A80.09,80.09,0,0,0,210,230.94a56,56,0,0,0,9.7,2.82l7.32,1.17a2.57,2.57,0,0,0,3.07-1.74,2.52,2.52,0,0,0-1.74-3.08l-6-1c-1-.17-2.1-.32-3.15-.51a35.89,35.89,0,0,1-4.7-1.45c-9-3-18.21-6.57-24.91-13.57a26.32,26.32,0,0,1-6.9-12.5c-.69-3.15-5.51-1.82-4.82,1.32Z"/><path class="cls-2" d="M116.76,202.87c6.65,19.16,3.92,40.92-6.62,58.17a64.63,64.63,0,0,1-10.78,13.32c-2.35,2.21,1.19,5.74,3.53,3.53,15.67-14.83,23.86-37,22.32-58.45a69.78,69.78,0,0,0-3.63-17.9,2.55,2.55,0,0,0-3.07-1.74,2.52,2.52,0,0,0-1.75,3.07Z"/><path class="cls-2" d="M132.26,295.35a205.52,205.52,0,0,1,10.25-67.69c.52-1.56,1.05-3.12,1.61-4.68.1-.29.2-.59.31-.88-.11.31-.06.09,0,0,.1-.23.21-.45.32-.68l1.64-3.56a2.58,2.58,0,0,0-.9-3.42,2.52,2.52,0,0,0-3.42.9,89.41,89.41,0,0,0-3.45,8.29q-2.86,8.35-5,16.93a211.55,211.55,0,0,0-5.7,35q-.78,9.87-.6,19.76c0,3.22,5,3.23,5,0Z"/><path class="cls-2" d="M48,200.05c7.14,1.57,14.24-.85,20.14-4.87s10.51-9.52,15.54-14.55a47.93,47.93,0,0,1,9.12-7.45c2.76-1.66.25-6-2.52-4.32-7.54,4.53-12.92,11.53-19.2,17.52-5.65,5.38-13.56,10.65-21.75,8.85-3.14-.69-4.48,4.13-1.33,4.82Z"/><path class="cls-2" d="M102.68,178.7a153.39,153.39,0,0,0-21.88,24,149.09,149.09,0,0,0-8.86,13.53c-1.35,2.33-2.64,4.69-3.87,7.1-.61,1.2-1.14,2.45-1.76,3.64-.42.81-1.5,1.82-2.13,2.72-1.49,2.09-2.82,6.15.18,7.72,2.85,1.5,5.38-2.82,2.53-4.32-.36-.18.6.56.24.17.36.39.26.18.41.7-.14-.51-.06.65,0,0,0-.32-.21.54,0-.11s-.07,0,.15-.4A12.65,12.65,0,0,1,69.49,231c1.58-1.76,2.39-4.19,3.48-6.29s2.35-4.37,3.61-6.51a146.47,146.47,0,0,1,17.55-24,150.06,150.06,0,0,1,12.09-12c2.41-2.14-1.13-5.66-3.54-3.54Z"/><path class="cls-2" d="M13.06,160.14a101.91,101.91,0,0,1,51.83-15.59,103.37,103.37,0,0,1,15.53.83,2.51,2.51,0,0,0,2.5-2.5,2.57,2.57,0,0,0-2.5-2.5,106.83,106.83,0,0,0-55.74,8,103,103,0,0,0-14.14,7.44c-2.72,1.72-.21,6,2.52,4.32Z"/><path class="cls-2" d="M3.15,103.42a81.49,81.49,0,0,0,27.9,10.71c9.91,1.82,20,2.06,30,3.42A78.14,78.14,0,0,1,77.4,121.4a2.5,2.5,0,1,0,1.33-4.82c-9.44-3.45-19.51-4.36-29.45-5.25s-19.61-1.92-29-5.21a76.84,76.84,0,0,1-14.63-7c-2.75-1.69-5.26,2.63-2.52,4.31Z"/><path class="cls-3" d="M147.82,215.43c-13.13,1.73-25.16-6.89-35.52-15.15-11.66-9.29-23.36-18.85-32.19-30.87S65.5,142.48,67.24,127.67a31.39,31.39,0,0,1,5-14.38c4.93-7.08,13.29-11,21.6-13.31,13.86-3.85,29.05-4,42.33,1.51,14.38,6,25.27,18,35.65,29.61,7.24,8.1,14.7,16.61,17.5,27.09,1.53,5.73,1.58,11.73,1.59,17.66,0,10.05-.28,20.85-6.26,28.93-9.4,12.68-27.94,12.95-43.69,12"/><path class="cls-2" d="M147.82,212.93c-12.62,1.56-23.73-6.47-33.1-13.9-10.26-8.13-20.55-16.46-29-26.52-8-9.56-14.42-21.21-15.94-33.76A40.52,40.52,0,0,1,71.58,120a24.94,24.94,0,0,1,11-12.71,54.36,54.36,0,0,1,16.69-6.06,68.07,68.07,0,0,1,19.52-1.35,52.8,52.8,0,0,1,18.06,4.59,66.71,66.71,0,0,1,15.21,10,151.66,151.66,0,0,1,13.31,13.16c4.14,4.52,8.31,9.07,12.13,13.87s7.15,10,9,15.77c2.06,6.46,2,13.3,2,20,0,10.94-.78,23.45-10.28,30.62-8.22,6.19-19.39,6.87-29.29,6.71-2.63,0-5.25-.16-7.87-.32-3.22-.2-3.21,4.8,0,5,11.18.67,23.08.85,33.57-3.63a29.47,29.47,0,0,0,12.74-10.25c3.69-5.32,5.14-11.81,5.74-18.15a123.85,123.85,0,0,0,.17-20.29,45.51,45.51,0,0,0-5.87-19.9c-3.31-5.77-7.66-10.88-12-15.84s-8.68-9.77-13.32-14.37c-9.42-9.34-20.33-17.35-33.45-20.45A71.08,71.08,0,0,0,88,99.27c-5.86,2.2-11.59,5.33-15.76,10.1-4.58,5.26-6.76,11.88-7.5,18.73-1.47,13.6,3.26,27.34,10.57,38.67,7.57,11.72,18,21.22,28.71,30,5.29,4.34,10.61,8.73,16.29,12.56,5.44,3.67,11.47,6.91,18,8.19a30.05,30.05,0,0,0,9.6.42,2.58,2.58,0,0,0,2.5-2.5,2.51,2.51,0,0,0-2.5-2.5Z"/><path class="cls-4" d="M54.38,87.1c-1.06-2-4.56-1.08-5.73-3.41-1-2,.56-4.47.77-4.81a8.6,8.6,0,0,1,15.66,5.59c-.33,4.5-4.74,6.9-3.87,8.37s6.43-.85,7.13.46c.61,1.15-2.49,5.07-6.67,5.9-3.78.74-8.45-1-9.3-3.88C51.43,92.2,55.64,89.52,54.38,87.1Z"/><path class="cls-5" d="M158.87,263.67c2.26-2.65-1-7.68,1.63-10.65,2.19-2.49,6.53-1.26,7.11-1.09,5.51,1.64,10.5,8.87,9.85,15.94a12.92,12.92,0,0,1-9.13,11.32c-6.44,1.64-12.17-4.12-13.75-2.06-1.72,2.26,4.68,9.69,3.23,11.42-1.27,1.52-8.4-1.46-11.82-7.63-3.09-5.58-3.14-13.77.35-16.47C150.18,261.48,156.19,266.8,158.87,263.67Z"/><path class="cls-6" d="M192.36,61.44c2-2.2-.69-6.24,1.61-8.71,1.93-2.07,5.64-1.15,6.14-1,4.72,1.24,8.88,7,8.2,12.81a11.36,11.36,0,0,1-8.07,9.4c-5.59,1.45-10.42-3.14-11.81-1.43-1.53,1.87,3.84,7.81,2.56,9.25-1.12,1.26-7.2-1-10-6-2.56-4.49-2.46-11.16.6-13.42C184.92,59.82,190,64,192.36,61.44Z"/><path class="cls-7" d="M88,160.52s24.76-34.39,40.59-12.38,37.14-17.89,37.14-17.89-15.82,38.53-4.81,45.4-39.21,7.57-39.21,7.57Z"/><path class="cls-8" d="M129.83,109a20.84,20.84,0,0,0,4.63,13.49c4.55,5.24,11.7,6.11,18.24,6.51a44.15,44.15,0,0,0,11.18-.75c.4-.08.23-.69-.17-.61a43.87,43.87,0,0,1-12.21.64c-4.07-.36-8.38-.75-12.07-2.66-6.14-3.19-8.9-10-9-16.62a.32.32,0,0,0-.63,0Z"/><path class="cls-8" d="M163.63,127.67a28.24,28.24,0,0,0-14.89,23.78c0,.41.62.41.63,0A27.62,27.62,0,0,1,164,128.22c.37-.19.05-.74-.32-.55Z"/><path class="cls-8" d="M149.14,151.43c-8.63-3.33-17.12,1.84-23.53,7.27-.31.26.14.71.45.45,6.24-5.29,14.49-10.36,22.91-7.1.38.14.54-.47.17-.62Z"/><path class="cls-8" d="M125.77,159.21c1.37-5.23-.48-10.56-2.72-15.27-2.11-4.42-5-8.57-9.19-11.22-.34-.22-.66.33-.32.55,4,2.52,6.74,6.44,8.79,10.63,2.26,4.63,4.19,10,2.83,15.14a.32.32,0,0,0,.61.17Z"/><path class="cls-8" d="M129.84,108.91a54.45,54.45,0,0,1-16.36,23.86c-.32.26.13.7.45.45a55,55,0,0,0,16.52-24.14c.14-.38-.47-.55-.61-.17Z"/><path class="cls-8" d="M148.19,152.28a21.32,21.32,0,0,0,7.13,11.07c6.06,4.65,13.93,3.52,20.89,1.93a44.66,44.66,0,0,0,9.95-3.59c.36-.18,0-.73-.32-.55A43.5,43.5,0,0,1,174.69,165c-4.44.87-9.26,1.76-13.72.53-6.3-1.73-10.42-7.34-12.17-13.37a.32.32,0,0,0-.61.17Z"/><path class="cls-8" d="M185.77,161.19a28.26,28.26,0,0,0-8,26.91.32.32,0,0,0,.61-.17,27.61,27.61,0,0,1,7.81-26.29c.3-.28-.15-.73-.45-.45Z"/><path class="cls-8" d="M178.18,188c-9.19-.92-16,6.37-20.71,13.3-.23.34.32.66.54.32,4.59-6.76,11.2-13.89,20.17-13,.41,0,.4-.59,0-.63Z"/><path class="cls-8" d="M157.76,201.73c-.06-5.21-3.09-9.71-6.36-13.55s-7.27-7.29-12.22-8.77a.32.32,0,0,0-.17.61c4.73,1.42,8.54,4.67,11.71,8.34s6.34,8.22,6.41,13.37a.32.32,0,0,0,.63,0Z"/><path class="cls-8" d="M148.18,152.19a54.33,54.33,0,0,1-9.36,27.37c-.23.33.32.65.55.32a55,55,0,0,0,9.44-27.69c0-.4-.6-.4-.63,0Z"/><path class="cls-8" d="M105.48,147.76a21.28,21.28,0,0,0,7.13,11.08c6.06,4.65,13.93,3.51,20.89,1.92a44.4,44.4,0,0,0,9.94-3.59c.37-.18.05-.73-.32-.55A43.43,43.43,0,0,1,132,160.43c-4.45.87-9.26,1.76-13.73.53-6.29-1.73-10.41-7.33-12.16-13.37a.32.32,0,0,0-.61.17Z"/><path class="cls-8" d="M143.06,156.67a28.26,28.26,0,0,0-8,26.91c.09.4.7.23.61-.17a27.59,27.59,0,0,1,7.81-26.29c.3-.28-.15-.73-.45-.45Z"/><path class="cls-8" d="M135.47,183.46c-9.2-.92-16,6.37-20.72,13.3-.23.34.32.66.55.32,4.59-6.76,11.2-13.88,20.17-13,.4,0,.4-.59,0-.63Z"/><path class="cls-8" d="M115.05,197.22c-.07-5.22-3.1-9.72-6.36-13.56s-7.28-7.29-12.22-8.76a.32.32,0,0,0-.17.61c4.72,1.41,8.54,4.66,11.71,8.33s6.34,8.22,6.4,13.38a.32.32,0,0,0,.64,0Z"/><path class="cls-8" d="M105.47,147.68A54.43,54.43,0,0,1,96.11,175c-.23.34.32.65.55.32a55,55,0,0,0,9.44-27.68c0-.41-.6-.41-.63,0Z"/><path class="cls-8" d="M83.07,109.17a21.26,21.26,0,0,0,7.13,11.07c6.06,4.65,13.93,3.52,20.89,1.93a44.66,44.66,0,0,0,10-3.59c.36-.18,0-.73-.32-.55a43.63,43.63,0,0,1-11.15,3.81c-4.44.87-9.26,1.76-13.73.53C89.55,120.64,85.43,115,83.68,109a.32.32,0,0,0-.61.17Z"/><path class="cls-8" d="M120.65,118.08a28.26,28.26,0,0,0-8,26.91c.09.4.71.23.61-.17a27.61,27.61,0,0,1,7.81-26.29c.3-.28-.15-.73-.45-.45Z"/><path class="cls-8" d="M113.06,144.87c-9.2-.92-16,6.37-20.71,13.3-.23.34.31.66.54.32,4.59-6.76,11.2-13.88,20.17-13,.41,0,.4-.59,0-.63Z"/><path class="cls-8" d="M92.64,158.62c-.06-5.21-3.09-9.71-6.36-13.55S79,137.78,74.06,136.3a.32.32,0,0,0-.17.62c4.72,1.41,8.54,4.66,11.71,8.33s6.34,8.22,6.4,13.37a.32.32,0,0,0,.64,0Z"/><path class="cls-8" d="M83.06,109.08a54.33,54.33,0,0,1-9.36,27.37c-.23.34.32.65.55.32a55,55,0,0,0,9.44-27.69c0-.4-.6-.4-.63,0Z"/></g></g></svg>