<svg xmlns="http://www.w3.org/2000/svg" viewBox="0 0 3018.5 292.62"><defs><style>.cls-1{fill:#5bb030;}.cls-2{fill:#1d1e1b;}.cls-3{fill:none;}</style></defs><g id="Calque_2" data-name="Calque 2"><g id="Toad"><path class="cls-1" d="M324.63,147.82a143.57,143.57,0,0,0-24.46-38.21c-8.55-9.58-26.36-29-56.86-38.53-29.77-9.28-55.44-4-67-.91A53.94,53.94,0,0,0,159.84,45.4c-12.46-10.32-27-12.06-34.59-13a80,80,0,0,0-9.52-.56l-.27-.76A29.67,29.67,0,0,0,66,25.85a30.73,30.73,0,0,1-4.23,4.86,20.74,20.74,0,0,1-6,3c-6.66,2.45-13.44,5.13-18.71,9.88s-8.8,12.05-7.21,19l-3.18,2c-5,1.67-11,4.72-14,10.51-2,3.71-3.28,9.48,10.24,42.27,8.57,20.78,11.8,25,15.9,28.58,7.55,6.57,14.28,7.56,21.33,10.32,11.12,4.36,25.65,14.14,39.21,38.45L99,196A99.8,99.8,0,0,0,79.1,233.94c-4.24-5.85-9.72-12.34-16.93-11.95a3.8,3.8,0,0,0-2.17.65c-1.84,1.41-.68,4.33.69,6.2,4.65,6.3,10.47,12,13,19.43,2.07,6.11,1.7,12.88,4,18.89A22.5,22.5,0,0,0,94.9,280.91c9.22,1.42,18.18-3,27.28-5.1,13.22-3,27-1,40.46.8,3,.39,6.72.35,8-2.35,1.53-3.27-2.25-6.43-5.51-8A135.92,135.92,0,0,0,128.48,255c-1.68-.27-3.38-.51-5.07-.74,9.77-16.44,16.94-34.21,24.73-51.67,3.74-8.38-6.7,22.22-6.7,22.22a42.64,42.64,0,0,0,31.23,6.26,59.42,59.42,0,0,0,8.89-2.4c9.14-3.27,46.16-5.79,46.16-5.79l96.91-75.05"/><path class="cls-2" d="M326.79,146.56a152.52,152.52,0,0,0-40.18-54,119.84,119.84,0,0,0-75.42-29.16,125.85,125.85,0,0,0-35.5,4.38l3.07,1.75A56.58,56.58,0,0,0,162,44c-8.59-7.27-19.16-11.38-30.18-13.16a102.56,102.56,0,0,0-16.12-1.46l2.41,1.84a25.44,25.44,0,0,0-6-8.93,32.53,32.53,0,0,0-9-6.56,31.81,31.81,0,0,0-22.88-2A32.94,32.94,0,0,0,69.5,19.07a32.45,32.45,0,0,0-4,3.58c-1.54,1.65-2.74,3.57-4.3,5.2-2.82,2.95-7.39,3.83-11.07,5.32a53.69,53.69,0,0,0-11.84,6.21c-7.45,5.47-12.85,14.3-10.83,23.8l1.14-2.82L26,61.94c-.17.1-.33.22-.49.3s.21-.08-.27.08a29.8,29.8,0,0,0-2.93,1.17,25.56,25.56,0,0,0-9.45,6.75A15.41,15.41,0,0,0,9,78.4a27.35,27.35,0,0,0,.81,8.91,126.53,126.53,0,0,0,5.29,17c3.18,8.61,6.66,17.15,10.46,25.5,2.1,4.6,4.28,9.3,7.33,13.36a34.83,34.83,0,0,0,11.78,9.74c6.09,3.16,13,4.56,18.83,7.5,12.63,6.31,22.3,17.15,29.76,28.93q2,3.21,3.88,6.53l-.25-1.93-.34,1.44.64-1.11a103.63,103.63,0,0,0-20.51,39l4.57-.59c-4.17-5.73-9.33-12.17-16.85-13.09-3.73-.46-8,.9-7.85,5.38.14,3.79,3.29,6.91,5.52,9.68A81,81,0,0,1,69,244a31.6,31.6,0,0,1,3.79,11.35c.66,4.18,1,8.46,2.57,12.43a24.53,24.53,0,0,0,5.91,8.89,25.44,25.44,0,0,0,20.55,6.79c8.64-.94,16.6-4.77,25.17-6.06,9.05-1.36,18.33-.52,27.36.58,5.47.67,18.52,4.2,19.15-4.93.28-4.09-3.59-7.23-6.88-8.86A122.62,122.62,0,0,0,153,258.64a147.6,147.6,0,0,0-29-6.8l1.49,3.67a296.46,296.46,0,0,0,15-29.71c2.24-5,4.42-10,6.61-15,1.05-2.37,2.07-4.76,3.15-7.12.13-.28.28-.55.4-.83,0-.08.14-.2.15-.28l.06-.09a2.37,2.37,0,0,1-1.4,1.06l-1.92-.26h0l-.9-.9a2.14,2.14,0,0,1-.27-1.56,2.87,2.87,0,0,0-.14.66c-.16.64-.35,1.27-.54,1.91-.57,1.92-1.18,3.82-1.79,5.73-1.32,4.07-2.68,8.14-4.05,12.2-.31.93-.63,1.87-.95,2.81a2.53,2.53,0,0,0,1.15,2.82c12.34,8.07,27.45,9.09,41.24,4.4,7.64-2.61,16-3.21,24-4.05,7.22-.76,14.45-1.32,21.69-1.89a5.15,5.15,0,0,0,2.88-1.17L233,222l30.3-23.46,39.9-30.91,15.28-11.83c2.52-1.95,5.17-3.82,7.61-5.89.11-.1.24-.19.36-.28a2.52,2.52,0,0,0,0-3.54,2.57,2.57,0,0,0-3.54,0l-9.61,7.45-23.2,18-28,21.65-24.18,18.73-8,6.18c-1.25,1-2.63,1.87-3.8,2.94l-.18.14,1.77-.74q-12,.82-24.05,2.13c-5.63.61-11.26,1.27-16.82,2.3s-10.61,3.19-16.12,4.07a40.27,40.27,0,0,1-28-6.22l1.15,2.82c2.28-6.67,4.56-13.35,6.6-20.09a29.53,29.53,0,0,0,.9-3.35c.5-2.93-3-4.72-4.75-2a15,15,0,0,0-.86,1.81q-1.55,3.48-3.07,7c-2,4.56-4,9.12-6,13.66A301.63,301.63,0,0,1,121.25,253c-.73,1.24-.14,3.44,1.5,3.67a151.16,151.16,0,0,1,23,4.84q5.49,1.67,10.84,3.78c3.21,1.27,6.84,2.49,9.65,4.54,1.59,1.15,3.63,3.65.59,4.32s-6.53-.36-9.5-.74c-8-1-16.11-1.93-24.21-1.54A65.86,65.86,0,0,0,121,273.53c-3.68.87-7.25,2.08-10.88,3.13-6.56,1.89-13.72,3.28-20.14.12a20.43,20.43,0,0,1-10.94-14c-.85-3.6-1.13-7.3-1.83-10.93a32.75,32.75,0,0,0-3.91-10.37,78.11,78.11,0,0,0-6.69-9.19c-1.26-1.56-2.57-3.11-3.73-4.75a8.4,8.4,0,0,1-1.07-1.86c-.09-.24-.14-.49-.22-.74-.14-.44.15-.52-.09-.3.78-.74,3.3,0,4.2.28a13.51,13.51,0,0,1,4.13,2.29,38.91,38.91,0,0,1,7.14,8,2.54,2.54,0,0,0,4.57-.6A98.44,98.44,0,0,1,94.57,206c1.46-2.19,3-4.32,4.64-6.37,1.21-1.5,2.37-2.74,2.55-4.72.13-1.42-1-2.76-1.63-3.94s-1.48-2.49-2.25-3.71c-1.43-2.28-2.93-4.52-4.51-6.69-9-12.41-20.56-22.68-35.18-27.8-4.35-1.52-8.75-2.82-12.74-5.19a31.56,31.56,0,0,1-7-5.49c-.28-.3-.55-.61-.82-.93l-.39-.47c-.36-.44.16.24-.18-.23-.64-.87-1.24-1.75-1.8-2.67A85.59,85.59,0,0,1,31,129.72c-4.35-9.19-8.17-18.69-11.64-28.24-2.1-5.8-4.2-11.75-5.19-17.86l-.12-.76c.07.49,0,.13,0-.15S14,81.89,14,81.47a18,18,0,0,1,0-2.08c0-.28.05-.55.07-.82s-.13.65,0,.18c0-.15,0-.3.08-.45.11-.45.25-.87.38-1.31.19-.64-.19.32,0,0,.09-.16.16-.35.25-.52A15.73,15.73,0,0,1,18,72.08a22.49,22.49,0,0,1,5.46-3.63c1.52-.75,3.24-1.15,4.71-2,1-.56,2-1.21,2.94-1.81a2.59,2.59,0,0,0,1.15-2.82c-1.5-7,2.91-13.9,8.32-18A46.35,46.35,0,0,1,51,38.19c3.56-1.47,7.53-2.43,10.83-4.44s5.19-5.52,7.9-8.24a27.77,27.77,0,0,1,8.45-5.77,27,27,0,0,1,19.64-.86,27.59,27.59,0,0,1,9.51,5.65c2.36,2.15,5,5.14,6,8a2.57,2.57,0,0,0,2.41,1.83,84,84,0,0,1,26,4,49.39,49.39,0,0,1,26.12,19.85,55,55,0,0,1,6.05,12.64A2.54,2.54,0,0,0,177,72.58a117.47,117.47,0,0,1,72.26,3.2,114.13,114.13,0,0,1,31.44,18.3,157.91,157.91,0,0,1,18.31,18,142.18,142.18,0,0,1,23.45,37,2.51,2.51,0,0,0,3.42.9,2.57,2.57,0,0,0,.9-3.42Z"/><path class="cls-2" d="M64.78,44.76c4.67.14,9.11-2,13.6-3a38.76,38.76,0,0,1,10.41-1,31.75,31.75,0,0,1,9.38,1.58,34.22,34.22,0,0,0,10.74,2.16,41.39,41.39,0,0,0,13-1.72c3.08-.9,1.77-5.73-1.33-4.82a37,37,0,0,1-10.71,1.56A29.13,29.13,0,0,1,99.74,37.6a35.78,35.78,0,0,0-10-1.8,42.76,42.76,0,0,0-10.29.62,60.25,60.25,0,0,0-7.27,1.79c-2.43.74-4.82,1.63-7.39,1.55-3.22-.09-3.22,4.91,0,5Z"/><path class="cls-2" d="M193.27,146.77c10.17-6,12.74-19.25,11.42-30.17-1.48-12.32-7.76-22.83-15-32.61-4-5.39-8.27-10.62-12.11-16.15a2.56,2.56,0,0,0-3.42-.9,2.52,2.52,0,0,0-.89,3.42c6.39,9.21,14,17.61,19.64,27.33,5.56,9.55,8.94,21.07,6.28,32.09-1.22,5.08-3.8,9.94-8.41,12.68-2.76,1.64-.25,6,2.53,4.31Z"/><path class="cls-2" d="M119.18,84c-.29-1.85,1.09-3.74,2.29-5a17.28,17.28,0,0,1,5.09-3.53c3.93-1.87,8.39-2.6,12.65-3.33a2.5,2.5,0,0,0-1.33-4.82c-5.15.88-10.39,1.9-15,4.43-4.91,2.69-9.47,7.59-8.51,13.56A2.5,2.5,0,0,0,119.18,84Z"/><path class="cls-1" d="M246,216.75l-14-4c-3.61-1-8.67-1.38-9.94,2.15-1.21,3.36,2.48,6.3,5.62,8L241.15,230a2.92,2.92,0,0,1,1.3,1.07c.8,1.51-1.25,2.88-2.87,3.38a243.7,243.7,0,0,0-49.3,21.4c-2.94,1.69-6,3.58-7.58,6.57s-1,7.38,2,8.87c2.2,1.09,4.81.36,7.14-.39l41.21-13.16a10.09,10.09,0,0,1,4.89-.71c4.75.9,5.62,7.37,4.68,12.12s-2.26,10.47,1.29,13.76l.89-.23c2.51-6.06,7.75-10.48,12.8-14.66,5.53-4.58,11.16-9.22,17.75-12.09,11-4.79,23.49-4.25,35-7.33a57.83,57.83,0,0,0,31.4-21.41c4.82-6.56,8.2-14.07,11-21.73,4.21-11.64,7.13-24.17,5-36.37-.77-4.47-2.29-9-5.33-12.34-4.74-5.28-12.23-6.94-19.24-8.1-14.59-2.42-29.55-3.9-44.13-1.43s-28.88,9.25-38,20.9a47.77,47.77,0,0,0-8.57,40.39c1.25,5,3.48,10,7.48,13.27a24.59,24.59,0,0,0,8,4.06c11.42,3.76,23.92,3.23,35.58.29s22.58-8.21,33.19-13.86"/><path class="cls-2" d="M246.7,214.34l-9.33-2.66a54.36,54.36,0,0,0-7.73-2,11.74,11.74,0,0,0-6.63.74,6.42,6.42,0,0,0-3.64,5.6c-.09,5.88,6.66,8.74,11,11.05l8.23,4.38a12.75,12.75,0,0,0,1.9,1c-.32.21-.37-1.13-.34-1.11a6.41,6.41,0,0,0-.93.53c-.79.34-1.68.53-2.5.8a247.38,247.38,0,0,0-33.47,13.43c-5.29,2.58-10.56,5.29-15.59,8.33-4.34,2.62-8.62,6.48-8.31,12a8.42,8.42,0,0,0,2.82,6.1c2.41,2,5.53,2,8.44,1.28s6-1.87,9-2.83l9.47-3,18.48-5.9,4.26-1.37a23.08,23.08,0,0,1,4.66-1.31c1.81-.15,2.66.7,3.32,2.24a12,12,0,0,1,.61,5.19c-.12,1.94-.75,4.21-1,6.31a16.53,16.53,0,0,0,.32,7.6,10,10,0,0,0,1.75,3.14,3.17,3.17,0,0,0,3.58,1.29c1.54-.42,1.94-1.41,2.6-2.72a23.37,23.37,0,0,1,2.09-3.37,37.21,37.21,0,0,1,5.2-5.52,135.22,135.22,0,0,1,12.79-10.36,46.54,46.54,0,0,1,15.4-7.3c5.59-1.43,11.35-2,17.06-2.85a76.47,76.47,0,0,0,16.17-3.77,60,60,0,0,0,13.81-7.29,63.74,63.74,0,0,0,20.55-25c5.19-10.91,9.19-22.94,10.13-35,.84-10.89-.85-24.1-10.8-30.51-4.26-2.74-9.32-4-14.25-4.9-6.13-1.11-12.33-2-18.53-2.53-22.36-2-47,1.25-63.7,17.63a49.61,49.61,0,0,0-14.2,27.57,51.3,51.3,0,0,0,0,16c.81,5.13,2.43,10.42,5.55,14.64,3.57,4.82,8.76,7.34,14.42,9a60,60,0,0,0,18,2.12c12.16-.36,23.87-3.94,34.95-8.78,5.37-2.35,10.6-5,15.78-7.76,2.84-1.51.32-5.83-2.52-4.31-13.23,7-27.22,13.69-42.28,15.42a58.8,58.8,0,0,1-22-1.33,26.63,26.63,0,0,1-9.32-4.07,18.24,18.24,0,0,1-5.5-7.58c-4.82-11.67-3.27-25.89,2.66-36.84,6.13-11.31,17.07-19.06,29.08-23.17,14.26-4.89,29.58-4.75,44.39-2.95,6.8.82,14,1.6,20.44,4a17.07,17.07,0,0,1,11.65,12.95c3.86,14.42-.84,30.12-6.31,43.48a68.66,68.66,0,0,1-10.53,18.23,55.75,55.75,0,0,1-14.52,12.28A57.21,57.21,0,0,1,305,247.28c-7.13,1.37-14.41,1.84-21.5,3.45a52.29,52.29,0,0,0-19.55,9.11c-2.89,2.13-5.65,4.4-8.41,6.69a71.7,71.7,0,0,0-7.45,6.81,28.71,28.71,0,0,0-5.43,8.1l1.49-1.15-.89.23,2.43.64c-1.9-1.86-1.74-4.72-1.4-7.18.4-3,1.27-5.81,1.18-8.82a13.12,13.12,0,0,0-2.57-7.92c-2.22-2.72-5.71-3.19-9-2.35-4,1-8,2.52-12,3.79l-12.07,3.85-12.08,3.86-5.92,1.89c-1.63.52-3.5,1.31-5.24,1.05-2.2-.33-2.63-2.79-2.15-4.64.73-2.79,3.62-4.64,6-6.06a217,217,0,0,1,20.66-10.69q10.59-4.86,21.62-8.64,2.73-.93,5.47-1.8a15.31,15.31,0,0,0,4.67-2,4.52,4.52,0,0,0,2-4.82c-.56-2-2.44-2.78-4.08-3.65l-11.05-5.88c-1.7-.91-5.94-2.92-5.46-5.28.13-.65.58-.94,1.33-1.15a8.52,8.52,0,0,1,3.23-.12,32.26,32.26,0,0,1,4.53,1.13l6.06,1.74,5.83,1.66c3.1.89,4.42-3.94,1.33-4.82Z"/><path class="cls-2" d="M25.42,66.63c15.39,6.91,30.87,13.87,45,23.13C73.9,92,77.27,94.39,80.5,97A73.73,73.73,0,0,0,87.25,102a46.72,46.72,0,0,0,21.63,6.91c8.54.55,16.94-1.52,24.71-5a2.52,2.52,0,0,0,.89-3.42,2.55,2.55,0,0,0-3.42-.9A48.7,48.7,0,0,1,111.17,104a41.49,41.49,0,0,1-20.76-5.93,47.64,47.64,0,0,1-6-4.39q-4.89-3.91-10.12-7.4A204.13,204.13,0,0,0,53,74.06c-8.24-4.18-16.66-8-25.09-11.75a2.57,2.57,0,0,0-3.42.9,2.51,2.51,0,0,0,.9,3.42Z"/><path class="cls-1" d="M750,149.17c-.89-12.72-10.79-23.43-24.46-38.22C715.16,99.7,698,81.55,668.69,72.43c-29.77-9.28-55.44-4.06-67-.92a53.87,53.87,0,0,0-16.51-24.76c-12.46-10.32-27-12.07-34.59-13a77.89,77.89,0,0,0-9.52-.56l-.27-.76a29.65,29.65,0,0,0-49.45-5.26,30.66,30.66,0,0,1-4.23,4.85,20.49,20.49,0,0,1-6,3c-6.66,2.45-13.44,5.13-18.71,9.88s-8.8,12-7.21,19l-3.18,2c-5,1.68-11,4.72-14.05,10.51A13.13,13.13,0,0,0,437.3,78c-12.36,32.66-11,48.62-11,48.62.51,6.06,2.69,21.83,13.75,35.77,2.19,2.76,7.58,7.34,18.35,16.51,12.05,10.26,17.48,13.82,24.3,16.51a59.13,59.13,0,0,0,12.39,3.44,60.59,60.59,0,0,0,29.61-2.86l-.34,1.44a99.83,99.83,0,0,0-19.87,37.9c-4.23-5.85-9.72-12.34-16.93-11.95a3.88,3.88,0,0,0-2.17.65c-1.84,1.41-.68,4.34.7,6.2,4.64,6.3,10.46,12,13,19.44,2.07,6.11,1.7,12.87,4.05,18.88a22.48,22.48,0,0,0,17.18,13.75c9.22,1.42,18.18-3,27.28-5.1,13.23-3,27-1,40.46.8,3,.39,6.72.35,8-2.35,1.53-3.26-2.25-6.43-5.51-8a135.82,135.82,0,0,0-36.63-11.3c-1.68-.27-3.38-.5-5.07-.74,9.77-16.44,16.94-34.21,24.73-51.67,3.74-8.38-6.7,22.23-6.7,22.23a42.63,42.63,0,0,0,31.23,6.25,59.55,59.55,0,0,0,8.89-2.39c9.09-3.25,23.41-6.42,46.16-5.79C712.62,207.05,751.91,176.22,750,149.17Z"/><path class="cls-2" d="M752.51,149.17c-1-12.76-9.81-23-18-32.11-7.15-8-14.4-16-22.51-23A119.13,119.13,0,0,0,636.09,64.7a125.87,125.87,0,0,0-35,4.4l3.07,1.74a56.61,56.61,0,0,0-16.93-25.68c-8.59-7.19-19.12-11.24-30.1-13a101,101,0,0,0-16-1.43l2.41,1.83c-2.34-6.73-8.78-12.43-15-15.48a31.83,31.83,0,0,0-23-2,33,33,0,0,0-10.76,5.45,31,31,0,0,0-4.16,3.77c-1.42,1.57-2.56,3.37-4,4.9-2.95,3.08-7.87,4-11.7,5.58a53.15,53.15,0,0,0-11.15,5.91c-7.48,5.47-12.91,14.32-10.89,23.84L454,61.7c-.89.55-1.78,1.09-2.67,1.65-.16.09-.31.21-.47.29.46-.23-.47.12-.61.17-1,.38-2,.79-3,1.24A25.23,25.23,0,0,0,437.17,73a25.36,25.36,0,0,0-3.06,6.41q-1.41,3.8-2.68,7.64c-1.44,4.35-2.75,8.75-3.88,13.2a130.26,130.26,0,0,0-3.43,18.47,47.58,47.58,0,0,0-.35,7.64c.76,13.52,6.09,27.82,14.83,38.17,4,4.73,9.22,8.62,13.91,12.62,6.67,5.69,13.3,11.67,20.78,16.31,13.85,8.6,31.19,10.57,46.85,6.51q2.64-.69,5.21-1.59l-3.07-3.07-.34,1.43.64-1.1a103.84,103.84,0,0,0-20.51,39l4.57-.6c-4.14-5.69-9.28-12.13-16.75-13.07-3.71-.47-8.13.79-7.95,5.33.15,3.8,3.26,6.9,5.5,9.69a80,80,0,0,1,6.88,9.4,31.11,31.11,0,0,1,3.78,11.28c.67,4.21,1,8.51,2.59,12.52a24.54,24.54,0,0,0,5.85,8.82,25.42,25.42,0,0,0,20.61,6.86c8.68-1,16.68-4.81,25.3-6.08,8.92-1.32,18.07-.52,27,.56,3.88.48,8.05,1.55,12,1.27,3.39-.25,6.73-1.89,7.34-5.55.69-4.18-3-7.51-6.38-9.26a103.79,103.79,0,0,0-13.43-5.62,147.6,147.6,0,0,0-29.48-7l1.49,3.67a296.68,296.68,0,0,0,15-29.61c2.25-5,4.44-10.05,6.65-15.08,1-2.38,2.07-4.77,3.15-7.14.13-.28.3-.57.41-.86,0,0,.12-.16.12-.22a.61.61,0,0,1,.07-.1,2.31,2.31,0,0,1-1.39,1h-1.32l-1.1-.64h0l-.64-1.1c-.11-.31-.1-.86-.09-.49,0-.88.12-.6,0-.31s-.15.61-.23.91c-.25,1-.54,1.91-.84,2.86-.82,2.69-1.7,5.38-2.58,8q-1.86,5.67-3.79,11.31a2.55,2.55,0,0,0,1.15,2.83,45.3,45.3,0,0,0,26,7.31,52.19,52.19,0,0,0,12.94-2.2c2.53-.74,5-1.7,7.53-2.44a103.31,103.31,0,0,1,18.44-3.52c4.31-.45,8.64-.69,13-.78,2.38-.05,4.76-.05,7.14,0a13.87,13.87,0,0,0,3.75-.2c1.34-.33,2.66-.78,4-1.18A246,246,0,0,0,706.92,205c12-6.73,23.7-14.84,32.81-25.23,7.36-8.4,13.53-19,12.78-30.59-.21-3.2-5.21-3.22-5,0,.59,9-3.58,17.51-9.3,24.65-8,10-18.57,17.81-29.5,24.35a226.29,226.29,0,0,1-45.6,20.34q-3,1-6.12,2c-1.13.34-2.26.73-3.41,1a16.58,16.58,0,0,1-4.23.18c-4.49-.05-9,.06-13.47.35a125.07,125.07,0,0,0-20.48,2.93c-6.61,1.55-12.87,4.36-19.62,5.34a40.48,40.48,0,0,1-27.7-6.28l1.15,2.82c2.29-6.7,4.59-13.41,6.63-20.18a17.06,17.06,0,0,0,1-3.91,2.57,2.57,0,0,0-4.82-1.36,10.45,10.45,0,0,0-.64,1.3c-1.09,2.41-2.14,4.84-3.2,7.26-2,4.65-4.08,9.32-6.16,14a301.34,301.34,0,0,1-15.37,30.45c-.73,1.24-.13,3.44,1.5,3.67a151.84,151.84,0,0,1,23.21,4.92q5.61,1.69,11,3.88c3.16,1.27,6.87,2.47,9.55,4.63,1.65,1.33,3,3.56,0,4.09-3.21.59-6.91-.47-10.09-.88-7.86-1-15.78-1.84-23.71-1.42a66,66,0,0,0-11.86,1.66c-3.63.86-7.17,2.06-10.76,3.09-6.6,1.91-13.8,3.33-20.25.14A20.46,20.46,0,0,1,504.36,264c-.82-3.52-1.1-7.14-1.77-10.69a32.84,32.84,0,0,0-3.68-10,75,75,0,0,0-6.76-9.4c-1.21-1.5-2.45-3-3.6-4.55a10.51,10.51,0,0,1-1.37-2.24c-.1-.25-.23-1.23-.35-1.08.6-.78,3.38,0,4.18.25a13.36,13.36,0,0,1,4.16,2.3,38.67,38.67,0,0,1,7.15,8c1.21,1.67,4,1.63,4.57-.59a98.26,98.26,0,0,1,8.81-21.63,99.86,99.86,0,0,1,6.22-9.79c1.11-1.55,2.28-3.06,3.49-4.54a7.32,7.32,0,0,0,1.69-3.38c.41-1.74-1.19-3.73-3.08-3.08-14.73,5.1-31.29,4.65-45-2.6-6.35-3.34-11.93-8-17.39-12.63-5.87-5-11.91-9.82-17.41-15.18-5.16-5-8.79-11.85-11.28-18.54a66.22,66.22,0,0,1-4.1-17.9c-.49-6.54.82-12.87,2.17-19.18a192.79,192.79,0,0,1,7.32-25,28.3,28.3,0,0,1,2.78-6.38,16.63,16.63,0,0,1,3.93-4,26.86,26.86,0,0,1,5.15-2.89,27.82,27.82,0,0,0,3.77-1.59L456.5,66a2.61,2.61,0,0,0,1.15-2.83c-1.5-7,2.94-13.94,8.38-18a46.33,46.33,0,0,1,10.17-5.57c3.56-1.48,7.52-2.45,10.85-4.43s5.13-5.35,7.77-8.06a27.94,27.94,0,0,1,8.42-5.89,27,27,0,0,1,19.75-1,27.55,27.55,0,0,1,9.65,5.68c2.36,2.15,5,5.1,6.06,8a2.58,2.58,0,0,0,2.41,1.84,83.76,83.76,0,0,1,26.1,4,49.33,49.33,0,0,1,26,19.75,55.66,55.66,0,0,1,6.09,12.71,2.55,2.55,0,0,0,3.08,1.75,117.43,117.43,0,0,1,71,2.73A112.29,112.29,0,0,1,705.3,94.92c7.49,6.08,14.11,13,20.63,20.12,5.26,5.7,10.65,11.42,15,17.84,3.32,4.88,6.09,10.3,6.55,16.29C747.76,152.35,752.76,152.38,752.51,149.17Z"/><path class="cls-2" d="M490.16,46.11c4.67.13,9.11-2,13.6-3a39.17,39.17,0,0,1,10.41-1,32.08,32.08,0,0,1,9.38,1.58,34.51,34.51,0,0,0,10.74,2.17,41.4,41.4,0,0,0,13-1.73c3.08-.9,1.77-5.73-1.33-4.82a37,37,0,0,1-10.71,1.57,29.14,29.14,0,0,1-10.08-1.92,36.14,36.14,0,0,0-10-1.8,42.76,42.76,0,0,0-10.29.62,58.46,58.46,0,0,0-7.27,1.8c-2.43.74-4.82,1.62-7.39,1.55-3.22-.1-3.22,4.9,0,5Z"/><path class="cls-2" d="M618.65,148.12c10.17-6.05,12.74-19.26,11.42-30.18-1.48-12.31-7.76-22.83-15-32.6-4-5.4-8.27-10.63-12.11-16.16a2.56,2.56,0,0,0-3.42-.9,2.52,2.52,0,0,0-.89,3.42c6.39,9.22,14,17.62,19.64,27.34,5.56,9.54,8.94,21.06,6.28,32.08-1.22,5.08-3.8,9.94-8.41,12.68-2.76,1.64-.25,6,2.53,4.32Z"/><path class="cls-2" d="M544.57,85.34c-.3-1.85,1.08-3.74,2.28-5a17.44,17.44,0,0,1,5.09-3.52c3.93-1.88,8.39-2.61,12.65-3.34a2.51,2.51,0,0,0,1.74-3.07,2.56,2.56,0,0,0-3.07-1.75c-5.15.88-10.38,1.9-15,4.44-4.91,2.68-9.47,7.58-8.51,13.55a2.52,2.52,0,0,0,3.08,1.75,2.57,2.57,0,0,0,1.75-3.08Z"/><path class="cls-1" d="M671.41,218.09l-14-4c-3.61-1-8.67-1.39-9.94,2.15-1.21,3.35,2.48,6.29,5.62,8l13.43,7.15a2.86,2.86,0,0,1,1.3,1.07c.8,1.5-1.25,2.87-2.87,3.37a243.73,243.73,0,0,0-49.3,21.41c-2.94,1.68-6,3.57-7.58,6.56s-1,7.38,2,8.88c2.2,1.08,4.81.35,7.14-.39l41.21-13.17a10.21,10.21,0,0,1,4.89-.71c4.75.9,5.62,7.38,4.68,12.12s-2.26,10.48,1.29,13.77l.89-.24c2.51-6.05,7.75-10.48,12.8-14.66,5.53-4.57,11.16-9.21,17.75-12.09,11-4.79,23.49-4.25,35-7.33a57.76,57.76,0,0,0,31.4-21.4c4.82-6.56,8.2-14.08,11-21.73,4.21-11.64,7.13-24.18,5-36.38-.77-4.47-2.29-9-5.33-12.33-4.74-5.29-12.23-7-19.24-8.11-14.59-2.42-29.55-3.9-44.13-1.43s-28.88,9.25-38,20.9a47.77,47.77,0,0,0-8.57,40.39c1.26,5,3.48,10,7.48,13.27a24.59,24.59,0,0,0,8,4.06c11.42,3.76,23.92,3.24,35.58.29s22.58-8.2,33.19-13.85"/><path class="cls-2" d="M672.08,215.68,662.75,213a54.33,54.33,0,0,0-7.73-2,11.74,11.74,0,0,0-6.63.73,6.43,6.43,0,0,0-3.64,5.6c-.09,5.89,6.66,8.75,11,11l8.23,4.38a11.9,11.9,0,0,0,1.9,1c-.32.21-.37-1.12-.34-1.11a7.63,7.63,0,0,0-.93.54c-.79.34-1.68.53-2.5.79a248.7,248.7,0,0,0-33.47,13.43c-5.29,2.58-10.56,5.29-15.59,8.33-4.34,2.62-8.62,6.49-8.31,12a8.42,8.42,0,0,0,2.82,6.09c2.41,2,5.53,2,8.44,1.28s6-1.87,9-2.82l9.48-3,18.47-5.9,4.26-1.36a21.85,21.85,0,0,1,4.66-1.31c1.81-.15,2.66.69,3.32,2.23a12.06,12.06,0,0,1,.61,5.2c-.12,1.94-.75,4.2-1,6.31a16.55,16.55,0,0,0,.32,7.6,9.85,9.85,0,0,0,1.75,3.13,3.17,3.17,0,0,0,3.58,1.29c1.54-.41,1.94-1.41,2.6-2.72a23.93,23.93,0,0,1,2.09-3.37,37.7,37.7,0,0,1,5.2-5.52,136.81,136.81,0,0,1,12.79-10.36,46.52,46.52,0,0,1,15.4-7.29c5.59-1.44,11.35-2,17.06-2.86a76.45,76.45,0,0,0,16.17-3.76,60.52,60.52,0,0,0,13.82-7.3,63.88,63.88,0,0,0,20.55-25c5.18-10.91,9.18-23,10.12-35,.84-10.88-.84-24.09-10.8-30.51-4.26-2.74-9.32-4-14.25-4.9-6.13-1.1-12.33-2-18.53-2.53-22.35-2-47,1.25-63.7,17.63a49.56,49.56,0,0,0-14.19,27.57,51.06,51.06,0,0,0,0,16c.81,5.13,2.44,10.42,5.55,14.63,3.57,4.83,8.76,7.35,14.42,9a59.44,59.44,0,0,0,18,2.12c12.17-.35,23.87-3.94,35-8.78,5.37-2.34,10.6-5,15.78-7.75,2.84-1.51.32-5.83-2.52-4.32-13.23,7-27.22,13.69-42.28,15.42a58.54,58.54,0,0,1-21.94-1.33,26.4,26.4,0,0,1-9.33-4.06,18.27,18.27,0,0,1-5.5-7.59c-4.82-11.67-3.27-25.88,2.66-36.84,6.13-11.31,17.07-19.05,29.08-23.17C717.83,149,733.16,149.17,748,151c6.8.83,14,1.6,20.44,4a17,17,0,0,1,11.65,12.95c3.86,14.41-.84,30.12-6.31,43.47a68.51,68.51,0,0,1-10.53,18.23,55.6,55.6,0,0,1-14.52,12.29,57.45,57.45,0,0,1-18.33,6.76c-7.13,1.37-14.41,1.84-21.5,3.45a52,52,0,0,0-19.55,9.11c-2.89,2.12-5.65,4.4-8.41,6.68a74,74,0,0,0-7.45,6.81,28.85,28.85,0,0,0-5.43,8.1l1.49-1.15-.89.23,2.43.65c-1.9-1.86-1.74-4.73-1.4-7.19.4-2.95,1.27-5.81,1.18-8.82a13.09,13.09,0,0,0-2.57-7.91c-2.22-2.73-5.71-3.2-9-2.36-4,1-8,2.52-12,3.79l-12.07,3.86-12.08,3.86-5.92,1.89c-1.63.52-3.5,1.31-5.24,1-2.2-.32-2.63-2.79-2.15-4.63.73-2.79,3.62-4.65,6-6.07a221.71,221.71,0,0,1,20.66-10.69q10.59-4.84,21.62-8.63,2.73-.94,5.47-1.81a15,15,0,0,0,4.67-2c1.51-1.13,2.6-2.89,2-4.83s-2.44-2.77-4.08-3.65l-11-5.88c-1.7-.9-5.94-2.91-5.46-5.28.13-.65.58-.94,1.33-1.15a8.33,8.33,0,0,1,3.23-.11,30.93,30.93,0,0,1,4.53,1.13l6.06,1.73,5.83,1.67c3.1.88,4.42-3.94,1.33-4.83Z"/><path class="cls-2" d="M450.8,68c15.39,6.91,30.87,13.87,45,23.13,3.45,2.26,6.82,4.64,10.05,7.2a73.63,73.63,0,0,0,6.75,5,46.73,46.73,0,0,0,21.63,6.92c8.54.55,17-1.52,24.71-5a2.52,2.52,0,0,0,.89-3.42,2.57,2.57,0,0,0-3.42-.9,48.7,48.7,0,0,1-19.89,4.36,41.32,41.32,0,0,1-20.76-5.93,46.62,46.62,0,0,1-6-4.38q-4.89-3.92-10.12-7.41A204.9,204.9,0,0,0,478.41,75.4c-8.24-4.17-16.66-8-25.09-11.75a2.58,2.58,0,0,0-3.42.9,2.52,2.52,0,0,0,.9,3.42Z"/><path class="cls-1" d="M1184,151.8c-.89-12.71-10.79-23.42-24.46-38.21-10.4-11.25-27.59-29.4-56.87-38.53a120.13,120.13,0,0,0-67-.91,54.1,54.1,0,0,0-16.51-24.77c-12.47-10.32-27.05-12.06-34.59-13a80,80,0,0,0-9.53-.56l-.26-.76a29.67,29.67,0,0,0-49.46-5.25,31,31,0,0,1-4.22,4.85,20.54,20.54,0,0,1-6,3c-6.66,2.45-13.43,5.13-18.7,9.88s-8.81,12-7.22,19l-3.18,2c-5,1.68-11,4.72-14,10.51a13.84,13.84,0,0,0-.72,1.63c-5.08,13.08-10.2,21.55-15,35.66a113.24,113.24,0,0,0-4.81,17.2c-1.51,8-3.29,17.49-.69,27.52,1.16,4.49,3.15,8.89,11.69,19.95,15.72,20.35,23.58,30.53,34.4,34.62,15.39,5.82,29.77,1.81,34.39.46a59.35,59.35,0,0,0,27.45-17.42l-.34,1.43a99.71,99.71,0,0,0-19.86,37.91c-4.24-5.85-9.73-12.34-16.94-11.95a3.84,3.84,0,0,0-2.17.65c-1.83,1.41-.67,4.33.7,6.2,4.65,6.3,10.46,12,13,19.43,2.07,6.11,1.7,12.88,4.05,18.89a22.49,22.49,0,0,0,17.17,13.75c9.22,1.42,18.19-3,27.28-5.1,13.23-3,27-1,40.47.8,3,.39,6.72.35,8-2.35,1.52-3.27-2.25-6.43-5.52-8A135.86,135.86,0,0,0,987.83,259c-1.69-.27-3.38-.51-5.07-.74,9.76-16.44,16.93-34.21,24.73-51.67,3.73-8.38-6.7,22.23-6.7,22.23A42.62,42.62,0,0,0,1032,235a59.26,59.26,0,0,0,8.89-2.4c9.08-3.24,23.4-6.41,46.16-5.79C1146.59,209.69,1185.87,178.86,1184,151.8Z"/><path class="cls-2" d="M1186.48,151.8c-1-12.74-9.79-23-18-32.08-7.16-8-14.42-16-22.55-23a119.18,119.18,0,0,0-75.69-29.34,125.68,125.68,0,0,0-35.25,4.4l3.08,1.74a56.61,56.61,0,0,0-16.93-25.67c-8.54-7.17-19-11.22-29.95-13a101.78,101.78,0,0,0-16.16-1.47l2.41,1.84c-2.34-6.75-8.81-12.47-15.09-15.52a31.79,31.79,0,0,0-23.09-1.91,33.1,33.1,0,0,0-10.49,5.32,31.4,31.4,0,0,0-4.23,3.83c-1.43,1.57-2.57,3.38-4,4.92-2.88,3-7.59,3.9-11.33,5.42a53.47,53.47,0,0,0-11.45,6c-7.52,5.46-13,14.33-11,23.89l1.15-2.82c-.94.57-1.86,1.19-2.82,1.73-.1.06-.56.28-.16.1-.39.18-.81.29-1.21.44-1,.4-2.07.84-3.07,1.31a24.46,24.46,0,0,0-10.08,8.46,38.71,38.71,0,0,0-3,6.63c-1,2.33-2,4.63-3,6.93-2,4.43-4.08,8.82-6,13.29-4,9.29-7.56,19-9.5,28.93s-3.45,20.34-.58,30.33c1.78,6.2,5.64,11.59,9.45,16.7,6,8,12.06,16,18.61,23.5,4.23,4.86,8.86,9.63,14.48,12.88,7.7,4.46,17.19,5.94,26,5.45a63.32,63.32,0,0,0,41-18.21c.79-.8,1.57-1.62,2.32-2.46l-4.18-2.44a4.2,4.2,0,0,0-.3,1.26c-.05.2,0,.14.11-.2s.15-.4-.23.15a13.37,13.37,0,0,0-.89,1.1c-1.26,1.57-2.48,3.17-3.64,4.81a98.63,98.63,0,0,0-6.32,10.1A103.76,103.76,0,0,0,936,237.25l4.57-.59c-4.09-5.63-9.15-12-16.5-13-3.64-.52-8.26.55-8.21,5.09.05,3.68,2.92,6.65,5.07,9.35a91.2,91.2,0,0,1,7.12,9.59,30.59,30.59,0,0,1,3.88,11c.71,4.23,1,8.58,2.49,12.64a24.64,24.64,0,0,0,5.64,9,25.33,25.33,0,0,0,20.59,7.31c8.68-.82,16.67-4.68,25.24-6,9-1.42,18.23-.62,27.2.46,2.22.27,4.44.56,6.66.85a25.79,25.79,0,0,0,5.75.43c3.37-.28,6.61-2,7.19-5.58.67-4.24-3.19-7.57-6.58-9.32a110.15,110.15,0,0,0-13.43-5.58,147.18,147.18,0,0,0-29.29-6.92l1.5,3.67a296.38,296.38,0,0,0,15-29.71c2.26-5,4.46-10.07,6.67-15.12,1-2.33,2-4.68,3.1-7,.13-.28.3-.57.42-.87.28-.74-.2.26-.62.49l-1.27.34h0l-1.26-.34c-.49-.35-1.52-1.82-1.15-2.54,0,.09,0,.24-.06.33-.1.33-.16.66-.25,1-.26.94-.54,1.87-.83,2.8-.83,2.69-1.7,5.37-2.58,8q-1.86,5.63-3.76,11.23a2.53,2.53,0,0,0,1.14,2.82,45.3,45.3,0,0,0,25.63,7.32,51.91,51.91,0,0,0,13.32-2.2c2.48-.72,4.89-1.66,7.37-2.39a103.33,103.33,0,0,1,18.53-3.57c4.25-.44,8.51-.68,12.78-.78q3.35-.07,6.69,0a19.44,19.44,0,0,0,3.89,0c1.38-.28,2.76-.81,4.11-1.22a246.42,246.42,0,0,0,49.06-20.43c12-6.72,23.66-14.82,32.77-25.19,7.37-8.41,13.56-19.07,12.81-30.63-.21-3.19-5.21-3.22-5,0,.58,9-3.58,17.51-9.28,24.62-8,10-18.62,17.87-29.59,24.43a226.64,226.64,0,0,1-45.79,20.38q-3.43,1.14-6.89,2.17a23.56,23.56,0,0,1-2.94.87,26.93,26.93,0,0,1-4.4,0c-4.4,0-8.8.09-13.19.39a123.83,123.83,0,0,0-20.27,3c-6.54,1.55-12.73,4.32-19.41,5.29a40.51,40.51,0,0,1-27.67-6.28l1.15,2.82c2.27-6.68,4.56-13.36,6.6-20.12a16.25,16.25,0,0,0,1-4,2.57,2.57,0,0,0-4.84-1.29c-1.64,2.64-2.64,5.83-3.89,8.67-2,4.57-4,9.14-6,13.7A302.42,302.42,0,0,1,980.6,257c-.74,1.24-.14,3.44,1.49,3.67a151.44,151.44,0,0,1,22.91,4.82c3.7,1.12,7.36,2.39,11,3.82,3.24,1.29,7,2.51,9.8,4.66,1.69,1.3,3.25,3.66.2,4.22s-6.82-.46-10-.86c-7.89-1-15.85-1.86-23.82-1.44a66.12,66.12,0,0,0-11.88,1.66c-3.71.88-7.33,2.11-11,3.16-6.55,1.88-13.67,3.22-20,.05a20.47,20.47,0,0,1-10.94-14.17c-.83-3.63-1.1-7.36-1.84-11a32.12,32.12,0,0,0-3.79-10,76.62,76.62,0,0,0-6.8-9.35c-1.24-1.55-2.53-3.07-3.67-4.69a8.18,8.18,0,0,1-1.06-1.81c-.07-.19-.24-1.2-.34-1.07.61-.81,3.47,0,4.26.27a13.36,13.36,0,0,1,4.13,2.32,39.94,39.94,0,0,1,7.1,7.92,2.54,2.54,0,0,0,4.57-.6,97.78,97.78,0,0,1,8.84-21.68,99.66,99.66,0,0,1,6.24-9.81q1.63-2.26,3.41-4.44a7.36,7.36,0,0,0,1.71-3.41c.55-2.29-2.43-4.38-4.18-2.43a58.46,58.46,0,0,1-34.3,18.62c-8.59,1.41-18.15.77-26-2.67-5.15-2.25-9.38-6-13.2-10-5.92-6.26-11.14-13.18-16.41-20-3-3.86-6-7.72-8.7-11.8-.86-1.3-1.69-2.63-2.44-4-.32-.58-.63-1.16-.91-1.76-.13-.25-.24-.5-.36-.75a4.16,4.16,0,0,1-.21-.49c-3.16-7.72-2.78-16.44-1.46-24.52a141.62,141.62,0,0,1,7.6-27.54c3.39-8.9,7.74-17.39,11.42-26.17a49.87,49.87,0,0,1,2.63-6.15A16.68,16.68,0,0,1,878.63,75a25.85,25.85,0,0,1,5.19-3,38.27,38.27,0,0,0,3.91-1.62c.92-.53,1.82-1.12,2.73-1.68a2.56,2.56,0,0,0,1.15-2.82c-1.52-7.18,3.08-14.17,8.67-18.25a48.69,48.69,0,0,1,10-5.4c3.54-1.46,7.44-2.43,10.74-4.39s5.16-5.37,7.8-8.08a27.87,27.87,0,0,1,8.61-6,27,27,0,0,1,19.64-.91,27.45,27.45,0,0,1,9.41,5.53c2.42,2.17,5.15,5.15,6.19,8.15a2.58,2.58,0,0,0,2.41,1.83,84,84,0,0,1,26.15,4,49.35,49.35,0,0,1,25.94,19.69,55.54,55.54,0,0,1,6.13,12.76,2.54,2.54,0,0,0,3.07,1.75,117.43,117.43,0,0,1,71.11,2.78,112,112,0,0,1,31.7,18.14,196.24,196.24,0,0,1,20.36,19.8c5.33,5.78,10.81,11.56,15.27,18.06,3.38,4.93,6.2,10.41,6.68,16.46C1181.72,155,1186.73,155,1186.48,151.8Z"/><path class="cls-2" d="M924.12,48.74c4.67.14,9.12-2,13.61-3a38.73,38.73,0,0,1,10.4-1,31.82,31.82,0,0,1,9.39,1.58,34.46,34.46,0,0,0,10.74,2.17,41.77,41.77,0,0,0,13-1.73c3.08-.9,1.77-5.73-1.33-4.82a37.06,37.06,0,0,1-10.71,1.56,29.09,29.09,0,0,1-10.08-1.91,35.91,35.91,0,0,0-10-1.8,42.67,42.67,0,0,0-10.28.62,60.41,60.41,0,0,0-7.28,1.79c-2.43.75-4.81,1.63-7.39,1.55-3.21-.09-3.21,4.91,0,5Z"/><path class="cls-2" d="M1052.61,150.76c10.18-6,12.74-19.26,11.43-30.18-1.48-12.31-7.77-22.83-15-32.6-4-5.4-8.26-10.63-12.1-16.16a2.56,2.56,0,0,0-3.42-.9,2.52,2.52,0,0,0-.9,3.42c6.4,9.21,14,17.61,19.64,27.33,5.56,9.55,9,21.07,6.29,32.09-1.23,5.08-3.8,9.94-8.41,12.68-2.76,1.64-.25,6,2.52,4.32Z"/><path class="cls-2" d="M978.53,88c-.3-1.85,1.08-3.74,2.29-5a17.36,17.36,0,0,1,5.08-3.53c3.93-1.87,8.39-2.6,12.65-3.33a2.5,2.5,0,1,0-1.33-4.82c-5.14.88-10.38,1.9-15,4.43-4.9,2.69-9.46,7.59-8.5,13.56a2.52,2.52,0,0,0,3.07,1.75A2.56,2.56,0,0,0,978.53,88Z"/><path class="cls-1" d="M1105.38,220.73l-14-4c-3.61-1-8.68-1.38-10,2.15-1.2,3.36,2.48,6.3,5.63,8L1100.5,234a3,3,0,0,1,1.3,1.07c.8,1.51-1.25,2.88-2.88,3.38a243.66,243.66,0,0,0-49.3,21.41c-2.94,1.68-6,3.57-7.57,6.56s-1,7.38,2,8.88c2.19,1.08,4.81.35,7.14-.4l41.2-13.16a10.13,10.13,0,0,1,4.9-.71c4.75.9,5.61,7.37,4.67,12.12s-2.25,10.47,1.29,13.76l.89-.23c2.51-6.06,7.75-10.48,12.8-14.66,5.54-4.58,11.17-9.21,17.75-12.09,11-4.79,23.49-4.25,35.06-7.33a57.85,57.85,0,0,0,31.4-21.41c4.82-6.56,8.19-14.07,11-21.72,4.22-11.65,7.14-24.18,5-36.38-.77-4.47-2.29-9-5.32-12.34-4.75-5.28-12.24-6.94-19.25-8.1-14.58-2.42-29.55-3.9-44.13-1.43s-28.87,9.25-38,20.9a47.73,47.73,0,0,0-8.57,40.39c1.25,5,3.48,10,7.47,13.27a24.74,24.74,0,0,0,8,4.06c11.41,3.76,23.92,3.23,35.57.29s22.59-8.21,33.19-13.85"/><path class="cls-2" d="M1106,218.32l-9.32-2.66a56.24,56.24,0,0,0-7.74-2,11.74,11.74,0,0,0-6.63.74,6.39,6.39,0,0,0-3.63,5.6c-.09,5.89,6.65,8.74,11,11.05l8.23,4.38a11.9,11.9,0,0,0,1.9,1c-.31.21-.37-1.13-.33-1.11a6.84,6.84,0,0,0-.93.53c-.79.34-1.69.54-2.51.8a247.26,247.26,0,0,0-33.46,13.43c-5.29,2.58-10.56,5.29-15.6,8.33-4.34,2.62-8.62,6.48-8.3,12a8.45,8.45,0,0,0,2.81,6.09c2.42,2,5.54,2,8.45,1.28s6-1.87,9-2.83l9.47-3,18.47-5.9,4.26-1.36a21.93,21.93,0,0,1,4.67-1.31c1.81-.16,2.66.69,3.32,2.23a12,12,0,0,1,.61,5.19c-.13,1.95-.76,4.21-1,6.31a16.54,16.54,0,0,0,.33,7.6,10.06,10.06,0,0,0,1.74,3.14,3.18,3.18,0,0,0,3.58,1.29c1.55-.42,2-1.41,2.61-2.72a24.22,24.22,0,0,1,2.08-3.37,38.28,38.28,0,0,1,5.2-5.52,136.64,136.64,0,0,1,12.8-10.36,46.13,46.13,0,0,1,15.4-7.29c5.59-1.44,11.35-2.05,17-2.86a76.7,76.7,0,0,0,16.18-3.77,60.23,60.23,0,0,0,13.81-7.29A63.83,63.83,0,0,0,1210,221c5.18-10.91,9.19-22.94,10.12-35,.85-10.89-.84-24.1-10.8-30.51-4.26-2.74-9.32-4-14.24-4.9-6.13-1.11-12.33-2-18.54-2.53-22.35-2-47,1.25-63.69,17.63a49.55,49.55,0,0,0-14.2,27.57,51.36,51.36,0,0,0,0,16c.81,5.12,2.43,10.41,5.55,14.63,3.56,4.82,8.76,7.34,14.41,8.95a59.79,59.79,0,0,0,18,2.12c12.17-.36,23.88-3.94,35-8.78,5.37-2.35,10.6-5,15.78-7.76,2.84-1.51.31-5.82-2.53-4.31-13.22,7-27.22,13.69-42.27,15.42a58.58,58.58,0,0,1-22-1.33,26.68,26.68,0,0,1-9.33-4.07,18.16,18.16,0,0,1-5.49-7.58c-4.83-11.67-3.28-25.88,2.66-36.84,6.13-11.31,17.07-19.06,29.07-23.17,14.27-4.88,29.59-4.75,44.4-3,6.79.83,14,1.6,20.44,4A17.12,17.12,0,0,1,1214,170.51c3.86,14.42-.85,30.12-6.31,43.48a68.66,68.66,0,0,1-10.53,18.23,55.92,55.92,0,0,1-14.52,12.28,57.27,57.27,0,0,1-18.34,6.76c-7.12,1.37-14.4,1.85-21.49,3.45a52.33,52.33,0,0,0-19.56,9.11c-2.88,2.13-5.65,4.4-8.4,6.69a74,74,0,0,0-7.46,6.81,28.68,28.68,0,0,0-5.42,8.1l1.49-1.15-.89.23,2.43.64c-1.9-1.86-1.75-4.72-1.41-7.18.4-2.95,1.28-5.81,1.18-8.82a13,13,0,0,0-2.57-7.91c-2.21-2.73-5.7-3.2-9-2.36-4,1.05-8,2.52-12,3.79l-12.08,3.86-12.07,3.85-5.92,1.9c-1.63.52-3.5,1.3-5.25,1-2.19-.33-2.62-2.79-2.14-4.64.72-2.79,3.62-4.64,6-6.06a218.35,218.35,0,0,1,20.67-10.69q10.59-4.84,21.62-8.63,2.71-.94,5.46-1.81a15.47,15.47,0,0,0,4.68-2,4.55,4.55,0,0,0,2-4.82c-.56-2-2.45-2.78-4.09-3.65l-11-5.88c-1.7-.91-5.94-2.92-5.46-5.28.13-.65.58-.94,1.32-1.15a8.58,8.58,0,0,1,3.24-.12,31.78,31.78,0,0,1,4.52,1.13l6.07,1.74,5.82,1.66c3.1.89,4.43-3.94,1.33-4.82Z"/><path class="cls-2" d="M884.76,70.61c15.4,6.91,30.88,13.87,45,23.13,3.44,2.25,6.82,4.63,10.05,7.19A73.73,73.73,0,0,0,946.6,106a46.81,46.81,0,0,0,21.63,6.92c8.54.54,16.94-1.53,24.7-5a2.51,2.51,0,0,0,.9-3.42,2.57,2.57,0,0,0-3.42-.9,48.74,48.74,0,0,1-19.9,4.36,41.35,41.35,0,0,1-20.76-5.93,47.52,47.52,0,0,1-6-4.39q-4.9-3.92-10.12-7.4A204.13,204.13,0,0,0,912.38,78c-8.24-4.18-16.67-8-25.09-11.75a2.58,2.58,0,0,0-3.42.9,2.51,2.51,0,0,0,.89,3.42Z"/><path class="cls-1" d="M1614.86,149.79c-.89-12.71-10.79-23.42-24.46-38.21-10.39-11.25-27.59-29.4-56.86-38.52-29.77-9.28-55.44-4.06-67-.92a53.94,53.94,0,0,0-16.51-24.77c-12.46-10.31-27-12.06-34.58-13a77.94,77.94,0,0,0-9.53-.56l-.26-.76a29.66,29.66,0,0,0-49.46-5.26,30.6,30.6,0,0,1-4.22,4.85,20.54,20.54,0,0,1-6,3c-6.66,2.45-13.43,5.13-18.7,9.88s-8.81,12-7.22,19l-3.18,2a53.91,53.91,0,0,0-24.56,4.41A40.23,40.23,0,0,0,1282,77c-2.55,2.18-7.55,7.12-13.07,24.77s-8.91,28.48-5.5,39.9c.76,2.53,2.26,6.47,4.81,15.13,2,6.84,2.62,9.56,3.44,12.38a80.38,80.38,0,0,0,13.76,26.14,86.83,86.83,0,0,0,22,19.95c7.25,4.77,11.79,7.75,18.58,9.4,16.51,4,31.16-3.53,38.52-7.33a76.41,76.41,0,0,0,25-20.81l-.34,1.43a100,100,0,0,0-19.87,37.91c-4.23-5.85-9.72-12.34-16.93-11.95a3.82,3.82,0,0,0-2.17.65c-1.84,1.41-.68,4.33.7,6.2,4.64,6.3,10.46,12,13,19.43,2.07,6.11,1.7,12.88,4,18.89a22.48,22.48,0,0,0,17.18,13.75c9.22,1.42,18.19-3,27.28-5.1,13.23-3,27-1,40.46.8,3,.39,6.72.35,8-2.35,1.53-3.26-2.25-6.43-5.51-8a135.86,135.86,0,0,0-36.62-11.3c-1.69-.27-3.38-.5-5.08-.74,9.77-16.44,16.94-34.21,24.73-51.67,3.74-8.38-6.7,22.23-6.7,22.23A42.63,42.63,0,0,0,1462.9,233a59.55,59.55,0,0,0,8.89-2.39c9.09-3.25,23.41-6.42,46.16-5.79C1577.47,207.68,1616.76,176.85,1614.86,149.79Z"/><path class="cls-2" d="M1617.36,149.79c-1-12.76-9.8-23-18-32.11-7.21-8-14.52-16.11-22.71-23.17A119.2,119.2,0,0,0,1501,65.33a125.46,125.46,0,0,0-35.12,4.4l3.07,1.74a56.65,56.65,0,0,0-16.91-25.66c-8.5-7.13-18.93-11.19-29.8-13A101.46,101.46,0,0,0,1406,31.35l2.41,1.83c-2.32-6.67-8.67-12.33-14.85-15.4a31.82,31.82,0,0,0-22.92-2.15A33,33,0,0,0,1360,20.86a32.45,32.45,0,0,0-4.09,3.59c-1.57,1.66-2.8,3.6-4.36,5.26-3,3.14-7.85,4.06-11.73,5.65a52.85,52.85,0,0,0-11.24,6c-7.49,5.48-12.89,14.31-10.88,23.83l1.15-2.82-1.44.88-1,.62c-.21.12-1.15.85-.26.26.66-.44.38-.1-.11-.19a5.15,5.15,0,0,0-.56,0l-1.6,0c-1.21,0-2.42,0-3.63.13a55.76,55.76,0,0,0-17.59,4c-7,2.88-13.24,6.79-17.43,13.14-6,9-8.86,20.13-11.86,30.42-2.77,9.47-5.15,19.47-2.71,29.29.83,3.34,2.11,6.59,3.15,9.88,1.66,5.17,3.17,10.4,4.56,15.65a83,83,0,0,0,12.2,26.48A90.36,90.36,0,0,0,1301.14,214c8.11,5.95,17,12,27.09,13.74,11.29,1.9,22.39-.88,32.59-5.67a84.19,84.19,0,0,0,26-18.5c1.55-1.67,3-3.41,4.45-5.2l-4.18-2.43a5.66,5.66,0,0,0-.27,1.15c0,.37.51-.5,0-.13a6,6,0,0,0-.95,1.16c-1.25,1.57-2.47,3.17-3.64,4.8A99.64,99.64,0,0,0,1375.9,213a104,104,0,0,0-9,22.22l4.57-.6c-4.06-5.59-9.11-12-16.41-13-3.73-.54-8.2.49-8.29,5-.08,3.73,3,6.86,5.19,9.57a87.54,87.54,0,0,1,7,9.4,30.92,30.92,0,0,1,4,11.36c.66,4.1,1,8.3,2.41,12.23a24.75,24.75,0,0,0,5.94,9.28,25.34,25.34,0,0,0,20.43,7c8.7-.87,16.7-4.74,25.3-6.06,9-1.39,18.26-.58,27.25.51,5.48.66,18.42,4.29,19.4-4.61.46-4.12-3.28-7.33-6.59-9a110.75,110.75,0,0,0-13.7-5.69,147.56,147.56,0,0,0-29-6.83l1.49,3.67a297.47,297.47,0,0,0,15-29.65c2.25-5,4.44-10.05,6.65-15.08,1-2.37,2.06-4.76,3.14-7.11.12-.27.27-.53.38-.81.37-.89-.42.57-1.17.68l-1.93-.25c-.57-.34-1.49-1.81-1.14-2.52,0,.1,0,.25-.08.36-.09.3-.15.61-.23.91-.27,1-.57,2-.87,3-.82,2.65-1.68,5.29-2.55,7.92q-1.85,5.63-3.76,11.22a2.55,2.55,0,0,0,1.15,2.83,45.44,45.44,0,0,0,25.55,7.32c7.28-.15,13.81-2.54,20.68-4.58a103.72,103.72,0,0,1,18.66-3.59c4.08-.42,8.17-.66,12.27-.77,2.33,0,4.67-.07,7,0a22.82,22.82,0,0,0,4,0,33.42,33.42,0,0,0,3.71-1.1,246,246,0,0,0,49.49-20.57c11.94-6.71,23.59-14.77,32.68-25.11,7.4-8.41,13.61-19.1,12.86-30.69-.2-3.19-5.2-3.21-5,0,.59,9.09-3.71,17.75-9.45,24.85-8.06,10-18.65,17.78-29.61,24.32a227.08,227.08,0,0,1-45.65,20.29q-3.32,1.08-6.65,2.09a26,26,0,0,1-3.09.92,24.28,24.28,0,0,1-4,0c-4.53,0-9.07.08-13.59.39a123.54,123.54,0,0,0-20.52,3c-6.49,1.56-12.64,4.32-19.29,5.25a40.42,40.42,0,0,1-27.57-6.29l1.14,2.82c2.3-6.72,4.61-13.45,6.65-20.26a16,16,0,0,0,.94-3.84,2.57,2.57,0,0,0-4.82-1.34c-1.63,2.57-2.62,5.75-3.83,8.53-2,4.63-4,9.26-6.12,13.88A303.24,303.24,0,0,1,1411.49,255c-.74,1.24-.14,3.44,1.49,3.67a152.14,152.14,0,0,1,22.85,4.81c3.64,1.09,7.24,2.34,10.77,3.74,3.29,1.3,7,2.54,9.89,4.65,1.7,1.25,3.5,3.75.34,4.32s-6.8-.46-9.93-.86c-7.83-1-15.74-1.84-23.65-1.45s-15.11,2.52-22.63,4.7c-6.69,1.95-14,3.43-20.53.17a20.4,20.4,0,0,1-10.82-13.81c-.88-3.65-1.15-7.41-1.87-11.1a32.33,32.33,0,0,0-3.7-10,73.65,73.65,0,0,0-6.74-9.35c-.68-.85-6.27-6.81-5.15-8,.19-.2,1.6-.06,1.86,0a9.49,9.49,0,0,1,2.23.45,13.42,13.42,0,0,1,4.16,2.32,38.9,38.9,0,0,1,7.11,7.93c1.22,1.67,4,1.63,4.57-.59a98.13,98.13,0,0,1,8.91-21.81,101.15,101.15,0,0,1,6.28-9.84c1.17-1.61,2.4-3.16,3.65-4.7a6.44,6.44,0,0,0,1.37-3c.52-2.22-2.53-4.53-4.18-2.44a75.3,75.3,0,0,1-23.89,20.12c-8.32,4.4-17.21,8.1-26.75,8.42a36.81,36.81,0,0,1-16.41-3.07,96.4,96.4,0,0,1-13.19-7.92A84.77,84.77,0,0,1,1287,193.21a77,77,0,0,1-12.83-24.65c-2.43-8.29-4.63-16.62-7.38-24.82a36.39,36.39,0,0,1-2.13-10.15,49.65,49.65,0,0,1,1.62-13.45c1.36-5.74,3.17-11.37,4.94-17a95.25,95.25,0,0,1,5.82-15,35.41,35.41,0,0,1,4.57-7.1,28.36,28.36,0,0,1,7.65-5.85,51.42,51.42,0,0,1,15.91-5.55,50,50,0,0,1,7.21-.71c1.77,0,4.34.49,5.93-.34,1.06-.56,2.07-1.27,3.09-1.9a2.6,2.6,0,0,0,1.15-2.83c-1.48-7,2.92-13.9,8.35-18a46,46,0,0,1,10.28-5.62c3.59-1.49,7.57-2.46,10.9-4.48s5.11-5.41,7.77-8.11a27.75,27.75,0,0,1,8.46-5.83,27,27,0,0,1,20-.83,27.48,27.48,0,0,1,9.25,5.56c2.35,2.14,5,5,6,8a2.59,2.59,0,0,0,2.41,1.84,83.81,83.81,0,0,1,26.25,4,49.36,49.36,0,0,1,25.93,19.8,55.86,55.86,0,0,1,6,12.62,2.55,2.55,0,0,0,3.08,1.75,117.43,117.43,0,0,1,70.83,2.68,112,112,0,0,1,31.77,18.07c7.51,6.06,14.14,13,20.67,20.08,5.25,5.7,10.64,11.39,15,17.77,3.43,5,6.31,10.52,6.79,16.64C1612.61,153,1617.62,153,1617.36,149.79Z"/><path class="cls-2" d="M1355,46.74c4.67.13,9.12-2,13.6-3.05a39.17,39.17,0,0,1,10.41-1,31.75,31.75,0,0,1,9.38,1.58,34.52,34.52,0,0,0,10.75,2.17,41.48,41.48,0,0,0,12.95-1.73c3.08-.9,1.77-5.73-1.33-4.82a37.43,37.43,0,0,1-10.72,1.57A29,29,0,0,1,1390,39.57a36.28,36.28,0,0,0-10-1.8,42.79,42.79,0,0,0-10.29.62,60.72,60.72,0,0,0-7.27,1.79c-2.43.75-4.82,1.63-7.39,1.56-3.22-.1-3.21,4.9,0,5Z"/><path class="cls-2" d="M1483.5,148.75c10.17-6.05,12.74-19.26,11.43-30.18-1.48-12.31-7.77-22.83-15-32.6-4-5.4-8.26-10.63-12.1-16.16a2.56,2.56,0,0,0-3.42-.9,2.52,2.52,0,0,0-.9,3.42c6.4,9.22,14,17.62,19.64,27.33,5.56,9.55,9,21.07,6.29,32.09-1.23,5.08-3.81,9.94-8.41,12.68-2.77,1.64-.25,6,2.52,4.32Z"/><path class="cls-2" d="M1409.42,86c-.3-1.85,1.08-3.74,2.29-5a17.26,17.26,0,0,1,5.08-3.52c3.93-1.88,8.39-2.61,12.65-3.34a2.52,2.52,0,0,0,1.74-3.08,2.55,2.55,0,0,0-3.07-1.74c-5.15.88-10.38,1.9-15,4.44-4.91,2.68-9.47,7.58-8.5,13.55a2.51,2.51,0,0,0,3.07,1.75,2.57,2.57,0,0,0,1.75-3.08Z"/><path class="cls-1" d="M1536.27,218.72l-14-4c-3.61-1-8.68-1.39-10,2.15-1.21,3.35,2.48,6.29,5.62,8l13.43,7.15a2.89,2.89,0,0,1,1.31,1.07c.79,1.5-1.25,2.87-2.88,3.37a244.22,244.22,0,0,0-49.3,21.41c-2.94,1.68-6,3.57-7.57,6.56s-1,7.38,2,8.88c2.19,1.08,4.81.35,7.14-.4l41.2-13.16a10.11,10.11,0,0,1,4.89-.71c4.76.9,5.62,7.38,4.68,12.12s-2.26,10.48,1.29,13.76l.89-.23c2.51-6.05,7.75-10.48,12.8-14.66,5.54-4.58,11.17-9.21,17.75-12.09,11-4.79,23.49-4.25,35.06-7.33A57.79,57.79,0,0,0,1632,229.18c4.83-6.55,8.2-14.07,11-21.72,4.21-11.65,7.13-24.18,5-36.38-.77-4.47-2.29-9-5.32-12.34-4.75-5.28-12.24-6.94-19.25-8.1-14.59-2.42-29.55-3.9-44.13-1.43s-28.88,9.25-38,20.9a47.8,47.8,0,0,0-8.57,40.39c1.26,5,3.48,10,7.48,13.27a24.69,24.69,0,0,0,8,4.06c11.42,3.76,23.93,3.23,35.58.29s22.58-8.2,33.19-13.85"/><path class="cls-2" d="M1536.93,216.31l-9.33-2.66a54.33,54.33,0,0,0-7.73-2,11.74,11.74,0,0,0-6.63.73,6.43,6.43,0,0,0-3.64,5.6c-.09,5.89,6.66,8.74,11,11.05l8.23,4.38a11.9,11.9,0,0,0,1.9,1c-.32.21-.37-1.13-.34-1.11a7.55,7.55,0,0,0-.92.54c-.79.34-1.69.53-2.51.79a248.7,248.7,0,0,0-33.47,13.43c-5.28,2.58-10.55,5.29-15.59,8.33-4.34,2.62-8.62,6.49-8.31,12a8.46,8.46,0,0,0,2.82,6.09c2.41,2,5.53,2,8.44,1.28s6-1.87,9-2.82l9.47-3,18.47-5.9,4.26-1.36a22,22,0,0,1,4.66-1.31c1.82-.16,2.67.69,3.32,2.23a12,12,0,0,1,.62,5.19c-.13,1.95-.76,4.21-1.05,6.32a16.55,16.55,0,0,0,.33,7.6,9.73,9.73,0,0,0,1.74,3.13,3.17,3.17,0,0,0,3.58,1.29c1.55-.41,1.94-1.41,2.61-2.72a23.86,23.86,0,0,1,2.08-3.37,38.25,38.25,0,0,1,5.2-5.52,136.51,136.51,0,0,1,12.79-10.36,46.52,46.52,0,0,1,15.4-7.29c5.6-1.44,11.36-2,17.06-2.86a76.09,76.09,0,0,0,16.18-3.77,60.23,60.23,0,0,0,13.81-7.29,63.91,63.91,0,0,0,20.55-25c5.18-10.91,9.18-22.94,10.12-35,.84-10.88-.84-24.09-10.8-30.51-4.26-2.74-9.32-4-14.25-4.9-6.13-1.1-12.33-2-18.53-2.53-22.35-2-47,1.25-63.7,17.63a49.63,49.63,0,0,0-14.19,27.57,51.06,51.06,0,0,0,0,16c.81,5.13,2.43,10.42,5.54,14.63,3.57,4.83,8.77,7.35,14.42,9a59.44,59.44,0,0,0,18,2.12c12.17-.35,23.87-3.94,35-8.78,5.38-2.35,10.61-5,15.78-7.75,2.85-1.52.32-5.83-2.52-4.32-13.22,7-27.22,13.69-42.28,15.42a58.54,58.54,0,0,1-21.94-1.33,26.47,26.47,0,0,1-9.33-4.06,18.16,18.16,0,0,1-5.49-7.59c-4.83-11.67-3.28-25.88,2.66-36.84,6.13-11.31,17.06-19.05,29.07-23.17,14.27-4.88,29.59-4.75,44.4-2.95,6.79.83,14,1.6,20.44,4a17.08,17.08,0,0,1,11.65,12.95c3.86,14.41-.85,30.12-6.31,43.47a68.78,68.78,0,0,1-10.53,18.23,56,56,0,0,1-14.53,12.29,57.45,57.45,0,0,1-18.33,6.76c-7.13,1.37-14.41,1.84-21.49,3.44a52.2,52.2,0,0,0-19.56,9.12c-2.88,2.12-5.65,4.4-8.41,6.68a75.1,75.1,0,0,0-7.45,6.81,29.07,29.07,0,0,0-5.43,8.1l1.5-1.15-.89.23,2.43.65c-1.91-1.86-1.75-4.73-1.41-7.19.4-2.95,1.28-5.81,1.18-8.82a13,13,0,0,0-2.57-7.91c-2.21-2.73-5.7-3.2-9-2.36-4,1.05-8,2.52-12,3.79l-12.08,3.86L1488,268.37l-5.92,1.89c-1.63.52-3.5,1.31-5.24,1-2.2-.33-2.63-2.79-2.15-4.63.73-2.79,3.62-4.65,6-6.07a219.49,219.49,0,0,1,20.67-10.69q10.59-4.84,21.62-8.63,2.71-.94,5.46-1.81a15,15,0,0,0,4.68-2,4.53,4.53,0,0,0,2-4.82c-.56-2-2.44-2.77-4.08-3.65l-11.05-5.88c-1.7-.91-5.93-2.91-5.46-5.28.13-.65.59-.94,1.33-1.15a8.38,8.38,0,0,1,3.24-.11,29.58,29.58,0,0,1,4.52,1.13l6.06,1.73,5.83,1.66c3.1.89,4.42-3.93,1.33-4.82Z"/><path class="cls-2" d="M1315.65,68.6c15.39,6.91,30.88,13.87,45,23.13,3.45,2.25,6.83,4.63,10,7.2a73.63,73.63,0,0,0,6.75,5,46.85,46.85,0,0,0,21.64,6.92c8.53.54,16.94-1.53,24.7-5a2.53,2.53,0,0,0,.9-3.42,2.57,2.57,0,0,0-3.42-.9,48.78,48.78,0,0,1-19.9,4.36,41.35,41.35,0,0,1-20.76-5.93,46.76,46.76,0,0,1-6-4.38q-4.9-3.92-10.13-7.41A204,204,0,0,0,1343.27,76c-8.24-4.17-16.67-8-25.1-11.75a2.58,2.58,0,0,0-3.42.9,2.52,2.52,0,0,0,.9,3.42Z"/><path class="cls-1" d="M2071.35,155.07c-.89-12.71-10.79-23.42-24.46-38.22-10.39-11.24-27.59-29.39-56.87-38.52-29.76-9.28-55.43-4-67-.92a54.08,54.08,0,0,0-16.51-24.76c-12.46-10.32-27-12.06-34.59-13a80,80,0,0,0-9.53-.56l-.26-.76a29.67,29.67,0,0,0-49.45-5.26A30.73,30.73,0,0,1,1808.5,38a20.74,20.74,0,0,1-6,3c-6.67,2.44-13.44,5.12-18.71,9.88s-8.8,12.05-7.22,19l-3.17,2c-5,1.67-11,4.72-14.05,10.51a11.49,11.49,0,0,0-.71,1.63c-5.09,13.08-10.21,21.55-15,35.66a112,112,0,0,0-4.82,17.2c-1.5,8-3.29,17.49-.69,27.52,1.17,4.49,3.16,8.88,11.7,19.95,15.71,20.35,23.57,30.53,34.39,34.62,15.4,5.82,29.77,1.81,34.4.46A59.38,59.38,0,0,0,1846,201.85l-.34,1.43a99.92,99.92,0,0,0-19.86,37.91c-4.24-5.85-9.72-12.34-16.94-11.95a3.84,3.84,0,0,0-2.17.65c-1.83,1.41-.67,4.33.7,6.19,4.65,6.31,10.47,12,13,19.44,2.07,6.11,1.7,12.88,4,18.89a22.5,22.5,0,0,0,17.18,13.75c9.21,1.42,18.18-3,27.27-5.1,13.23-3,27-1,40.47.79,3,.39,6.72.36,8-2.34,1.52-3.27-2.25-6.43-5.51-8a135.92,135.92,0,0,0-36.63-11.3c-1.69-.27-3.38-.51-5.07-.74,9.77-16.44,16.94-34.21,24.73-51.67,3.74-8.38-6.7,22.22-6.7,22.22a42.63,42.63,0,0,0,31.23,6.26,59.26,59.26,0,0,0,8.89-2.4c9.08-3.24,23.41-6.42,46.16-5.79C2034,213,2073.24,182.13,2071.35,155.07Z"/><path class="cls-2" d="M2073.85,155.07c-1-12.74-9.79-23-18-32.08-7.16-8-14.42-16-22.54-23a119.2,119.2,0,0,0-75.69-29.34A126.06,126.06,0,0,0,1922.4,75l3.08,1.75a56.67,56.67,0,0,0-16.92-25.68c-8.55-7.16-19-11.21-30-13a103.08,103.08,0,0,0-16.17-1.46l2.42,1.84c-2.35-6.76-8.82-12.47-15.1-15.52A31.79,31.79,0,0,0,1826.67,21a33.1,33.1,0,0,0-10.49,5.32,32.66,32.66,0,0,0-4.23,3.83c-1.43,1.57-2.57,3.38-4,4.92-2.88,3-7.59,3.89-11.33,5.42a54.13,54.13,0,0,0-11.45,6c-7.52,5.47-13,14.34-11,23.9l1.15-2.83c-.94.58-1.86,1.2-2.82,1.74-.1.06-.56.28-.16.1-.38.18-.81.29-1.21.44-1,.4-2.07.83-3.07,1.31A24.46,24.46,0,0,0,1758,79.65a38.71,38.71,0,0,0-3,6.63c-1,2.33-2,4.63-3,6.92-2,4.44-4.08,8.83-6,13.3-4,9.29-7.56,19-9.5,28.93s-3.45,20.34-.58,30.33c1.79,6.2,5.64,11.59,9.45,16.7,6,8,12.06,16,18.61,23.5,4.23,4.86,8.86,9.63,14.48,12.88,7.7,4.46,17.19,5.93,26,5.45a63.32,63.32,0,0,0,41-18.21c.8-.8,1.57-1.62,2.32-2.46l-4.18-2.44a4.51,4.51,0,0,0-.29,1.25c-.06.21,0,.15.1-.19s.16-.4-.23.15a11.87,11.87,0,0,0-.89,1.1q-1.89,2.35-3.64,4.81a102.09,102.09,0,0,0-6.32,10.09,103.5,103.5,0,0,0-8.93,22.13l4.57-.59c-4.09-5.63-9.16-12-16.51-13-3.64-.52-8.26.55-8.2,5.09,0,3.68,2.91,6.65,5.06,9.34a91,91,0,0,1,7.12,9.6,30.59,30.59,0,0,1,3.88,11c.71,4.23,1,8.58,2.49,12.64a24.9,24.9,0,0,0,5.64,9,25.37,25.37,0,0,0,20.59,7.31c8.68-.82,16.67-4.69,25.24-6.05,9-1.43,18.23-.62,27.2.46,2.22.26,4.44.56,6.66.85a27.08,27.08,0,0,0,5.75.43c3.37-.28,6.61-2,7.19-5.59.68-4.23-3.19-7.57-6.57-9.31a108.72,108.72,0,0,0-13.44-5.58,147.18,147.18,0,0,0-29.29-6.92l1.5,3.67a298.6,298.6,0,0,0,15-29.71c2.25-5,4.45-10.07,6.66-15.12,1-2.34,2-4.69,3.1-7,.13-.29.31-.57.42-.87.28-.75-.19.26-.62.48l-1.26.35h0l-1.26-.35c-.49-.34-1.52-1.81-1.14-2.53a1.76,1.76,0,0,0-.07.33c-.1.32-.16.66-.25,1-.26.94-.54,1.87-.83,2.8-.83,2.69-1.7,5.37-2.58,8q-1.85,5.63-3.76,11.23a2.52,2.52,0,0,0,1.15,2.82,45.35,45.35,0,0,0,25.62,7.32,51.91,51.91,0,0,0,13.32-2.2c2.48-.73,4.89-1.66,7.37-2.4a103.24,103.24,0,0,1,18.54-3.56c4.24-.44,8.51-.69,12.77-.78,2.23-.05,4.47-.06,6.7,0a19.34,19.34,0,0,0,3.88,0c1.38-.27,2.76-.8,4.11-1.21a246.75,246.75,0,0,0,49.07-20.43c12-6.73,23.65-14.82,32.76-25.19,7.38-8.41,13.56-19.07,12.81-30.63-.21-3.19-5.21-3.22-5,0,.58,9-3.58,17.51-9.27,24.62-8,10-18.63,17.87-29.6,24.43a227.36,227.36,0,0,1-45.78,20.38c-2.29.75-4.59,1.48-6.9,2.17a23.92,23.92,0,0,1-2.93.87,28.23,28.23,0,0,1-4.41,0c-4.4,0-8.8.08-13.18.39a125,125,0,0,0-20.28,2.94c-6.53,1.56-12.73,4.33-19.41,5.3a40.51,40.51,0,0,1-27.67-6.28l1.15,2.82c2.28-6.68,4.57-13.37,6.6-20.12a16.85,16.85,0,0,0,1-4,2.58,2.58,0,0,0-4.85-1.29c-1.64,2.63-2.64,5.83-3.89,8.67-2,4.57-4,9.14-6,13.7A303.32,303.32,0,0,1,1868,260.23c-.73,1.25-.14,3.45,1.49,3.68a151.44,151.44,0,0,1,22.91,4.82q5.57,1.68,11,3.82c3.24,1.28,7,2.51,9.8,4.66,1.69,1.3,3.25,3.66.2,4.22s-6.82-.46-10-.87c-7.89-1-15.85-1.85-23.81-1.43a67,67,0,0,0-11.89,1.65c-3.71.89-7.33,2.12-11,3.17-6.54,1.87-13.67,3.22-20.05.05a20.52,20.52,0,0,1-10.94-14.17c-.83-3.63-1.1-7.36-1.83-11a32.39,32.39,0,0,0-3.8-10,77.62,77.62,0,0,0-6.79-9.35c-1.24-1.55-2.54-3.07-3.68-4.69a8.38,8.38,0,0,1-1-1.81c-.08-.19-.25-1.2-.35-1.07.62-.81,3.47,0,4.26.27a13.52,13.52,0,0,1,4.14,2.32,39.61,39.61,0,0,1,7.09,7.92,2.54,2.54,0,0,0,4.57-.6,97.58,97.58,0,0,1,8.84-21.68,100.34,100.34,0,0,1,6.24-9.81q1.64-2.28,3.42-4.44a7.34,7.34,0,0,0,1.7-3.41c.55-2.3-2.43-4.38-4.17-2.43A58.49,58.49,0,0,1,1810,218.7c-8.59,1.41-18.15.76-26-2.67-5.15-2.25-9.37-6-13.2-10.06-5.92-6.25-11.14-13.17-16.4-20-3-3.86-6-7.72-8.71-11.8-.86-1.3-1.68-2.63-2.44-4-.32-.58-.62-1.17-.91-1.76l-.36-.76c-.14-.31-.19-.44-.21-.48-3.15-7.72-2.78-16.44-1.45-24.52a140.7,140.7,0,0,1,7.59-27.54c3.4-8.9,7.75-17.39,11.42-26.17a48.44,48.44,0,0,1,2.64-6.15,16.35,16.35,0,0,1,4.11-4.58,25.46,25.46,0,0,1,5.2-3,38.1,38.1,0,0,0,3.9-1.62c.93-.54,1.83-1.12,2.74-1.68A2.59,2.59,0,0,0,1779,69.1c-1.52-7.18,3.08-14.17,8.67-18.25a47.71,47.71,0,0,1,10-5.4c3.53-1.46,7.43-2.44,10.73-4.39s5.16-5.37,7.8-8.08a27.87,27.87,0,0,1,8.61-6,27,27,0,0,1,19.64-.91,27.45,27.45,0,0,1,9.41,5.53c2.42,2.17,5.15,5.14,6.19,8.15a2.58,2.58,0,0,0,2.41,1.83,84,84,0,0,1,26.15,4,49.22,49.22,0,0,1,25.94,19.69,55.34,55.34,0,0,1,6.13,12.76,2.55,2.55,0,0,0,3.07,1.75,117.5,117.5,0,0,1,71.11,2.77,112.32,112.32,0,0,1,31.7,18.15,196.24,196.24,0,0,1,20.36,19.8c5.33,5.78,10.81,11.56,15.27,18.06,3.39,4.93,6.21,10.41,6.68,16.46C2069.1,158.26,2074.1,158.28,2073.85,155.07Z"/><path class="cls-2" d="M1811.5,52c4.67.14,9.11-2,13.6-3a38.73,38.73,0,0,1,10.4-1,31.82,31.82,0,0,1,9.39,1.58,34.22,34.22,0,0,0,10.74,2.16A41.43,41.43,0,0,0,1868.58,50c3.08-.91,1.77-5.73-1.33-4.82a37,37,0,0,1-10.71,1.56,29.13,29.13,0,0,1-10.08-1.91,35.85,35.85,0,0,0-10-1.8,42.17,42.17,0,0,0-10.28.62,60.88,60.88,0,0,0-7.28,1.79c-2.42.74-4.81,1.63-7.38,1.55-3.22-.09-3.22,4.91,0,5Z"/><path class="cls-2" d="M1940,154c10.17-6,12.73-19.25,11.42-30.17-1.48-12.32-7.77-22.84-15-32.61-4-5.39-8.27-10.62-12.11-16.15a2.56,2.56,0,0,0-3.42-.9,2.52,2.52,0,0,0-.89,3.42c6.39,9.21,14,17.61,19.63,27.33,5.56,9.55,9,21.07,6.29,32.09-1.22,5.08-3.8,9.94-8.41,12.68-2.76,1.64-.25,6,2.53,4.31Z"/><path class="cls-2" d="M1865.9,91.25c-.3-1.85,1.09-3.74,2.29-5a17.52,17.52,0,0,1,5.08-3.52c3.94-1.87,8.39-2.6,12.65-3.33a2.53,2.53,0,0,0,1.75-3.08,2.57,2.57,0,0,0-3.08-1.75c-5.14.89-10.38,1.91-15,4.44-4.9,2.69-9.46,7.59-8.5,13.56a2.5,2.5,0,0,0,4.82-1.33Z"/><path class="cls-1" d="M1992.75,224l-14-4c-3.61-1-8.67-1.38-9.94,2.15-1.21,3.36,2.47,6.3,5.62,8l13.43,7.15a3,3,0,0,1,1.3,1.07c.8,1.51-1.25,2.88-2.87,3.38a244,244,0,0,0-49.31,21.4c-2.94,1.69-6,3.57-7.57,6.56s-1,7.39,2,8.88c2.2,1.08,4.81.36,7.14-.39L1979.77,265a10.08,10.08,0,0,1,4.89-.71c4.75.89,5.61,7.37,4.68,12.12s-2.26,10.47,1.28,13.76l.9-.23c2.5-6.06,7.74-10.48,12.8-14.66,5.53-4.58,11.16-9.22,17.74-12.09,11-4.79,23.49-4.25,35.06-7.33a57.83,57.83,0,0,0,31.4-21.41c4.82-6.56,8.19-14.07,11-21.73,4.21-11.64,7.13-24.17,5-36.37-.78-4.48-2.3-9-5.33-12.34-4.74-5.28-12.24-6.94-19.24-8.1-14.59-2.42-29.56-3.9-44.14-1.43s-28.87,9.25-38,20.9a47.77,47.77,0,0,0-8.57,40.39c1.25,5,3.48,10,7.48,13.27a24.59,24.59,0,0,0,8,4.06c11.42,3.75,23.92,3.23,35.57.29s22.59-8.21,33.2-13.86"/><path class="cls-2" d="M1993.42,221.59l-9.33-2.67a54.46,54.46,0,0,0-7.74-1.95,11.7,11.7,0,0,0-6.62.74,6.4,6.4,0,0,0-3.64,5.6c-.09,5.88,6.65,8.74,11,11.05l8.23,4.38a12.75,12.75,0,0,0,1.9,1c-.32.21-.38-1.13-.34-1.11a5.92,5.92,0,0,0-.93.53c-.79.34-1.68.53-2.5.8A247.38,247.38,0,0,0,1950,253.43c-5.29,2.58-10.56,5.29-15.6,8.33-4.33,2.62-8.62,6.48-8.3,12a8.4,8.4,0,0,0,2.82,6.09c2.41,2,5.53,2,8.44,1.29s6-1.87,9-2.83l9.47-3,18.47-5.9,4.27-1.37a22.9,22.9,0,0,1,4.66-1.31c1.81-.15,2.66.7,3.32,2.24a12,12,0,0,1,.61,5.19c-.13,1.94-.76,4.21-1,6.31a16.53,16.53,0,0,0,.32,7.6,10.18,10.18,0,0,0,1.74,3.14,3.19,3.19,0,0,0,3.58,1.29c1.55-.42,2-1.41,2.61-2.72a23.37,23.37,0,0,1,2.09-3.37,37.21,37.21,0,0,1,5.2-5.52,135.22,135.22,0,0,1,12.79-10.36,46.54,46.54,0,0,1,15.4-7.3c5.59-1.43,11.35-2,17.06-2.85a76.61,76.61,0,0,0,16.17-3.77,60.62,60.62,0,0,0,13.81-7.29,63.83,63.83,0,0,0,20.55-25c5.18-10.91,9.19-22.94,10.13-35,.84-10.89-.85-24.1-10.81-30.51-4.25-2.74-9.31-4-14.24-4.9-6.13-1.11-12.33-2-18.54-2.53-22.35-2-47,1.25-63.69,17.63a49.58,49.58,0,0,0-14.2,27.57,51.3,51.3,0,0,0,0,16c.81,5.13,2.43,10.42,5.55,14.64,3.56,4.82,8.76,7.34,14.42,9a60,60,0,0,0,18,2.12c12.16-.36,23.87-3.94,35-8.78,5.37-2.35,10.6-5,15.78-7.76,2.84-1.51.32-5.83-2.53-4.31-13.22,7-27.22,13.69-42.27,15.42a58.79,58.79,0,0,1-22-1.33,26.55,26.55,0,0,1-9.32-4.07,18.24,18.24,0,0,1-5.5-7.58c-4.83-11.67-3.27-25.89,2.66-36.84,6.13-11.31,17.07-19.06,29.08-23.17,14.26-4.89,29.58-4.75,44.39-2.95,6.8.82,14,1.6,20.44,4a17.07,17.07,0,0,1,11.65,12.95c3.86,14.42-.84,30.12-6.31,43.48a68.66,68.66,0,0,1-10.53,18.23A55.75,55.75,0,0,1,2070,247.77a57.21,57.21,0,0,1-18.33,6.76c-7.13,1.37-14.41,1.84-21.5,3.45a52.06,52.06,0,0,0-19.55,9.11c-2.89,2.13-5.65,4.4-8.41,6.69a72.84,72.84,0,0,0-7.46,6.81,28.89,28.89,0,0,0-5.42,8.1l1.49-1.15-.89.23,2.43.64c-1.9-1.86-1.74-4.72-1.41-7.18.41-3,1.28-5.81,1.18-8.82a13.11,13.11,0,0,0-2.56-7.92c-2.22-2.72-5.71-3.19-9-2.35-4,1-8,2.52-12,3.79l-12.08,3.85-12.07,3.86-5.92,1.89c-1.63.52-3.5,1.31-5.24,1.05-2.2-.33-2.63-2.79-2.15-4.64.72-2.79,3.62-4.64,6-6.07a219.24,219.24,0,0,1,20.66-10.68q10.59-4.86,21.62-8.64,2.73-.93,5.46-1.8a15.26,15.26,0,0,0,4.68-2,4.54,4.54,0,0,0,2-4.82c-.56-2-2.44-2.78-4.09-3.65l-11-5.88c-1.7-.91-5.94-2.92-5.46-5.28.13-.65.58-.94,1.33-1.15a8.52,8.52,0,0,1,3.23-.12,32.26,32.26,0,0,1,4.53,1.13l6.06,1.74,5.83,1.66c3.1.89,4.42-3.94,1.33-4.82Z"/><path class="cls-2" d="M1772.14,73.88c15.39,6.91,30.87,13.87,45,23.13,3.45,2.25,6.82,4.63,10,7.19a73.73,73.73,0,0,0,6.75,5.06,46.72,46.72,0,0,0,21.63,6.91c8.54.55,16.94-1.52,24.7-5a2.51,2.51,0,0,0,.9-3.42,2.55,2.55,0,0,0-3.42-.9,48.74,48.74,0,0,1-19.9,4.36,41.55,41.55,0,0,1-20.76-5.93,47.52,47.52,0,0,1-6-4.39q-4.9-3.91-10.12-7.4a204.13,204.13,0,0,0-21.23-12.23c-8.24-4.18-16.67-8-25.09-11.75a2.57,2.57,0,0,0-3.42.9,2.52,2.52,0,0,0,.9,3.42Z"/><path class="cls-1" d="M2490.53,149c-.89-12.71-10.79-23.42-24.46-38.22-10.39-11.24-27.59-29.39-56.87-38.52-29.76-9.28-55.43-4-66.95-.92a54.08,54.08,0,0,0-16.51-24.76c-12.46-10.32-27-12.06-34.59-13a80,80,0,0,0-9.52-.56l-.27-.76a29.67,29.67,0,0,0-49.45-5.26,30.73,30.73,0,0,1-4.23,4.86,20.74,20.74,0,0,1-6,3C2215,37.33,2208.24,40,2203,44.77s-8.8,12-7.22,19l-3.17,2c-5,1.67-11,4.72-14,10.51a11.74,11.74,0,0,0-.71,1.63c-12.37,32.65-11,48.62-11,48.62.52,6.06,2.7,21.82,13.76,35.77,2.19,2.76,7.57,7.34,18.35,16.51,12,10.25,17.48,13.81,24.3,16.51a58.47,58.47,0,0,0,42,.58l-.34,1.43A99.92,99.92,0,0,0,2245,235.16c-4.24-5.85-9.72-12.34-16.94-11.95a3.84,3.84,0,0,0-2.17.65c-1.83,1.41-.67,4.33.7,6.19,4.65,6.31,10.47,12,13,19.44,2.07,6.11,1.7,12.88,4,18.89a22.5,22.5,0,0,0,17.18,13.75c9.21,1.42,18.18-3,27.27-5.1,13.23-3,27-1,40.47.79,2.95.39,6.72.36,8-2.34,1.52-3.27-2.25-6.43-5.51-8a135.92,135.92,0,0,0-36.63-11.3c-1.69-.27-3.38-.51-5.07-.74,9.77-16.44,16.94-34.21,24.73-51.67,3.74-8.38-6.7,22.22-6.7,22.22a42.63,42.63,0,0,0,31.23,6.26,59.26,59.26,0,0,0,8.89-2.4c9.08-3.24,23.41-6.42,46.16-5.79C2453.14,206.93,2492.42,176.1,2490.53,149Z"/><path class="cls-2" d="M2493,149c-1-12.75-9.81-23-18-32.11-7.15-8-14.4-16-22.51-23a119.12,119.12,0,0,0-75.93-29.35,126,126,0,0,0-35,4.39l3.08,1.75A56.61,56.61,0,0,0,2327.73,45c-8.59-7.2-19.13-11.25-30.11-13a102.09,102.09,0,0,0-16-1.44l2.41,1.84c-2.34-6.73-8.78-12.44-15-15.49a31.84,31.84,0,0,0-23-2,33,33,0,0,0-10.76,5.45,30.49,30.49,0,0,0-4.17,3.78c-1.41,1.57-2.56,3.37-4,4.9-3,3.08-7.87,4-11.71,5.57a53.32,53.32,0,0,0-11.14,5.91c-7.48,5.47-12.91,14.32-10.9,23.85l1.15-2.83-2.67,1.65a4.71,4.71,0,0,1-.48.29c.47-.23-.46.13-.6.18-1,.37-2,.79-3,1.23a25.16,25.16,0,0,0-10,7.92,25.29,25.29,0,0,0-3.07,6.42q-1.39,3.8-2.67,7.63c-1.44,4.36-2.75,8.76-3.89,13.2a130.11,130.11,0,0,0-3.42,18.48,47.58,47.58,0,0,0-.35,7.64c.76,13.51,6.09,27.82,14.82,38.16,4,4.74,9.23,8.62,13.92,12.62,6.67,5.69,13.3,11.67,20.77,16.31,13.86,8.61,31.19,10.58,46.86,6.51,1.76-.45,3.49-1,5.21-1.58l-3.08-3.08-.34,1.44.65-1.11a103.63,103.63,0,0,0-20.51,39l4.57-.6c-4.14-5.69-9.29-12.13-16.76-13.07-3.7-.46-8.12.79-7.94,5.33.15,3.8,3.25,6.91,5.49,9.7a80.09,80.09,0,0,1,6.89,9.4,31.17,31.17,0,0,1,3.78,11.28c.67,4.2,1,8.51,2.59,12.51a24.5,24.5,0,0,0,5.85,8.83,25.41,25.41,0,0,0,20.61,6.85c8.68-.94,16.68-4.8,25.3-6.08,8.92-1.32,18.07-.51,27,.57,3.89.47,8,1.55,12,1.26,3.4-.24,6.73-1.88,7.34-5.54.7-4.18-3-7.51-6.37-9.27a105.16,105.16,0,0,0-13.43-5.61,147.17,147.17,0,0,0-29.49-7l1.5,3.67a297.84,297.84,0,0,0,15-29.62c2.26-5,4.45-10,6.65-15.07,1-2.39,2.08-4.78,3.16-7.14.13-.29.3-.57.41-.86,0,0,.12-.17.12-.22l.07-.11a2.35,2.35,0,0,1-1.39,1h-1.32l-1.1-.64h0l-.64-1.11c-.11-.31-.1-.86-.09-.49,0-.87.12-.59,0-.3s-.15.61-.23.91c-.26,1-.55,1.91-.84,2.85-.83,2.7-1.7,5.38-2.58,8.06q-1.87,5.67-3.79,11.31a2.52,2.52,0,0,0,1.15,2.82,45.28,45.28,0,0,0,26,7.31A52.1,52.1,0,0,0,2345,233.3c2.54-.74,5-1.7,7.54-2.45a104,104,0,0,1,18.44-3.52c4.31-.44,8.64-.69,13-.78,2.38-.05,4.75-.05,7.13,0a14.33,14.33,0,0,0,3.76-.2c1.34-.34,2.66-.79,4-1.19a245.7,245.7,0,0,0,48.6-20.29c12-6.73,23.69-14.83,32.81-25.23,7.36-8.39,13.53-19,12.78-30.59-.21-3.19-5.21-3.22-5,0,.58,9-3.58,17.51-9.3,24.66-8,10-18.57,17.8-29.51,24.35a226.76,226.76,0,0,1-45.59,20.34c-2,.67-4.07,1.31-6.12,1.94-1.13.35-2.26.74-3.41,1a16.6,16.6,0,0,1-4.23.17c-4.49,0-9,.06-13.47.36a125.33,125.33,0,0,0-20.49,2.92c-6.61,1.56-12.87,4.36-19.61,5.34a40.38,40.38,0,0,1-27.7-6.28l1.15,2.83c2.28-6.7,4.58-13.41,6.62-20.19a16.09,16.09,0,0,0,1-3.91,2.56,2.56,0,0,0-4.81-1.35,10.32,10.32,0,0,0-.64,1.29c-1.1,2.41-2.14,4.84-3.21,7.26-2,4.66-4.07,9.32-6.15,14a299.25,299.25,0,0,1-15.37,30.45c-.73,1.25-.14,3.45,1.49,3.68a151.94,151.94,0,0,1,23.22,4.91q5.59,1.71,11,3.89c3.15,1.26,6.87,2.47,9.55,4.62,1.65,1.33,3,3.56,0,4.1-3.21.59-6.91-.48-10.09-.88-7.86-1-15.79-1.84-23.71-1.42a66.66,66.66,0,0,0-11.86,1.65c-3.63.87-7.17,2.06-10.76,3.1-6.6,1.91-13.8,3.32-20.26.13a20.46,20.46,0,0,1-10.94-14.06c-.82-3.53-1.1-7.14-1.78-10.69a32.58,32.58,0,0,0-3.68-10,72.57,72.57,0,0,0-6.75-9.4c-1.21-1.51-2.45-3-3.6-4.56a9.55,9.55,0,0,1-1.37-2.24c-.1-.24-.23-1.23-.35-1.07.6-.79,3.38,0,4.17.24a13.33,13.33,0,0,1,4.17,2.31,38.44,38.44,0,0,1,7.15,8,2.54,2.54,0,0,0,4.57-.6,97.5,97.5,0,0,1,8.81-21.62,100,100,0,0,1,6.22-9.8q1.67-2.33,3.49-4.53a7.38,7.38,0,0,0,1.68-3.39c.42-1.74-1.19-3.73-3.07-3.07-14.73,5.1-31.29,4.64-45.05-2.61-6.34-3.34-11.93-8-17.38-12.62-5.87-5-11.92-9.82-17.42-15.19-5.15-5-8.78-11.84-11.27-18.53a66.77,66.77,0,0,1-4.11-17.91c-.48-6.54.83-12.87,2.18-19.18a194.8,194.8,0,0,1,7.31-25,28.26,28.26,0,0,1,2.79-6.37,16.45,16.45,0,0,1,3.93-4,26.6,26.6,0,0,1,5.15-2.9,27.78,27.78,0,0,0,3.77-1.58l2.58-1.59a2.59,2.59,0,0,0,1.15-2.82c-1.5-7.06,2.93-13.94,8.38-18a46.64,46.64,0,0,1,10.16-5.56c3.57-1.49,7.53-2.45,10.85-4.44s5.14-5.34,7.77-8a28,28,0,0,1,8.43-5.89A26.93,26.93,0,0,1,2263.51,20a27.72,27.72,0,0,1,9.65,5.69c2.36,2.14,5,5.1,6.05,8a2.58,2.58,0,0,0,2.42,1.83,84.05,84.05,0,0,1,26.1,4,49.28,49.28,0,0,1,26,19.76,55.08,55.08,0,0,1,6.1,12.71,2.56,2.56,0,0,0,3.07,1.75,117.46,117.46,0,0,1,71,2.73,111.81,111.81,0,0,1,31.93,18.27c7.49,6.08,14.11,13,20.63,20.12,5.26,5.7,10.64,11.41,15,17.83,3.33,4.89,6.09,10.31,6.56,16.29C2488.28,152.23,2493.28,152.25,2493,149Z"/><path class="cls-2" d="M2230.68,46c4.67.14,9.11-2,13.6-3a38.73,38.73,0,0,1,10.4-1,31.82,31.82,0,0,1,9.39,1.58,34.22,34.22,0,0,0,10.74,2.16,41.43,41.43,0,0,0,13-1.72c3.08-.91,1.77-5.73-1.33-4.83a36.63,36.63,0,0,1-10.71,1.57,29.14,29.14,0,0,1-10.08-1.92,36.2,36.2,0,0,0-10-1.79,42.67,42.67,0,0,0-10.28.61,62.89,62.89,0,0,0-7.28,1.8c-2.42.74-4.81,1.63-7.38,1.55-3.22-.09-3.22,4.91,0,5Z"/><path class="cls-2" d="M2359.17,148c10.17-6,12.73-19.25,11.42-30.17-1.48-12.32-7.77-22.84-15-32.61-4-5.39-8.27-10.62-12.11-16.15a2.56,2.56,0,0,0-3.42-.9,2.52,2.52,0,0,0-.89,3.42c6.39,9.21,14,17.61,19.63,27.33,5.56,9.55,8.95,21.07,6.29,32.09-1.22,5.08-3.8,9.94-8.41,12.68-2.76,1.64-.25,6,2.53,4.31Z"/><path class="cls-2" d="M2285.08,85.22c-.3-1.85,1.09-3.74,2.29-5a17.52,17.52,0,0,1,5.08-3.52c3.94-1.87,8.39-2.6,12.65-3.33a2.53,2.53,0,0,0,1.75-3.08,2.56,2.56,0,0,0-3.08-1.75c-5.14.89-10.38,1.91-15,4.44-4.9,2.69-9.46,7.59-8.5,13.56a2.5,2.5,0,0,0,4.82-1.33Z"/><path class="cls-1" d="M2411.93,218l-14-4c-3.61-1-8.67-1.38-9.94,2.15-1.21,3.36,2.47,6.3,5.62,8l13.43,7.15a3,3,0,0,1,1.3,1.07c.8,1.51-1.25,2.88-2.87,3.38a244,244,0,0,0-49.31,21.4c-2.94,1.69-6,3.57-7.57,6.56s-1,7.39,2,8.88c2.2,1.08,4.81.36,7.14-.39L2399,259a10.08,10.08,0,0,1,4.89-.71c4.75.89,5.61,7.37,4.68,12.11s-2.26,10.48,1.28,13.77l.9-.23c2.5-6.06,7.74-10.48,12.8-14.66,5.53-4.58,11.16-9.22,17.74-12.09,11-4.79,23.49-4.25,35.06-7.33a57.83,57.83,0,0,0,31.4-21.41c4.82-6.56,8.19-14.07,11-21.73,4.21-11.64,7.13-24.17,5-36.37-.78-4.48-2.3-9-5.33-12.34-4.74-5.28-12.24-6.94-19.24-8.1-14.59-2.42-29.56-3.9-44.14-1.43s-28.87,9.25-38,20.9a47.76,47.76,0,0,0-8.57,40.39c1.25,5,3.48,10,7.48,13.27a24.59,24.59,0,0,0,8,4.06c11.42,3.75,23.92,3.23,35.57.29s22.59-8.21,33.2-13.86"/><path class="cls-2" d="M2412.6,215.56l-9.33-2.67a54.46,54.46,0,0,0-7.74-1.95,11.7,11.7,0,0,0-6.62.74,6.4,6.4,0,0,0-3.64,5.6c-.09,5.88,6.65,8.74,11,11.05l8.23,4.38a12.75,12.75,0,0,0,1.9,1c-.32.21-.38-1.13-.34-1.11a6.41,6.41,0,0,0-.93.53c-.79.34-1.68.53-2.5.79a248.75,248.75,0,0,0-33.47,13.44c-5.29,2.58-10.56,5.29-15.6,8.33-4.33,2.62-8.62,6.48-8.3,12a8.4,8.4,0,0,0,2.82,6.09c2.41,2,5.53,2,8.44,1.29s6-1.87,9-2.83l9.47-3,18.47-5.9,4.27-1.37a22.9,22.9,0,0,1,4.66-1.31c1.81-.15,2.66.7,3.32,2.24a12,12,0,0,1,.61,5.19c-.13,1.94-.76,4.21-1,6.31a16.53,16.53,0,0,0,.32,7.6,10.18,10.18,0,0,0,1.74,3.14,3.19,3.19,0,0,0,3.58,1.29c1.55-.42,2-1.41,2.61-2.72a23.37,23.37,0,0,1,2.09-3.37,37.21,37.21,0,0,1,5.2-5.52,135.22,135.22,0,0,1,12.79-10.36,46.54,46.54,0,0,1,15.4-7.3c5.59-1.43,11.35-2,17.06-2.85a76.61,76.61,0,0,0,16.17-3.77,60.62,60.62,0,0,0,13.81-7.29,63.83,63.83,0,0,0,20.55-25c5.18-10.91,9.19-22.94,10.13-35,.84-10.89-.85-24.1-10.81-30.51-4.25-2.74-9.31-4-14.24-4.9-6.13-1.11-12.33-2-18.54-2.53-22.35-2-47,1.25-63.69,17.63a49.58,49.58,0,0,0-14.2,27.57,51.3,51.3,0,0,0,0,16c.81,5.13,2.43,10.42,5.55,14.64,3.56,4.82,8.76,7.34,14.42,9a60,60,0,0,0,18,2.12c12.16-.36,23.87-3.94,34.95-8.78,5.37-2.35,10.6-5,15.78-7.76,2.84-1.51.32-5.83-2.53-4.32-13.22,7-27.22,13.7-42.27,15.43a58.79,58.79,0,0,1-21.95-1.33,26.55,26.55,0,0,1-9.32-4.07,18.24,18.24,0,0,1-5.5-7.58c-4.83-11.67-3.27-25.89,2.66-36.84,6.13-11.31,17.07-19.06,29.08-23.17,14.26-4.89,29.58-4.75,44.39-2.95,6.8.82,14,1.6,20.44,4a17.07,17.07,0,0,1,11.65,12.95c3.86,14.42-.84,30.12-6.31,43.48a68.66,68.66,0,0,1-10.53,18.23,55.75,55.75,0,0,1-14.52,12.28,57.21,57.21,0,0,1-18.33,6.76c-7.13,1.37-14.41,1.84-21.5,3.45a52.06,52.06,0,0,0-19.55,9.11c-2.89,2.12-5.65,4.4-8.41,6.69a72.84,72.84,0,0,0-7.46,6.81,28.89,28.89,0,0,0-5.42,8.1l1.49-1.15-.89.23,2.43.64c-1.9-1.86-1.74-4.72-1.41-7.18.41-2.95,1.28-5.81,1.18-8.82a13.11,13.11,0,0,0-2.56-7.92c-2.22-2.72-5.71-3.19-9-2.35-4,1-8,2.52-12,3.79l-12.08,3.85-12.07,3.86-5.92,1.89c-1.63.52-3.5,1.31-5.24,1.05-2.2-.33-2.63-2.79-2.15-4.64.72-2.79,3.62-4.64,6-6.07a219.24,219.24,0,0,1,20.66-10.68q10.59-4.86,21.62-8.64,2.73-.93,5.46-1.8a15.26,15.26,0,0,0,4.68-2,4.54,4.54,0,0,0,2-4.82c-.56-2-2.44-2.78-4.09-3.65l-11-5.88c-1.7-.91-5.94-2.92-5.46-5.28.13-.65.58-.94,1.33-1.15a8.52,8.52,0,0,1,3.23-.12,32.26,32.26,0,0,1,4.53,1.13l6.06,1.74,5.83,1.66c3.1.89,4.42-3.94,1.33-4.82Z"/><path class="cls-2" d="M2191.32,67.85c15.39,6.91,30.87,13.87,45,23.13,3.45,2.25,6.82,4.63,10.05,7.19a73.73,73.73,0,0,0,6.75,5.06,46.72,46.72,0,0,0,21.63,6.91c8.54.55,16.94-1.52,24.7-5a2.51,2.51,0,0,0,.9-3.42,2.55,2.55,0,0,0-3.42-.9,48.74,48.74,0,0,1-19.9,4.36,41.55,41.55,0,0,1-20.76-5.93,47.52,47.52,0,0,1-6-4.39q-4.91-3.91-10.12-7.4a204.13,204.13,0,0,0-21.23-12.23c-8.24-4.18-16.67-8-25.09-11.75a2.57,2.57,0,0,0-3.42.9,2.52,2.52,0,0,0,.9,3.42Z"/><path class="cls-1" d="M2907,151.79a143.57,143.57,0,0,0-24.46-38.21c-8.55-9.58-26.36-29-56.87-38.53-29.76-9.27-55.43-4-67-.91a54.1,54.1,0,0,0-16.51-24.77c-12.46-10.32-27-12.06-34.59-13a80,80,0,0,0-9.52-.56l-.27-.76a29.67,29.67,0,0,0-49.45-5.26,30.73,30.73,0,0,1-4.23,4.86,20.74,20.74,0,0,1-6,3c-6.67,2.45-13.44,5.13-18.71,9.88s-8.8,12-7.22,19l-3.17,2c-5,1.68-11,4.72-14.05,10.51-2,3.71-3.28,9.48,10.24,42.27,8.57,20.78,11.8,25,15.9,28.59,7.55,6.56,14.28,7.56,21.32,10.31,11.12,4.36,25.66,14.14,39.21,38.45l-.33,1.43a99.88,99.88,0,0,0-19.87,37.91c-4.24-5.85-9.72-12.34-16.94-11.95a3.84,3.84,0,0,0-2.17.65c-1.83,1.41-.67,4.33.7,6.2,4.65,6.3,10.47,12,13,19.43,2.07,6.11,1.7,12.88,4.05,18.89a22.5,22.5,0,0,0,17.18,13.75c9.21,1.42,18.18-3,27.27-5.1,13.23-3,27-1,40.47.8,2.95.39,6.72.35,8-2.35,1.52-3.27-2.25-6.43-5.51-8a135.92,135.92,0,0,0-36.63-11.3c-1.69-.27-3.38-.51-5.07-.74,9.77-16.44,16.94-34.21,24.73-51.67,3.74-8.38-6.7,22.23-6.7,22.23a42.67,42.67,0,0,0,31.23,6.25,59.78,59.78,0,0,0,8.89-2.4c9.14-3.27,46.16-5.79,46.16-5.79L2907,151.79"/><path class="cls-2" d="M2909.18,150.53a152.52,152.52,0,0,0-40.18-54,119.86,119.86,0,0,0-75.42-29.16,125.61,125.61,0,0,0-35.51,4.39l3.08,1.74A56.64,56.64,0,0,0,2744.42,48c-8.59-7.27-19.16-11.37-30.18-13.16a102.56,102.56,0,0,0-16.12-1.46l2.41,1.84a25.44,25.44,0,0,0-6-8.93,32.72,32.72,0,0,0-9.05-6.56,31.78,31.78,0,0,0-22.87-2A32.94,32.94,0,0,0,2651.89,23a32.45,32.45,0,0,0-4,3.58c-1.54,1.65-2.74,3.57-4.3,5.2-2.83,3-7.39,3.83-11.07,5.32a53.69,53.69,0,0,0-11.84,6.21c-7.45,5.47-12.86,14.31-10.84,23.8l1.15-2.82-2.58,1.58a4.94,4.94,0,0,1-.49.3s.21-.08-.27.08c-1,.32-2,.75-2.93,1.17a25.64,25.64,0,0,0-9.45,6.75,15.47,15.47,0,0,0-3.86,8.16,27.35,27.35,0,0,0,.81,8.91,126.53,126.53,0,0,0,5.29,17c3.18,8.61,6.66,17.15,10.46,25.5,2.09,4.6,4.27,9.3,7.33,13.36a34.73,34.73,0,0,0,11.78,9.74c6.09,3.16,13,4.56,18.83,7.5,12.63,6.31,22.3,17.15,29.76,28.93q2,3.21,3.88,6.53l-.26-1.93-.34,1.44.65-1.11a103.63,103.63,0,0,0-20.51,39l4.57-.59c-4.17-5.73-9.33-12.17-16.85-13.09-3.73-.46-8,.9-7.85,5.38.13,3.79,3.29,6.91,5.52,9.68a81,81,0,0,1,6.87,9.39,31.58,31.58,0,0,1,3.79,11.36c.65,4.17,1,8.45,2.57,12.42a24.53,24.53,0,0,0,5.91,8.89,25.4,25.4,0,0,0,20.55,6.79c8.64-.94,16.6-4.76,25.17-6.05,9.05-1.37,18.33-.53,27.36.57,5.47.67,18.52,4.2,19.15-4.93.28-4.09-3.59-7.23-6.88-8.86a122.62,122.62,0,0,0-13.53-5.59,148.42,148.42,0,0,0-29-6.8l1.5,3.67a296.46,296.46,0,0,0,15-29.71c2.24-5,4.42-10,6.61-15,1-2.37,2.07-4.76,3.15-7.12.12-.27.28-.55.39-.83,0-.08.15-.2.16-.28l.06-.09a2.33,2.33,0,0,1-1.4,1.06l-1.92-.26h0l-.9-.9a2.12,2.12,0,0,1-.27-1.55,3.25,3.25,0,0,0-.15.65c-.15.64-.34,1.28-.53,1.91-.57,1.92-1.18,3.82-1.79,5.73-1.32,4.08-2.68,8.14-4.05,12.2-.31.94-.63,1.87-.95,2.81a2.53,2.53,0,0,0,1.15,2.82c12.34,8.07,27.45,9.09,41.24,4.4,7.64-2.61,16-3.21,24-4.05,7.22-.76,14.45-1.32,21.69-1.89a5.18,5.18,0,0,0,2.88-1.17l3-2.29,30.3-23.46,39.9-30.91,15.28-11.83c2.52-1.95,5.17-3.82,7.61-5.89.11-.1.24-.19.36-.28a2.52,2.52,0,0,0,0-3.54,2.57,2.57,0,0,0-3.54,0l-9.61,7.45-23.21,18-27.95,21.65-24.18,18.73-8,6.18c-1.25,1-2.63,1.88-3.8,2.94l-.18.14,1.77-.74q-12,.82-24.06,2.13c-5.62.61-11.25,1.27-16.81,2.3s-10.61,3.19-16.12,4.07a40.27,40.27,0,0,1-28-6.22l1.15,2.82c2.27-6.67,4.56-13.35,6.6-20.09a27.88,27.88,0,0,0,.89-3.34c.51-2.94-3-4.73-4.74-2a15,15,0,0,0-.86,1.81q-1.55,3.48-3.07,7c-2,4.56-4,9.12-6,13.66a301.63,301.63,0,0,1-15.4,30.52c-.73,1.24-.14,3.44,1.49,3.67a151,151,0,0,1,23,4.84q5.49,1.66,10.84,3.78c3.21,1.27,6.84,2.49,9.65,4.54,1.58,1.15,3.63,3.65.59,4.32s-6.53-.36-9.51-.74c-8-1-16.11-1.93-24.2-1.54a66.08,66.08,0,0,0-12.12,1.67c-3.67.87-7.25,2.08-10.87,3.13-6.56,1.89-13.72,3.28-20.14.12a20.43,20.43,0,0,1-10.94-14c-.86-3.6-1.13-7.3-1.83-10.93a32.75,32.75,0,0,0-3.91-10.37,79.27,79.27,0,0,0-6.69-9.19c-1.26-1.56-2.57-3.11-3.73-4.75a8.4,8.4,0,0,1-1.07-1.86c-.09-.24-.14-.49-.22-.74-.14-.43.14-.52-.09-.3.78-.74,3.29,0,4.19.28a13.26,13.26,0,0,1,4.14,2.3,38.89,38.89,0,0,1,7.14,7.95,2.54,2.54,0,0,0,4.57-.6A98.44,98.44,0,0,1,2677,210c1.46-2.19,3-4.32,4.64-6.37,1.2-1.5,2.37-2.74,2.55-4.72.13-1.42-1-2.76-1.64-3.94s-1.47-2.49-2.24-3.71c-1.43-2.28-2.93-4.52-4.51-6.69-9-12.41-20.56-22.68-35.19-27.79-4.35-1.52-8.74-2.83-12.73-5.2a31.81,31.81,0,0,1-7-5.48c-.28-.31-.56-.62-.82-.94-.14-.15-.26-.31-.39-.47-.36-.44.16.24-.18-.23-.64-.87-1.24-1.75-1.8-2.67a85.59,85.59,0,0,1-4.28-8.09c-4.35-9.19-8.17-18.69-11.64-28.24-2.1-5.8-4.2-11.75-5.19-17.85l-.12-.77c.07.49,0,.13,0-.15s-.09-.82-.12-1.24a18,18,0,0,1,0-2.08c0-.28.05-.55.07-.82s-.13.65,0,.18c0-.15,0-.3.08-.45.11-.45.24-.87.38-1.31.19-.64-.19.32,0,0,.09-.16.16-.35.25-.52a15.87,15.87,0,0,1,3.34-4.39,22.49,22.49,0,0,1,5.46-3.63c1.52-.75,3.24-1.15,4.7-2,1-.56,2-1.21,3-1.81a2.59,2.59,0,0,0,1.15-2.82c-1.5-7,2.91-13.9,8.32-18a46.35,46.35,0,0,1,10.36-5.67c3.56-1.47,7.53-2.43,10.83-4.44s5.19-5.52,7.9-8.24a27.74,27.74,0,0,1,8.45-5.76,27,27,0,0,1,19.64-.87,27.46,27.46,0,0,1,9.51,5.66c2.36,2.14,5,5.14,6,8a2.58,2.58,0,0,0,2.42,1.83,84,84,0,0,1,26,4,49.39,49.39,0,0,1,26.12,19.85,55.45,55.45,0,0,1,6,12.64,2.54,2.54,0,0,0,3.07,1.75,117.47,117.47,0,0,1,72.26,3.2,114.28,114.28,0,0,1,31.44,18.3,158.72,158.72,0,0,1,18.31,18,142.18,142.18,0,0,1,23.45,37,2.51,2.51,0,0,0,3.42.9,2.57,2.57,0,0,0,.9-3.42Z"/><path class="cls-2" d="M2647.17,48.73c4.67.14,9.11-2,13.6-3a38.76,38.76,0,0,1,10.41-1,31.75,31.75,0,0,1,9.38,1.58,34.51,34.51,0,0,0,10.74,2.17,41.73,41.73,0,0,0,12.95-1.73c3.08-.9,1.77-5.73-1.33-4.82a37,37,0,0,1-10.71,1.56,29.13,29.13,0,0,1-10.08-1.91,35.78,35.78,0,0,0-10-1.8,42.71,42.71,0,0,0-10.28.62,60.88,60.88,0,0,0-7.28,1.79c-2.42.75-4.81,1.63-7.38,1.55-3.22-.09-3.22,4.91,0,5Z"/><path class="cls-2" d="M2775.66,150.74c10.17-6,12.73-19.25,11.42-30.17-1.48-12.32-7.77-22.83-15-32.6-4-5.4-8.27-10.63-12.11-16.16a2.56,2.56,0,0,0-3.42-.9,2.52,2.52,0,0,0-.89,3.42c6.39,9.21,14,17.61,19.64,27.33,5.55,9.55,8.94,21.07,6.28,32.09-1.22,5.08-3.8,9.94-8.41,12.68-2.76,1.64-.25,6,2.53,4.31Z"/><path class="cls-2" d="M2701.57,88c-.3-1.85,1.09-3.74,2.29-5a17.36,17.36,0,0,1,5.08-3.53c3.94-1.87,8.39-2.6,12.65-3.33a2.52,2.52,0,0,0,1.75-3.08,2.56,2.56,0,0,0-3.08-1.74c-5.14.88-10.38,1.9-15,4.43-4.9,2.69-9.46,7.59-8.5,13.56a2.5,2.5,0,1,0,4.82-1.33Z"/><path class="cls-1" d="M2828.42,220.72l-14-4c-3.61-1-8.67-1.38-9.94,2.15-1.21,3.36,2.47,6.3,5.62,8l13.43,7.15a2.92,2.92,0,0,1,1.3,1.07c.8,1.51-1.25,2.88-2.87,3.38a243.5,243.5,0,0,0-49.31,21.41c-2.93,1.68-6,3.57-7.57,6.56s-1,7.38,2,8.87c2.2,1.09,4.81.36,7.14-.39l41.21-13.16a10.08,10.08,0,0,1,4.89-.71c4.75.9,5.61,7.37,4.68,12.12s-2.26,10.47,1.29,13.76l.89-.23c2.51-6.06,7.74-10.48,12.8-14.66,5.53-4.58,11.16-9.21,17.75-12.09,11-4.79,23.48-4.25,35.05-7.33a57.78,57.78,0,0,0,31.4-21.41c4.82-6.56,8.2-14.07,11-21.72,4.21-11.65,7.13-24.18,5-36.38-.78-4.47-2.3-9-5.33-12.34-4.74-5.28-12.24-6.94-19.24-8.1-14.59-2.42-29.56-3.9-44.14-1.43s-28.87,9.25-38,20.9a47.77,47.77,0,0,0-8.57,40.39c1.25,5,3.48,10,7.48,13.27a24.59,24.59,0,0,0,8,4.06c11.42,3.76,23.92,3.23,35.57.29s22.59-8.21,33.2-13.85"/><path class="cls-2" d="M2829.09,218.31l-9.33-2.66a54.49,54.49,0,0,0-7.74-2,11.7,11.7,0,0,0-6.62.74,6.4,6.4,0,0,0-3.64,5.6c-.09,5.89,6.65,8.74,11,11.05l8.23,4.38a11.9,11.9,0,0,0,1.9,1c-.32.21-.38-1.13-.34-1.11a7.5,7.5,0,0,0-.93.53c-.79.34-1.68.54-2.5.8a247.38,247.38,0,0,0-33.47,13.43c-5.29,2.58-10.56,5.29-15.6,8.33-4.33,2.62-8.61,6.48-8.3,12a8.42,8.42,0,0,0,2.82,6.09c2.41,2,5.53,2,8.44,1.28s6-1.87,9-2.83l9.47-3,18.47-5.9,4.27-1.37a22.25,22.25,0,0,1,4.66-1.3c1.81-.16,2.66.69,3.32,2.23a12,12,0,0,1,.61,5.19c-.13,1.95-.76,4.21-1,6.31a16.53,16.53,0,0,0,.32,7.6,10,10,0,0,0,1.75,3.14,3.17,3.17,0,0,0,3.58,1.29c1.54-.42,1.94-1.41,2.6-2.72a23.37,23.37,0,0,1,2.09-3.37,37.21,37.21,0,0,1,5.2-5.52,135.22,135.22,0,0,1,12.79-10.36,46.32,46.32,0,0,1,15.4-7.29c5.59-1.44,11.35-2.05,17.06-2.86a76.61,76.61,0,0,0,16.17-3.77,60.23,60.23,0,0,0,13.81-7.29,63.83,63.83,0,0,0,20.55-25c5.18-10.91,9.19-22.94,10.13-35,.84-10.89-.85-24.1-10.8-30.51-4.26-2.74-9.32-4-14.25-4.9-6.13-1.11-12.33-2-18.54-2.53-22.35-2-47,1.25-63.69,17.63a49.61,49.61,0,0,0-14.2,27.57,51.36,51.36,0,0,0,0,16c.81,5.12,2.43,10.41,5.55,14.63,3.56,4.82,8.76,7.34,14.42,9a59.72,59.72,0,0,0,18,2.12c12.16-.36,23.87-3.94,35-8.78,5.37-2.35,10.6-5,15.78-7.76,2.84-1.51.32-5.83-2.52-4.31-13.23,7-27.23,13.69-42.28,15.42a58.59,58.59,0,0,1-22-1.33,26.55,26.55,0,0,1-9.32-4.07,18.24,18.24,0,0,1-5.5-7.58c-4.83-11.67-3.27-25.88,2.66-36.84,6.13-11.31,17.07-19.06,29.08-23.17,14.26-4.88,29.58-4.75,44.39-2.95,6.8.83,14,1.6,20.44,4a17.07,17.07,0,0,1,11.65,12.95c3.86,14.42-.84,30.12-6.31,43.48a68.66,68.66,0,0,1-10.53,18.23,55.75,55.75,0,0,1-14.52,12.28,57.21,57.21,0,0,1-18.33,6.76c-7.13,1.37-14.41,1.84-21.5,3.45a52.22,52.22,0,0,0-19.55,9.11c-2.89,2.13-5.65,4.4-8.41,6.69a74,74,0,0,0-7.46,6.81,28.89,28.89,0,0,0-5.42,8.1l1.49-1.15-.89.23,2.43.64c-1.9-1.86-1.74-4.72-1.41-7.18.41-2.95,1.28-5.81,1.18-8.82a13.06,13.06,0,0,0-2.56-7.91c-2.22-2.73-5.71-3.2-9-2.36-4,1.05-8,2.52-12,3.79l-12.07,3.86-12.08,3.85-5.92,1.89c-1.63.53-3.5,1.31-5.24,1.05-2.2-.33-2.63-2.79-2.15-4.64.72-2.79,3.62-4.64,6-6.06a217,217,0,0,1,20.66-10.69q10.59-4.86,21.62-8.63,2.73-.94,5.47-1.81a15.31,15.31,0,0,0,4.67-2,4.53,4.53,0,0,0,2-4.82c-.56-2-2.44-2.78-4.09-3.65l-11-5.88c-1.7-.91-5.94-2.92-5.46-5.28.13-.65.58-.94,1.33-1.15a8.52,8.52,0,0,1,3.23-.12,32.26,32.26,0,0,1,4.53,1.13l6.06,1.74,5.83,1.66c3.1.89,4.42-3.94,1.33-4.82Z"/><path class="cls-2" d="M2607.81,70.6c15.39,6.91,30.87,13.87,45,23.13,3.45,2.25,6.82,4.63,10,7.19a73.73,73.73,0,0,0,6.75,5.06,46.84,46.84,0,0,0,21.63,6.92c8.54.54,16.94-1.53,24.71-5a2.52,2.52,0,0,0,.89-3.42,2.55,2.55,0,0,0-3.42-.9,48.7,48.7,0,0,1-19.89,4.36,41.56,41.56,0,0,1-20.77-5.93,47.52,47.52,0,0,1-6-4.39q-4.91-3.91-10.12-7.4A204.13,204.13,0,0,0,2635.42,78c-8.24-4.18-16.67-8-25.09-11.75a2.57,2.57,0,0,0-3.42.9,2.51,2.51,0,0,0,.9,3.42Z"/><rect class="cls-3" width="3018.5" height="288.92"/></g></g></svg>